<svg width="385" height="180" viewBox="0 0 385 180" fill="none" xmlns="http://www.w3.org/2000/svg">
<g clip-path="url(#clip0_540_755)">
<rect width="385" height="180" fill="url(#paint0_linear_540_755)"/>
<g filter="url(#filter0_d_540_755)">
<line x1="193.563" y1="50.6031" x2="252.717" y2="113.865" stroke="url(#paint1_radial_540_755)" stroke-width="1.30518" shape-rendering="crispEdges"/>
</g>
<g filter="url(#filter1_d_540_755)">
<line x1="270.498" y1="-25.6788" x2="321.708" y2="44.1697" stroke="url(#paint2_radial_540_755)" stroke-width="1.30518" shape-rendering="crispEdges"/>
</g>
<g filter="url(#filter2_d_540_755)">
<line x1="136.692" y1="130.88" x2="247.444" y2="130.88" stroke="url(#paint3_radial_540_755)" stroke-width="1.30518" shape-rendering="crispEdges"/>
</g>
<g filter="url(#filter3_d_540_755)">
<line x1="260.455" y1="128.234" x2="320.168" y2="50.9269" stroke="url(#paint4_radial_540_755)" stroke-width="1.30518" shape-rendering="crispEdges"/>
</g>
<g filter="url(#filter4_d_540_755)">
<line y1="-0.652592" x2="97.6833" y2="-0.652592" transform="matrix(-0.611293 -0.791404 -0.791404 0.611293 383.713 129.307)" stroke="url(#paint5_radial_540_755)" stroke-width="1.30518" shape-rendering="crispEdges"/>
</g>
<g filter="url(#filter5_d_540_755)">
<line x1="107.297" y1="129.116" x2="61.5885" y2="54.0812" stroke="url(#paint6_radial_540_755)" stroke-width="1.30518" shape-rendering="crispEdges"/>
</g>
<g filter="url(#filter6_d_540_755)">
<line y1="-0.652592" x2="87.8604" y2="-0.652592" transform="matrix(0.520237 -0.854022 -0.854022 -0.520237 18 130.035)" stroke="url(#paint7_radial_540_755)" stroke-width="1.30518" shape-rendering="crispEdges"/>
</g>
<g filter="url(#filter7_i_540_755)">
<circle cx="193.116" cy="50.57" r="27.0709" fill="black" fill-opacity="0.3"/>
</g>
<circle cx="193.116" cy="50.57" r="26.8248" stroke="url(#paint8_linear_540_755)" stroke-width="0.492199"/>
<g filter="url(#filter8_i_540_755)">
<path d="M204.992 54.0159C203.5 52.5234 201.063 52.5129 199.56 54.0159C198.057 55.5188 198.067 57.9557 199.56 59.4484C201.052 60.9403 203.5 60.9618 205.003 59.4588C205.325 59.1367 205.582 58.75 205.775 58.3419C206.387 59.083 206.892 59.9737 207.203 60.9722C207.213 61.0472 207.278 61.1118 207.342 61.1332C207.385 61.1546 207.449 61.155 207.482 61.1228C207.535 61.0908 207.578 61.0262 207.589 60.9298C207.675 59.7275 207.514 58.4502 207.085 57.2692C206.687 56.1852 206.097 55.2081 205.292 54.3383C205.196 54.2197 205.089 54.1123 204.992 54.0159Z" fill="#F83A40"/>
<path d="M189.734 40.7796C188.679 42.6075 189.299 44.9643 191.14 46.027C192.981 47.0898 195.332 46.449 196.387 44.621C197.443 42.7937 196.83 40.4236 194.989 39.3609C194.594 39.1331 194.154 38.9845 193.71 38.9033C194.267 38.1206 194.997 37.4023 195.881 36.8438C195.951 36.8142 195.997 36.7351 196.001 36.6676C196.01 36.6204 195.994 36.5583 195.954 36.5354C195.91 36.4918 195.836 36.4672 195.74 36.4817C194.557 36.7098 193.365 37.1959 192.335 37.9164C191.391 38.5806 190.6 39.4038 189.968 40.4066C189.878 40.5301 189.802 40.6615 189.734 40.7796Z" fill="#F83A40"/>
<path d="M182.921 60.035C184.749 61.0903 187.106 60.4698 188.169 58.629C189.232 56.7881 188.591 54.437 186.763 53.3816C184.935 52.3265 182.565 52.9395 181.503 54.7803C181.275 55.1747 181.126 55.6149 181.045 56.0591C180.262 55.5017 179.544 54.7719 178.986 53.8879C178.956 53.8181 178.877 53.7724 178.809 53.7684C178.762 53.7589 178.7 53.7751 178.677 53.8147C178.634 53.8593 178.609 53.9328 178.624 54.0287C178.852 55.2124 179.338 56.4045 180.058 57.434C180.722 58.3783 181.546 59.1693 182.548 59.801C182.672 59.8908 182.803 59.9669 182.921 60.035Z" fill="#F83A40"/>
<path d="M183.565 44.6446C183.565 45.966 184.636 47.0372 185.957 47.0372C187.279 47.0372 188.35 45.966 188.35 44.6446C188.35 43.3232 187.279 42.252 185.957 42.252C184.636 42.252 183.565 43.3232 183.565 44.6446Z" fill="#F83A40"/>
<path d="M180.33 49.5607C180.33 50.882 181.402 51.9532 182.723 51.9532C184.044 51.9532 185.116 50.882 185.116 49.5607C185.116 48.2392 184.044 47.168 182.723 47.168C181.402 47.168 180.33 48.2392 180.33 49.5607Z" fill="#F83A40"/>
<path d="M188.102 62.2725C188.102 63.5939 189.173 64.665 190.494 64.665C191.816 64.665 192.887 63.5939 192.887 62.2725C192.887 60.9511 191.816 59.8799 190.494 59.8799C189.173 59.8799 188.102 60.9511 188.102 62.2725Z" fill="#F83A40"/>
<path d="M197.831 44.6446C197.831 45.966 198.902 47.0372 200.224 47.0372C201.545 47.0372 202.616 45.966 202.616 44.6446C202.616 43.3232 201.545 42.252 200.224 42.252C198.902 42.252 197.831 43.3232 197.831 44.6446Z" fill="#F83A40"/>
<path d="M201.149 49.3262C201.149 50.6476 202.22 51.7189 203.542 51.7189C204.863 51.7189 205.934 50.6476 205.934 49.3262C205.934 48.0048 204.863 46.9336 203.542 46.9336C202.22 46.9336 201.149 48.0048 201.149 49.3262Z" fill="#F83A40"/>
<path d="M193.737 62.2628C193.737 63.5842 194.808 64.6554 196.13 64.6554C197.451 64.6554 198.522 63.5842 198.522 62.2628C198.522 60.9413 197.451 59.8701 196.13 59.8701C194.808 59.8701 193.737 60.9413 193.737 62.2628Z" fill="#F83A40"/>
<path d="M202.064 46.1748C201.807 46.4831 201.474 46.7258 201.094 46.8742C201.309 47.1759 201.506 47.4902 201.686 47.816C201.942 47.5023 202.275 47.2546 202.657 47.1024C202.474 46.7828 202.276 46.4732 202.064 46.1748Z" fill="#F83A40"/>
<path d="M204.054 51.6636C203.889 51.6997 203.718 51.7186 203.542 51.7186C203.301 51.7186 203.069 51.6832 202.85 51.6172C202.877 51.9124 202.891 52.2113 202.891 52.5134C202.891 52.6571 202.888 52.8002 202.882 52.9424C203.288 53.0068 203.685 53.1363 204.056 53.3305C204.076 53.0607 204.087 52.7883 204.087 52.5134C204.087 52.2275 204.076 51.9441 204.054 51.6636Z" fill="#F83A40"/>
<path d="M200.834 60.2964C200.457 60.1435 200.099 59.929 199.777 59.6533C199.266 60.128 198.704 60.5484 198.099 60.9055C198.328 61.2356 198.475 61.6257 198.513 62.0475C199.364 61.568 200.144 60.9777 200.834 60.2964Z" fill="#F83A40"/>
<path d="M194.032 63.4134C193.844 63.072 193.738 62.6801 193.738 62.2632C193.738 62.2538 193.738 62.2447 193.738 62.2354C193.544 62.2469 193.349 62.2526 193.153 62.2526C193.064 62.2526 192.976 62.2515 192.888 62.2491C192.888 62.2568 192.888 62.2644 192.888 62.272C192.888 62.6937 192.779 63.0899 192.587 63.4338C192.774 63.4434 192.963 63.4482 193.153 63.4482C193.449 63.4482 193.742 63.4364 194.032 63.4134Z" fill="#F83A40"/>
<path d="M188.102 62.2144C188.112 61.7855 188.235 61.3844 188.442 61.0399C187.886 60.7318 187.363 60.3709 186.879 59.9639C186.498 60.2015 186.079 60.3697 185.644 60.4628C186.375 61.1537 187.202 61.7449 188.102 62.2144Z" fill="#F83A40"/>
<path d="M183.533 47.3101C183.92 47.4492 184.261 47.6854 184.526 47.9891C184.723 47.6146 184.944 47.2546 185.186 46.9109C184.798 46.7789 184.456 46.5503 184.186 46.2539C183.95 46.5925 183.731 46.9451 183.533 47.3101Z" fill="#F83A40"/>
<path d="M196.979 52.4497C196.979 54.5707 195.26 56.2901 193.139 56.2901C191.018 56.2901 189.299 54.5707 189.299 52.4497C189.299 50.3287 191.018 48.6094 193.139 48.6094C195.26 48.6094 196.979 50.3287 196.979 52.4497Z" fill="#F83A40"/>
</g>
<g filter="url(#filter9_i_540_755)">
<circle cx="259.742" cy="127.84" r="27.0709" fill="black" fill-opacity="0.3"/>
</g>
<circle cx="259.742" cy="127.84" r="26.8248" stroke="url(#paint9_linear_540_755)" stroke-width="0.492199"/>
<path d="M271.618 131.286C270.126 129.794 267.689 129.783 266.186 131.286C264.683 132.789 264.693 135.226 266.186 136.719C267.678 138.211 270.126 138.232 271.629 136.729C271.951 136.407 272.208 136.021 272.402 135.612C273.014 136.353 273.519 137.244 273.829 138.243C273.84 138.318 273.904 138.382 273.968 138.404C274.012 138.425 274.076 138.426 274.108 138.393C274.162 138.361 274.205 138.297 274.215 138.2C274.301 136.998 274.14 135.721 273.711 134.54C273.314 133.456 272.723 132.479 271.918 131.609C271.822 131.49 271.715 131.383 271.618 131.286Z" fill="#F83A40"/>
<path d="M256.36 118.05C255.305 119.878 255.925 122.235 257.766 123.297C259.607 124.36 261.958 123.719 263.013 121.891C264.068 120.064 263.456 117.694 261.615 116.631C261.22 116.404 260.78 116.255 260.336 116.174C260.893 115.391 261.623 114.673 262.507 114.114C262.577 114.085 262.623 114.006 262.627 113.938C262.636 113.891 262.62 113.829 262.58 113.806C262.536 113.762 262.462 113.738 262.366 113.752C261.183 113.98 259.99 114.466 258.961 115.187C258.017 115.851 257.226 116.674 256.594 117.677C256.504 117.801 256.428 117.932 256.36 118.05Z" fill="#F83A40"/>
<path d="M249.548 137.304C251.376 138.359 253.732 137.738 254.795 135.898C255.858 134.057 255.217 131.706 253.389 130.65C251.562 129.595 249.192 130.208 248.129 132.049C247.901 132.443 247.753 132.883 247.672 133.328C246.889 132.77 246.17 132.04 245.612 131.156C245.582 131.087 245.503 131.041 245.436 131.037C245.389 131.027 245.326 131.044 245.304 131.083C245.26 131.128 245.235 131.201 245.25 131.297C245.478 132.481 245.964 133.673 246.685 134.703C247.349 135.647 248.172 136.438 249.175 137.07C249.298 137.159 249.43 137.235 249.548 137.304Z" fill="#F83A40"/>
<path d="M250.191 121.915C250.191 123.237 251.262 124.308 252.584 124.308C253.905 124.308 254.976 123.237 254.976 121.915C254.976 120.594 253.905 119.522 252.584 119.522C251.262 119.522 250.191 120.594 250.191 121.915Z" fill="#F83A40"/>
<path d="M246.958 126.831C246.958 128.153 248.029 129.224 249.35 129.224C250.672 129.224 251.743 128.153 251.743 126.831C251.743 125.51 250.672 124.438 249.35 124.438C248.029 124.438 246.958 125.51 246.958 126.831Z" fill="#F83A40"/>
<path d="M254.728 139.54C254.728 140.862 255.799 141.933 257.12 141.933C258.442 141.933 259.513 140.862 259.513 139.54C259.513 138.219 258.442 137.147 257.12 137.147C255.799 137.147 254.728 138.219 254.728 139.54Z" fill="#F83A40"/>
<path d="M264.458 121.915C264.458 123.237 265.529 124.308 266.851 124.308C268.172 124.308 269.243 123.237 269.243 121.915C269.243 120.594 268.172 119.522 266.851 119.522C265.529 119.522 264.458 120.594 264.458 121.915Z" fill="#F83A40"/>
<path d="M267.776 126.596C267.776 127.917 268.847 128.988 270.169 128.988C271.49 128.988 272.561 127.917 272.561 126.596C272.561 125.274 271.49 124.203 270.169 124.203C268.847 124.203 267.776 125.274 267.776 126.596Z" fill="#F83A40"/>
<path d="M260.364 139.531C260.364 140.853 261.436 141.924 262.757 141.924C264.078 141.924 265.15 140.853 265.15 139.531C265.15 138.21 264.078 137.139 262.757 137.139C261.436 137.139 260.364 138.21 260.364 139.531Z" fill="#F83A40"/>
<path d="M263.448 120.757C263.825 120.911 264.19 121.087 264.542 121.285C264.649 120.888 264.857 120.533 265.135 120.246C264.615 119.954 264.069 119.703 263.501 119.497C263.552 119.913 263.536 120.339 263.448 120.757Z" fill="#F83A40"/>
<path d="M255.868 119.569C255.339 119.772 254.829 120.015 254.343 120.294C254.614 120.587 254.812 120.948 254.909 121.348C255.242 121.155 255.588 120.981 255.945 120.828C255.851 120.418 255.824 119.993 255.868 119.569Z" fill="#F83A40"/>
<path d="M268.69 123.444C268.433 123.753 268.1 123.995 267.72 124.144C267.935 124.445 268.133 124.76 268.312 125.086C268.568 124.772 268.901 124.524 269.283 124.372C269.101 124.052 268.903 123.743 268.69 123.444Z" fill="#F83A40"/>
<path d="M270.681 128.932C270.516 128.968 270.344 128.987 270.169 128.987C269.928 128.987 269.696 128.952 269.477 128.886C269.504 129.181 269.518 129.48 269.518 129.782C269.518 129.926 269.515 130.069 269.509 130.211C269.914 130.275 270.312 130.405 270.683 130.599C270.703 130.329 270.713 130.057 270.713 129.782C270.713 129.496 270.702 129.213 270.681 128.932Z" fill="#F83A40"/>
<path d="M267.46 137.564C267.083 137.411 266.725 137.197 266.404 136.921C265.892 137.396 265.33 137.816 264.726 138.173C264.954 138.503 265.101 138.893 265.139 139.315C265.99 138.836 266.77 138.245 267.46 137.564Z" fill="#F83A40"/>
<path d="M260.658 140.684C260.471 140.343 260.364 139.951 260.364 139.534C260.364 139.524 260.364 139.515 260.364 139.506C260.171 139.517 259.976 139.523 259.779 139.523C259.691 139.523 259.602 139.522 259.514 139.52C259.514 139.527 259.514 139.535 259.514 139.543C259.514 139.964 259.405 140.36 259.214 140.704C259.401 140.714 259.59 140.719 259.779 140.719C260.075 140.719 260.368 140.707 260.658 140.684Z" fill="#F83A40"/>
<path d="M254.729 139.484C254.739 139.055 254.862 138.654 255.069 138.309C254.513 138.001 253.99 137.64 253.507 137.233C253.125 137.471 252.706 137.639 252.271 137.732C253.002 138.423 253.829 139.014 254.729 139.484Z" fill="#F83A40"/>
<path d="M248.922 131.086C249.261 130.79 249.647 130.559 250.06 130.399C250.047 130.196 250.04 129.99 250.04 129.783C250.04 129.559 250.048 129.337 250.063 129.116C249.838 129.186 249.599 129.224 249.351 129.224C249.183 129.224 249.02 129.207 248.862 129.174C248.851 129.376 248.845 129.579 248.845 129.783C248.845 130.224 248.871 130.659 248.922 131.086Z" fill="#F83A40"/>
<path d="M250.16 124.579C250.547 124.718 250.888 124.954 251.153 125.258C251.35 124.883 251.57 124.523 251.812 124.179C251.425 124.047 251.082 123.819 250.813 123.522C250.576 123.861 250.358 124.214 250.16 124.579Z" fill="#F83A40"/>
<path d="M263.605 129.72C263.605 131.841 261.886 133.561 259.765 133.561C257.644 133.561 255.925 131.841 255.925 129.72C255.925 127.599 257.644 125.88 259.765 125.88C261.886 125.88 263.605 127.599 263.605 129.72Z" fill="#F83A40"/>
<g filter="url(#filter10_i_540_755)">
<circle cx="321.177" cy="49.402" r="27.0709" fill="black" fill-opacity="0.3"/>
</g>
<circle cx="321.177" cy="49.402" r="26.8248" stroke="url(#paint10_linear_540_755)" stroke-width="0.492199"/>
<path d="M333.054 52.8469C331.561 51.3545 329.124 51.3439 327.621 52.8469C326.118 54.3499 326.129 56.7868 327.621 58.2794C329.113 59.7714 331.561 59.7928 333.064 58.2898C333.386 57.9677 333.644 57.5811 333.837 57.173C334.449 57.914 334.954 58.8048 335.265 59.8032C335.275 59.8782 335.34 59.9428 335.404 59.9642C335.447 59.9856 335.511 59.9861 335.544 59.9538C335.597 59.9219 335.64 59.8573 335.651 59.7609C335.737 58.5586 335.576 57.2813 335.146 56.1003C334.749 55.0163 334.159 54.0391 333.354 53.1693C333.258 53.0507 333.15 52.9433 333.054 52.8469Z" fill="#F83A40"/>
<path d="M317.796 39.6097C316.741 41.4376 317.361 43.7943 319.202 44.857C321.043 45.9199 323.394 45.279 324.449 43.451C325.504 41.6237 324.891 39.2537 323.051 38.1909C322.656 37.9632 322.216 37.8145 321.772 37.7334C322.329 36.9506 323.059 36.2324 323.943 35.6739C324.013 35.6443 324.058 35.5652 324.062 35.4977C324.072 35.4504 324.056 35.3884 324.016 35.3655C323.972 35.3219 323.898 35.2973 323.802 35.3118C322.618 35.5399 321.426 36.026 320.397 36.7465C319.453 37.4106 318.661 38.2338 318.03 39.2367C317.94 39.3602 317.864 39.4916 317.796 39.6097Z" fill="#F83A40"/>
<path d="M310.983 58.8651C312.811 59.9204 315.167 59.2999 316.23 57.4591C317.293 55.6182 316.652 53.2671 314.824 52.2117C312.997 51.1566 310.627 51.7695 309.564 53.6104C309.336 54.0048 309.188 54.445 309.106 54.8892C308.324 54.3317 307.605 53.602 307.047 52.718C307.017 52.6482 306.938 52.6025 306.871 52.5985C306.823 52.589 306.761 52.6052 306.739 52.6448C306.695 52.6894 306.67 52.7628 306.685 52.8588C306.913 54.0425 307.399 55.2346 308.12 56.2641C308.784 57.2084 309.607 57.9994 310.61 58.6311C310.733 58.7209 310.865 58.7969 310.983 58.8651Z" fill="#F83A40"/>
<path d="M311.626 43.4747C311.626 44.7961 312.697 45.8673 314.019 45.8673C315.34 45.8673 316.411 44.7961 316.411 43.4747C316.411 42.1533 315.34 41.082 314.019 41.082C312.697 41.082 311.626 42.1533 311.626 43.4747Z" fill="#F83A40"/>
<path d="M308.393 48.3898C308.393 49.7111 309.464 50.7823 310.786 50.7823C312.107 50.7823 313.178 49.7111 313.178 48.3898C313.178 47.0683 312.107 45.9971 310.786 45.9971C309.464 45.9971 308.393 47.0683 308.393 48.3898Z" fill="#F83A40"/>
<path d="M316.163 61.1016C316.163 62.423 317.234 63.4941 318.555 63.4941C319.877 63.4941 320.948 62.423 320.948 61.1016C320.948 59.7802 319.877 58.709 318.555 58.709C317.234 58.709 316.163 59.7802 316.163 61.1016Z" fill="#F83A40"/>
<path d="M325.894 43.4747C325.894 44.7961 326.965 45.8673 328.286 45.8673C329.607 45.8673 330.679 44.7961 330.679 43.4747C330.679 42.1533 329.607 41.082 328.286 41.082C326.965 41.082 325.894 42.1533 325.894 43.4747Z" fill="#F83A40"/>
<path d="M329.212 48.1553C329.212 49.4767 330.283 50.548 331.604 50.548C332.926 50.548 333.997 49.4767 333.997 48.1553C333.997 46.8339 332.926 45.7627 331.604 45.7627C330.283 45.7627 329.212 46.8339 329.212 48.1553Z" fill="#F83A40"/>
<path d="M321.799 61.0919C321.799 62.4133 322.87 63.4845 324.192 63.4845C325.513 63.4845 326.584 62.4133 326.584 61.0919C326.584 59.7705 325.513 58.6992 324.192 58.6992C322.87 58.6992 321.799 59.7705 321.799 61.0919Z" fill="#F83A40"/>
<path d="M324.884 42.319C325.261 42.4723 325.626 42.6488 325.978 42.8463C326.085 42.4498 326.292 42.0942 326.57 41.8078C326.051 41.5153 325.505 41.2642 324.937 41.0586C324.988 41.475 324.971 41.9009 324.884 42.319Z" fill="#F83A40"/>
<path d="M317.303 41.1279C316.774 41.3306 316.265 41.5734 315.779 41.8522C316.049 42.1453 316.247 42.5061 316.344 42.9064C316.678 42.7135 317.023 42.5399 317.38 42.3868C317.286 41.9768 317.259 41.5513 317.303 41.1279Z" fill="#F83A40"/>
<path d="M330.125 45.0039C329.868 45.3122 329.535 45.5549 329.155 45.7033C329.37 46.005 329.568 46.3193 329.747 46.6451C330.003 46.3314 330.336 46.0837 330.718 45.9315C330.536 45.6119 330.338 45.3023 330.125 45.0039Z" fill="#F83A40"/>
<path d="M332.116 50.4927C331.951 50.5288 331.78 50.5478 331.604 50.5478C331.364 50.5478 331.132 50.5123 330.913 50.4463C330.94 50.7415 330.953 51.0404 330.953 51.3425C330.953 51.4862 330.95 51.6293 330.944 51.7715C331.35 51.8359 331.747 51.9654 332.119 52.1596C332.139 51.8898 332.149 51.6174 332.149 51.3425C332.149 51.0566 332.138 50.7732 332.116 50.4927Z" fill="#F83A40"/>
<path d="M328.896 59.1255C328.518 58.9726 328.161 58.7581 327.839 58.4824C327.328 58.9571 326.765 59.3775 326.161 59.7346C326.389 60.0647 326.537 60.4548 326.574 60.8766C327.425 60.3971 328.206 59.8068 328.896 59.1255Z" fill="#F83A40"/>
<path d="M322.093 62.2435C321.906 61.9021 321.799 61.5102 321.799 61.0932C321.799 61.0839 321.799 61.0747 321.799 61.0654C321.606 61.077 321.41 61.0827 321.214 61.0827C321.125 61.0827 321.037 61.0816 320.949 61.0792C320.949 61.0868 320.949 61.0945 320.949 61.1021C320.949 61.5237 320.84 61.9199 320.648 62.2639C320.836 62.2734 321.024 62.2783 321.214 62.2783C321.51 62.2783 321.803 62.2665 322.093 62.2435Z" fill="#F83A40"/>
<path d="M316.165 61.0455C316.175 60.6165 316.298 60.2155 316.505 59.871C315.948 59.5629 315.425 59.202 314.942 58.7949C314.561 59.0326 314.142 59.2008 313.706 59.2938C314.438 59.9848 315.264 60.5759 316.165 61.0455Z" fill="#F83A40"/>
<path d="M310.357 52.6449C310.696 52.3483 311.082 52.1177 311.495 51.958C311.482 51.7543 311.475 51.5489 311.475 51.342C311.475 51.1178 311.483 50.8953 311.498 50.6748C311.273 50.7449 311.034 50.7827 310.786 50.7827C310.618 50.7827 310.454 50.7654 310.297 50.7327C310.286 50.9343 310.28 51.1375 310.28 51.342C310.28 51.7829 310.306 52.2177 310.357 52.6449Z" fill="#F83A40"/>
<path d="M311.595 46.1392C311.982 46.2783 312.323 46.5145 312.588 46.8182C312.785 46.4437 313.006 46.0837 313.248 45.74C312.86 45.608 312.517 45.3794 312.248 45.083C312.011 45.4216 311.793 45.7742 311.595 46.1392Z" fill="#F83A40"/>
<path d="M325.041 51.2807C325.041 53.4018 323.322 55.1211 321.201 55.1211C319.08 55.1211 317.361 53.4018 317.361 51.2807C317.361 49.1598 319.08 47.4404 321.201 47.4404C323.322 47.4404 325.041 49.1598 325.041 51.2807Z" fill="#F83A40"/>
<g filter="url(#filter11_i_540_755)">
<circle cx="121.836" cy="127.929" r="27.0709" fill="black" fill-opacity="0.3"/>
</g>
<circle cx="121.836" cy="127.929" r="26.8248" stroke="url(#paint11_linear_540_755)" stroke-width="0.492199"/>
<path d="M133.714 131.374C132.221 129.882 129.784 129.871 128.281 131.374C126.778 132.877 126.789 135.314 128.281 136.807C129.773 138.299 132.221 138.32 133.724 136.817C134.046 136.495 134.304 136.108 134.497 135.7C135.109 136.441 135.614 137.332 135.924 138.331C135.935 138.406 136 138.47 136.064 138.492C136.107 138.513 136.171 138.513 136.203 138.481C136.257 138.449 136.3 138.385 136.311 138.288C136.397 137.086 136.236 135.809 135.806 134.628C135.409 133.544 134.819 132.566 134.013 131.697C133.917 131.578 133.81 131.471 133.714 131.374Z" fill="#F83A40"/>
<path d="M118.456 118.139C117.4 119.967 118.021 122.324 119.862 123.386C121.702 124.449 124.054 123.808 125.109 121.98C126.164 120.153 125.551 117.783 123.71 116.72C123.316 116.492 122.876 116.344 122.431 116.263C122.989 115.48 123.719 114.762 124.603 114.203C124.672 114.174 124.718 114.095 124.722 114.027C124.732 113.98 124.715 113.918 124.676 113.895C124.631 113.851 124.558 113.827 124.462 113.841C123.278 114.069 122.086 114.555 121.057 115.276C120.112 115.94 119.321 116.763 118.69 117.766C118.6 117.889 118.524 118.021 118.456 118.139Z" fill="#F83A40"/>
<path d="M111.643 137.392C113.47 138.448 115.827 137.827 116.89 135.986C117.953 134.146 117.312 131.794 115.484 130.739C113.656 129.684 111.287 130.297 110.224 132.138C109.996 132.532 109.847 132.972 109.766 133.417C108.983 132.859 108.265 132.129 107.707 131.245C107.677 131.175 107.598 131.13 107.531 131.126C107.483 131.116 107.421 131.133 107.398 131.172C107.355 131.217 107.33 131.29 107.345 131.386C107.573 132.57 108.059 133.762 108.779 134.791C109.443 135.736 110.267 136.527 111.27 137.158C111.393 137.248 111.524 137.324 111.643 137.392Z" fill="#F83A40"/>
<path d="M112.286 122.003C112.286 123.324 113.357 124.396 114.678 124.396C115.999 124.396 117.071 123.324 117.071 122.003C117.071 120.682 115.999 119.61 114.678 119.61C113.357 119.61 112.286 120.682 112.286 122.003Z" fill="#F83A40"/>
<path d="M109.052 126.918C109.052 128.239 110.124 129.311 111.445 129.311C112.766 129.311 113.838 128.239 113.838 126.918C113.838 125.597 112.766 124.525 111.445 124.525C110.124 124.525 109.052 125.597 109.052 126.918Z" fill="#F83A40"/>
<path d="M116.822 139.629C116.822 140.95 117.894 142.021 119.215 142.021C120.536 142.021 121.608 140.95 121.608 139.629C121.608 138.308 120.536 137.236 119.215 137.236C117.894 137.236 116.822 138.308 116.822 139.629Z" fill="#F83A40"/>
<path d="M126.553 122.003C126.553 123.324 127.624 124.396 128.946 124.396C130.267 124.396 131.338 123.324 131.338 122.003C131.338 120.682 130.267 119.61 128.946 119.61C127.624 119.61 126.553 120.682 126.553 122.003Z" fill="#F83A40"/>
<path d="M129.871 126.684C129.871 128.005 130.943 129.076 132.264 129.076C133.585 129.076 134.657 128.005 134.657 126.684C134.657 125.362 133.585 124.291 132.264 124.291C130.943 124.291 129.871 125.362 129.871 126.684Z" fill="#F83A40"/>
<path d="M122.459 139.619C122.459 140.941 123.53 142.012 124.851 142.012C126.173 142.012 127.244 140.941 127.244 139.619C127.244 138.298 126.173 137.227 124.851 137.227C123.53 137.227 122.459 138.298 122.459 139.619Z" fill="#F83A40"/>
<path d="M125.543 120.846C125.92 121 126.285 121.176 126.637 121.374C126.745 120.977 126.952 120.622 127.23 120.335C126.71 120.043 126.164 119.792 125.597 119.586C125.647 120.002 125.631 120.428 125.543 120.846Z" fill="#F83A40"/>
<path d="M117.963 119.656C117.434 119.859 116.924 120.102 116.438 120.38C116.709 120.674 116.907 121.034 117.004 121.435C117.337 121.242 117.683 121.068 118.04 120.915C117.946 120.505 117.919 120.08 117.963 119.656Z" fill="#F83A40"/>
<path d="M130.785 123.532C130.528 123.841 130.195 124.083 129.815 124.232C130.03 124.533 130.227 124.848 130.407 125.173C130.663 124.86 130.996 124.612 131.378 124.46C131.195 124.14 130.997 123.831 130.785 123.532Z" fill="#F83A40"/>
<path d="M132.776 129.02C132.611 129.056 132.44 129.075 132.264 129.075C132.024 129.075 131.791 129.04 131.573 128.974C131.599 129.269 131.613 129.568 131.613 129.87C131.613 130.014 131.61 130.157 131.604 130.299C132.01 130.363 132.407 130.493 132.779 130.687C132.799 130.417 132.809 130.145 132.809 129.87C132.809 129.584 132.798 129.301 132.776 129.02Z" fill="#F83A40"/>
<path d="M129.556 137.653C129.178 137.5 128.821 137.285 128.499 137.01C127.988 137.484 127.425 137.905 126.821 138.262C127.049 138.592 127.197 138.982 127.235 139.404C128.085 138.924 128.866 138.334 129.556 137.653Z" fill="#F83A40"/>
<path d="M122.753 140.773C122.566 140.431 122.459 140.039 122.459 139.623C122.459 139.613 122.459 139.604 122.459 139.595C122.265 139.606 122.07 139.612 121.874 139.612C121.785 139.612 121.697 139.611 121.609 139.609C121.609 139.616 121.609 139.624 121.609 139.631C121.609 140.053 121.5 140.449 121.308 140.793C121.496 140.803 121.684 140.808 121.874 140.808C122.17 140.808 122.463 140.796 122.753 140.773Z" fill="#F83A40"/>
<path d="M116.824 139.574C116.834 139.145 116.957 138.744 117.165 138.399C116.608 138.091 116.085 137.73 115.602 137.323C115.22 137.561 114.801 137.729 114.366 137.822C115.097 138.513 115.924 139.104 116.824 139.574Z" fill="#F83A40"/>
<path d="M111.017 131.174C111.356 130.878 111.742 130.647 112.154 130.487C112.142 130.284 112.135 130.078 112.135 129.871C112.135 129.647 112.143 129.425 112.158 129.204C111.933 129.274 111.694 129.312 111.445 129.312C111.278 129.312 111.114 129.295 110.956 129.262C110.945 129.464 110.94 129.667 110.94 129.871C110.94 130.312 110.966 130.747 111.017 131.174Z" fill="#F83A40"/>
<path d="M112.255 124.668C112.642 124.807 112.983 125.043 113.248 125.346C113.445 124.972 113.665 124.612 113.907 124.268C113.52 124.136 113.177 123.908 112.908 123.611C112.671 123.95 112.453 124.302 112.255 124.668Z" fill="#F83A40"/>
<path d="M125.701 129.808C125.701 131.929 123.981 133.648 121.861 133.648C119.74 133.648 118.02 131.929 118.02 129.808C118.02 127.687 119.74 125.968 121.861 125.968C123.981 125.968 125.701 127.687 125.701 129.808Z" fill="#F83A40"/>
<g filter="url(#filter12_d_540_755)">
<line x1="193.082" y1="51.5127" x2="320.68" y2="50.7103" stroke="url(#paint12_radial_540_755)" stroke-width="1.2305" shape-rendering="crispEdges"/>
</g>
<g filter="url(#filter13_d_540_755)">
<line x1="193.1" y1="51.7112" x2="62.1594" y2="54.4036" stroke="url(#paint13_radial_540_755)" stroke-width="1.32504" shape-rendering="crispEdges"/>
</g>
<g filter="url(#filter14_d_540_755)">
<line x1="193.576" y1="53.6387" x2="128.489" y2="127.432" stroke="url(#paint14_radial_540_755)" stroke-width="1.30518" shape-rendering="crispEdges"/>
</g>
<g filter="url(#filter15_d_540_755)">
<line x1="119.893" y1="-43.9305" x2="73.9261" y2="35.687" stroke="url(#paint15_radial_540_755)" stroke-width="1.30518" shape-rendering="crispEdges"/>
</g>
<g filter="url(#filter16_i_540_755)">
<circle cx="63.846" cy="54.2331" r="27.0709" fill="black" fill-opacity="0.3"/>
</g>
<circle cx="63.846" cy="54.2331" r="26.8248" stroke="url(#paint16_linear_540_755)" stroke-width="0.492199"/>
<path d="M75.7233 57.678C74.2309 56.1855 71.7938 56.175 70.2908 57.678C68.7878 59.1809 68.7983 61.6178 70.2908 63.1105C71.7829 64.6025 74.2308 64.6239 75.7337 63.1209C76.0558 62.7988 76.3132 62.4121 76.5066 62.004C77.1184 62.7451 77.6234 63.6358 77.934 64.6343C77.9446 64.7093 78.0092 64.7739 78.0733 64.7953C78.1164 64.8167 78.1807 64.8171 78.213 64.7849C78.2666 64.7529 78.3094 64.6883 78.3203 64.5919C78.4063 63.3896 78.2453 62.1123 77.8159 60.9313C77.4187 59.8473 76.8283 58.8702 76.0231 58.0004C75.927 57.8818 75.8197 57.7744 75.7233 57.678Z" fill="#F83A40"/>
<path d="M60.465 44.4427C59.4097 46.2706 60.0303 48.6273 61.871 49.69C63.7119 50.7529 66.063 50.112 67.1184 48.2841C68.1735 46.4567 67.5606 44.0867 65.7197 43.0239C65.3253 42.7962 64.8852 42.6476 64.441 42.5664C64.9984 41.7836 65.7281 41.0654 66.6121 40.5069C66.682 40.4773 66.7276 40.3982 66.7317 40.3307C66.7412 40.2834 66.7249 40.2214 66.6854 40.1985C66.6407 40.1549 66.5673 40.1303 66.4712 40.1448C65.2877 40.3729 64.0956 40.859 63.066 41.5795C62.1217 42.2436 61.3307 43.0669 60.699 44.0697C60.6092 44.1932 60.5332 44.3246 60.465 44.4427Z" fill="#F83A40"/>
<path d="M53.6527 63.6971C55.4806 64.7524 57.8372 64.1319 58.9 62.2911C59.9629 60.4503 59.322 58.0992 57.494 57.0437C55.6666 55.9886 53.2967 56.6016 52.2339 58.4424C52.0062 58.8369 51.8575 59.277 51.7764 59.7212C50.9936 59.1638 50.2753 58.434 49.7168 57.55C49.6873 57.4802 49.6082 57.4346 49.5407 57.4305C49.4934 57.421 49.4313 57.4372 49.4085 57.4768C49.3649 57.5214 49.3403 57.5949 49.3547 57.6908C49.5829 58.8745 50.069 60.0666 50.7894 61.0961C51.4536 62.0405 52.2768 62.8314 53.2797 63.4632C53.4032 63.553 53.5346 63.629 53.6527 63.6971Z" fill="#F83A40"/>
<path d="M54.2954 48.3077C54.2954 49.6291 55.3667 50.7003 56.688 50.7003C58.0094 50.7003 59.0806 49.6291 59.0806 48.3077C59.0806 46.9863 58.0094 45.915 56.688 45.915C55.3667 45.915 54.2954 46.9863 54.2954 48.3077Z" fill="#F83A40"/>
<path d="M51.062 53.2228C51.062 54.5441 52.1332 55.6154 53.4546 55.6154C54.776 55.6154 55.8472 54.5441 55.8472 53.2228C55.8472 51.9013 54.776 50.8301 53.4546 50.8301C52.1332 50.8301 51.062 51.9013 51.062 53.2228Z" fill="#F83A40"/>
<path d="M58.8325 65.9346C58.8325 67.256 59.9038 68.3272 61.2251 68.3272C62.5465 68.3272 63.6177 67.256 63.6177 65.9346C63.6177 64.6132 62.5465 63.542 61.2251 63.542C59.9038 63.542 58.8325 64.6132 58.8325 65.9346Z" fill="#F83A40"/>
<path d="M68.563 48.3077C68.563 49.6291 69.6341 50.7003 70.9556 50.7003C72.2769 50.7003 73.3482 49.6291 73.3482 48.3077C73.3482 46.9863 72.2769 45.915 70.9556 45.915C69.6341 45.915 68.563 46.9863 68.563 48.3077Z" fill="#F83A40"/>
<path d="M71.8809 52.9873C71.8809 54.3088 72.9521 55.38 74.2734 55.38C75.5949 55.38 76.666 54.3088 76.666 52.9873C76.666 51.666 75.5949 50.5947 74.2734 50.5947C72.9521 50.5947 71.8809 51.666 71.8809 52.9873Z" fill="#F83A40"/>
<path d="M64.4681 65.9249C64.4681 67.2463 65.5394 68.3175 66.8607 68.3175C68.1822 68.3175 69.2534 67.2463 69.2534 65.9249C69.2534 64.6035 68.1822 63.5322 66.8607 63.5322C65.5394 63.5322 64.4681 64.6035 64.4681 65.9249Z" fill="#F83A40"/>
<path d="M67.5532 47.152C67.9303 47.3053 68.2954 47.4818 68.6472 47.6793C68.7548 47.2828 68.9619 46.9272 69.2399 46.6408C68.7204 46.3483 68.1744 46.0972 67.6067 45.8916C67.6573 46.308 67.6409 46.7339 67.5532 47.152Z" fill="#F83A40"/>
<path d="M59.9729 45.9609C59.4437 46.1636 58.9343 46.4064 58.4484 46.6852C58.7187 46.9784 58.9167 47.3391 59.0139 47.7394C59.3473 47.5465 59.6931 47.3729 60.05 47.2198C59.9562 46.8098 59.9289 46.3843 59.9729 45.9609Z" fill="#F83A40"/>
<path d="M72.7948 49.8359C72.538 50.1442 72.2051 50.387 71.8251 50.5353C72.0397 50.837 72.2374 51.1513 72.4171 51.4771C72.6726 51.1635 73.0059 50.9157 73.3878 50.7636C73.2055 50.4439 73.0074 50.1344 72.7948 49.8359Z" fill="#F83A40"/>
<path d="M74.786 55.3257C74.621 55.3618 74.4496 55.3808 74.2738 55.3808C74.0334 55.3808 73.8012 55.3453 73.5824 55.2793C73.6093 55.5745 73.6231 55.8734 73.6231 56.1755C73.6231 56.3192 73.62 56.4623 73.6138 56.6045C74.0196 56.6689 74.417 56.7984 74.7885 56.9926C74.8085 56.7229 74.8187 56.4504 74.8187 56.1755C74.8187 55.8896 74.8077 55.6062 74.786 55.3257Z" fill="#F83A40"/>
<path d="M71.5653 63.9585C71.1878 63.8056 70.8302 63.5911 70.5084 63.3154C69.9972 63.7901 69.4348 64.2105 68.8306 64.5676C69.0587 64.8977 69.206 65.2878 69.2439 65.7096C70.0949 65.2301 70.8752 64.6398 71.5653 63.9585Z" fill="#F83A40"/>
<path d="M64.7628 67.0765C64.5753 66.7351 64.4687 66.3432 64.4687 65.9262C64.4687 65.9169 64.4687 65.9077 64.4688 65.8984C64.2752 65.91 64.0801 65.9157 63.8837 65.9157C63.795 65.9157 63.7067 65.9146 63.6186 65.9122C63.6186 65.9198 63.6187 65.9275 63.6187 65.9351C63.6187 66.3568 63.5096 66.753 63.3181 67.0969C63.5055 67.1064 63.694 67.1113 63.8837 67.1113C64.1796 67.1113 64.4728 67.0995 64.7628 67.0765Z" fill="#F83A40"/>
<path d="M58.8336 65.8775C58.8437 65.4485 58.9666 65.0475 59.1739 64.703C58.6174 64.3949 58.0942 64.034 57.6111 63.627C57.2298 63.8646 56.8108 64.0328 56.3754 64.1259C57.1068 64.8168 57.9335 65.408 58.8336 65.8775Z" fill="#F83A40"/>
<path d="M53.0259 57.478C53.3654 57.1813 53.7516 56.9507 54.1638 56.791C54.1511 56.5873 54.1446 56.382 54.1446 56.175C54.1446 55.9508 54.1522 55.7283 54.1671 55.5078C53.9421 55.5779 53.7029 55.6157 53.4549 55.6157C53.2873 55.6157 53.1237 55.5984 52.9658 55.5657C52.9547 55.7674 52.9491 55.9705 52.9491 56.175C52.9491 56.6159 52.9752 57.0507 53.0259 57.478Z" fill="#F83A40"/>
<path d="M54.2645 50.9712C54.6515 51.1104 54.9923 51.3465 55.2575 51.6502C55.4544 51.2757 55.6749 50.9158 55.917 50.572C55.5295 50.4401 55.1868 50.2115 54.9174 49.915C54.6806 50.2536 54.4625 50.6062 54.2645 50.9712Z" fill="#F83A40"/>
<path d="M67.7104 56.1137C67.7104 58.2348 65.991 59.9541 63.8701 59.9541C61.7491 59.9541 60.0298 58.2348 60.0298 56.1137C60.0298 53.9928 61.7491 52.2734 63.8701 52.2734C65.991 52.2734 67.7104 53.9928 67.7104 56.1137Z" fill="#F83A40"/>
<rect width="386" height="46" transform="translate(0 134)" fill="url(#paint17_linear_540_755)"/>
<rect width="276" height="61" transform="translate(56 -97) rotate(90)" fill="url(#paint18_linear_540_755)"/>
<rect width="419" height="61.9999" transform="translate(-35 124)" fill="url(#paint19_linear_540_755)"/>
<rect width="387" height="53" transform="matrix(4.37114e-08 1 1 -4.37114e-08 333 -102)" fill="url(#paint20_linear_540_755)"/>
<rect width="386" height="31" transform="matrix(1 0 0 -1 0 26)" fill="url(#paint21_linear_540_755)"/>
<rect width="376" height="172" transform="translate(5 5)" fill="url(#paint22_radial_540_755)"/>
</g>
<defs>
<filter id="filter0_d_540_755" x="175.336" y="37.6275" width="95.6087" height="99.6543" filterUnits="userSpaceOnUse" color-interpolation-filters="sRGB">
<feFlood flood-opacity="0" result="BackgroundImageFix"/>
<feColorMatrix in="SourceAlpha" type="matrix" values="0 0 0 0 0 0 0 0 0 0 0 0 0 0 0 0 0 0 127 0" result="hardAlpha"/>
<feOffset dy="5.22074"/>
<feGaussianBlur stdDeviation="8.87525"/>
<feComposite in2="hardAlpha" operator="out"/>
<feColorMatrix type="matrix" values="0 0 0 0 0.999202 0 0 0 0 0.167314 0 0 0 0 0.167314 0 0 0 0.25 0"/>
<feBlend mode="normal" in2="BackgroundImageFix" result="effect1_dropShadow_540_755"/>
<feBlend mode="normal" in="SourceGraphic" in2="effect1_dropShadow_540_755" result="shape"/>
</filter>
<filter id="filter1_d_540_755" x="252.222" y="-38.5942" width="87.7636" height="106.121" filterUnits="userSpaceOnUse" color-interpolation-filters="sRGB">
<feFlood flood-opacity="0" result="BackgroundImageFix"/>
<feColorMatrix in="SourceAlpha" type="matrix" values="0 0 0 0 0 0 0 0 0 0 0 0 0 0 0 0 0 0 127 0" result="hardAlpha"/>
<feOffset dy="5.22074"/>
<feGaussianBlur stdDeviation="8.87525"/>
<feComposite in2="hardAlpha" operator="out"/>
<feColorMatrix type="matrix" values="0 0 0 0 0.999202 0 0 0 0 0.167314 0 0 0 0 0.167314 0 0 0 0.25 0"/>
<feBlend mode="normal" in2="BackgroundImageFix" result="effect1_dropShadow_540_755"/>
<feBlend mode="normal" in="SourceGraphic" in2="effect1_dropShadow_540_755" result="shape"/>
</filter>
<filter id="filter2_d_540_755" x="118.941" y="117.697" width="146.253" height="36.8067" filterUnits="userSpaceOnUse" color-interpolation-filters="sRGB">
<feFlood flood-opacity="0" result="BackgroundImageFix"/>
<feColorMatrix in="SourceAlpha" type="matrix" values="0 0 0 0 0 0 0 0 0 0 0 0 0 0 0 0 0 0 127 0" result="hardAlpha"/>
<feOffset dy="5.22074"/>
<feGaussianBlur stdDeviation="8.87525"/>
<feComposite in2="hardAlpha" operator="out"/>
<feColorMatrix type="matrix" values="0 0 0 0 0.999202 0 0 0 0 0.167314 0 0 0 0 0.167314 0 0 0 0.25 0"/>
<feBlend mode="normal" in2="BackgroundImageFix" result="effect1_dropShadow_540_755"/>
<feBlend mode="normal" in="SourceGraphic" in2="effect1_dropShadow_540_755" result="shape"/>
</filter>
<filter id="filter3_d_540_755" x="242.188" y="37.9986" width="96.2471" height="113.605" filterUnits="userSpaceOnUse" color-interpolation-filters="sRGB">
<feFlood flood-opacity="0" result="BackgroundImageFix"/>
<feColorMatrix in="SourceAlpha" type="matrix" values="0 0 0 0 0 0 0 0 0 0 0 0 0 0 0 0 0 0 127 0" result="hardAlpha"/>
<feOffset dy="5.22074"/>
<feGaussianBlur stdDeviation="8.87525"/>
<feComposite in2="hardAlpha" operator="out"/>
<feColorMatrix type="matrix" values="0 0 0 0 0.999202 0 0 0 0 0.167314 0 0 0 0 0.167314 0 0 0 0.25 0"/>
<feBlend mode="normal" in2="BackgroundImageFix" result="effect1_dropShadow_540_755"/>
<feBlend mode="normal" in="SourceGraphic" in2="effect1_dropShadow_540_755" result="shape"/>
</filter>
<filter id="filter4_d_540_755" x="306.249" y="38.6724" width="96.2471" height="113.605" filterUnits="userSpaceOnUse" color-interpolation-filters="sRGB">
<feFlood flood-opacity="0" result="BackgroundImageFix"/>
<feColorMatrix in="SourceAlpha" type="matrix" values="0 0 0 0 0 0 0 0 0 0 0 0 0 0 0 0 0 0 127 0" result="hardAlpha"/>
<feOffset dy="5.22074"/>
<feGaussianBlur stdDeviation="8.87525"/>
<feComposite in2="hardAlpha" operator="out"/>
<feColorMatrix type="matrix" values="0 0 0 0 0.999202 0 0 0 0 0.167314 0 0 0 0 0.167314 0 0 0 0.25 0"/>
<feBlend mode="normal" in2="BackgroundImageFix" result="effect1_dropShadow_540_755"/>
<feBlend mode="normal" in="SourceGraphic" in2="effect1_dropShadow_540_755" result="shape"/>
</filter>
<filter id="filter5_d_540_755" x="43.2806" y="41.2114" width="82.3239" height="111.215" filterUnits="userSpaceOnUse" color-interpolation-filters="sRGB">
<feFlood flood-opacity="0" result="BackgroundImageFix"/>
<feColorMatrix in="SourceAlpha" type="matrix" values="0 0 0 0 0 0 0 0 0 0 0 0 0 0 0 0 0 0 127 0" result="hardAlpha"/>
<feOffset dy="5.22074"/>
<feGaussianBlur stdDeviation="8.87525"/>
<feComposite in2="hardAlpha" operator="out"/>
<feColorMatrix type="matrix" values="0 0 0 0 0.999202 0 0 0 0 0.167314 0 0 0 0 0.167314 0 0 0 0.25 0"/>
<feBlend mode="normal" in2="BackgroundImageFix" result="effect1_dropShadow_540_755"/>
<feBlend mode="normal" in="SourceGraphic" in2="effect1_dropShadow_540_755" result="shape"/>
</filter>
<filter id="filter6_d_540_755" x="0.2495" y="42.4702" width="82.3239" height="111.215" filterUnits="userSpaceOnUse" color-interpolation-filters="sRGB">
<feFlood flood-opacity="0" result="BackgroundImageFix"/>
<feColorMatrix in="SourceAlpha" type="matrix" values="0 0 0 0 0 0 0 0 0 0 0 0 0 0 0 0 0 0 127 0" result="hardAlpha"/>
<feOffset dy="5.22074"/>
<feGaussianBlur stdDeviation="8.87525"/>
<feComposite in2="hardAlpha" operator="out"/>
<feColorMatrix type="matrix" values="0 0 0 0 0.999202 0 0 0 0 0.167314 0 0 0 0 0.167314 0 0 0 0.25 0"/>
<feBlend mode="normal" in2="BackgroundImageFix" result="effect1_dropShadow_540_755"/>
<feBlend mode="normal" in="SourceGraphic" in2="effect1_dropShadow_540_755" result="shape"/>
</filter>
<filter id="filter7_i_540_755" x="166.045" y="23.499" width="54.1418" height="56.1104" filterUnits="userSpaceOnUse" color-interpolation-filters="sRGB">
<feFlood flood-opacity="0" result="BackgroundImageFix"/>
<feBlend mode="normal" in="SourceGraphic" in2="BackgroundImageFix" result="shape"/>
<feColorMatrix in="SourceAlpha" type="matrix" values="0 0 0 0 0 0 0 0 0 0 0 0 0 0 0 0 0 0 127 0" result="hardAlpha"/>
<feOffset dy="1.9688"/>
<feGaussianBlur stdDeviation="0.984398"/>
<feComposite in2="hardAlpha" operator="arithmetic" k2="-1" k3="1"/>
<feColorMatrix type="matrix" values="0 0 0 0 0.600756 0 0 0 0 0.600756 0 0 0 0 0.600756 0 0 0 0.25 0"/>
<feBlend mode="normal" in2="shape" result="effect1_innerShadow_540_755"/>
</filter>
<filter id="filter8_i_540_755" x="178.619" y="36.4775" width="28.9921" height="32.1875" filterUnits="userSpaceOnUse" color-interpolation-filters="sRGB">
<feFlood flood-opacity="0" result="BackgroundImageFix"/>
<feBlend mode="normal" in="SourceGraphic" in2="BackgroundImageFix" result="shape"/>
<feColorMatrix in="SourceAlpha" type="matrix" values="0 0 0 0 0 0 0 0 0 0 0 0 0 0 0 0 0 0 127 0" result="hardAlpha"/>
<feOffset dy="4"/>
<feGaussianBlur stdDeviation="2"/>
<feComposite in2="hardAlpha" operator="arithmetic" k2="-1" k3="1"/>
<feColorMatrix type="matrix" values="0 0 0 0 1 0 0 0 0 0.427789 0 0 0 0 0.427789 0 0 0 0.25 0"/>
<feBlend mode="normal" in2="shape" result="effect1_innerShadow_540_755"/>
</filter>
<filter id="filter9_i_540_755" x="232.671" y="100.77" width="54.1418" height="56.1104" filterUnits="userSpaceOnUse" color-interpolation-filters="sRGB">
<feFlood flood-opacity="0" result="BackgroundImageFix"/>
<feBlend mode="normal" in="SourceGraphic" in2="BackgroundImageFix" result="shape"/>
<feColorMatrix in="SourceAlpha" type="matrix" values="0 0 0 0 0 0 0 0 0 0 0 0 0 0 0 0 0 0 127 0" result="hardAlpha"/>
<feOffset dy="1.9688"/>
<feGaussianBlur stdDeviation="0.984398"/>
<feComposite in2="hardAlpha" operator="arithmetic" k2="-1" k3="1"/>
<feColorMatrix type="matrix" values="0 0 0 0 0.600756 0 0 0 0 0.600756 0 0 0 0 0.600756 0 0 0 0.25 0"/>
<feBlend mode="normal" in2="shape" result="effect1_innerShadow_540_755"/>
</filter>
<filter id="filter10_i_540_755" x="294.106" y="22.3311" width="54.1418" height="56.1104" filterUnits="userSpaceOnUse" color-interpolation-filters="sRGB">
<feFlood flood-opacity="0" result="BackgroundImageFix"/>
<feBlend mode="normal" in="SourceGraphic" in2="BackgroundImageFix" result="shape"/>
<feColorMatrix in="SourceAlpha" type="matrix" values="0 0 0 0 0 0 0 0 0 0 0 0 0 0 0 0 0 0 127 0" result="hardAlpha"/>
<feOffset dy="1.9688"/>
<feGaussianBlur stdDeviation="0.984398"/>
<feComposite in2="hardAlpha" operator="arithmetic" k2="-1" k3="1"/>
<feColorMatrix type="matrix" values="0 0 0 0 0.600756 0 0 0 0 0.600756 0 0 0 0 0.600756 0 0 0 0.25 0"/>
<feBlend mode="normal" in2="shape" result="effect1_innerShadow_540_755"/>
</filter>
<filter id="filter11_i_540_755" x="94.7654" y="100.858" width="54.1418" height="56.1104" filterUnits="userSpaceOnUse" color-interpolation-filters="sRGB">
<feFlood flood-opacity="0" result="BackgroundImageFix"/>
<feBlend mode="normal" in="SourceGraphic" in2="BackgroundImageFix" result="shape"/>
<feColorMatrix in="SourceAlpha" type="matrix" values="0 0 0 0 0 0 0 0 0 0 0 0 0 0 0 0 0 0 127 0" result="hardAlpha"/>
<feOffset dy="1.9688"/>
<feGaussianBlur stdDeviation="0.984398"/>
<feComposite in2="hardAlpha" operator="arithmetic" k2="-1" k3="1"/>
<feColorMatrix type="matrix" values="0 0 0 0 0.600756 0 0 0 0 0.600756 0 0 0 0 0.600756 0 0 0 0.25 0"/>
<feBlend mode="normal" in2="shape" result="effect1_innerShadow_540_755"/>
</filter>
<filter id="filter12_d_540_755" x="176.344" y="38.282" width="161.075" height="35.5027" filterUnits="userSpaceOnUse" color-interpolation-filters="sRGB">
<feFlood flood-opacity="0" result="BackgroundImageFix"/>
<feColorMatrix in="SourceAlpha" type="matrix" values="0 0 0 0 0 0 0 0 0 0 0 0 0 0 0 0 0 0 127 0" result="hardAlpha"/>
<feOffset dy="4.92199"/>
<feGaussianBlur stdDeviation="8.36738"/>
<feComposite in2="hardAlpha" operator="out"/>
<feColorMatrix type="matrix" values="0 0 0 0 0.999202 0 0 0 0 0.167314 0 0 0 0 0.167314 0 0 0 0.25 0"/>
<feBlend mode="normal" in2="BackgroundImageFix" result="effect1_dropShadow_540_755"/>
<feBlend mode="normal" in="SourceGraphic" in2="effect1_dropShadow_540_755" result="shape"/>
</filter>
<filter id="filter13_d_540_755" x="44.1252" y="38.3284" width="167.009" height="40.0587" filterUnits="userSpaceOnUse" color-interpolation-filters="sRGB">
<feFlood flood-opacity="0" result="BackgroundImageFix"/>
<feColorMatrix in="SourceAlpha" type="matrix" values="0 0 0 0 0 0 0 0 0 0 0 0 0 0 0 0 0 0 127 0" result="hardAlpha"/>
<feOffset dy="5.30016"/>
<feGaussianBlur stdDeviation="9.01027"/>
<feComposite in2="hardAlpha" operator="out"/>
<feColorMatrix type="matrix" values="0 0 0 0 0.999202 0 0 0 0 0.167314 0 0 0 0 0.167314 0 0 0 0.25 0"/>
<feBlend mode="normal" in2="BackgroundImageFix" result="effect1_dropShadow_540_755"/>
<feBlend mode="normal" in="SourceGraphic" in2="effect1_dropShadow_540_755" result="shape"/>
</filter>
<filter id="filter14_d_540_755" x="110.25" y="40.6773" width="101.566" height="110.157" filterUnits="userSpaceOnUse" color-interpolation-filters="sRGB">
<feFlood flood-opacity="0" result="BackgroundImageFix"/>
<feColorMatrix in="SourceAlpha" type="matrix" values="0 0 0 0 0 0 0 0 0 0 0 0 0 0 0 0 0 0 127 0" result="hardAlpha"/>
<feOffset dy="5.22074"/>
<feGaussianBlur stdDeviation="8.87525"/>
<feComposite in2="hardAlpha" operator="out"/>
<feColorMatrix type="matrix" values="0 0 0 0 0.999202 0 0 0 0 0.167314 0 0 0 0 0.167314 0 0 0 0.25 0"/>
<feBlend mode="normal" in2="BackgroundImageFix" result="effect1_dropShadow_540_755"/>
<feBlend mode="normal" in="SourceGraphic" in2="effect1_dropShadow_540_755" result="shape"/>
</filter>
<filter id="filter15_d_540_755" x="55.6105" y="-56.7866" width="82.5985" height="115.772" filterUnits="userSpaceOnUse" color-interpolation-filters="sRGB">
<feFlood flood-opacity="0" result="BackgroundImageFix"/>
<feColorMatrix in="SourceAlpha" type="matrix" values="0 0 0 0 0 0 0 0 0 0 0 0 0 0 0 0 0 0 127 0" result="hardAlpha"/>
<feOffset dy="5.22074"/>
<feGaussianBlur stdDeviation="8.87525"/>
<feComposite in2="hardAlpha" operator="out"/>
<feColorMatrix type="matrix" values="0 0 0 0 0.999202 0 0 0 0 0.167314 0 0 0 0 0.167314 0 0 0 0.25 0"/>
<feBlend mode="normal" in2="BackgroundImageFix" result="effect1_dropShadow_540_755"/>
<feBlend mode="normal" in="SourceGraphic" in2="effect1_dropShadow_540_755" result="shape"/>
</filter>
<filter id="filter16_i_540_755" x="36.775" y="27.1621" width="54.1418" height="56.1104" filterUnits="userSpaceOnUse" color-interpolation-filters="sRGB">
<feFlood flood-opacity="0" result="BackgroundImageFix"/>
<feBlend mode="normal" in="SourceGraphic" in2="BackgroundImageFix" result="shape"/>
<feColorMatrix in="SourceAlpha" type="matrix" values="0 0 0 0 0 0 0 0 0 0 0 0 0 0 0 0 0 0 127 0" result="hardAlpha"/>
<feOffset dy="1.9688"/>
<feGaussianBlur stdDeviation="0.984398"/>
<feComposite in2="hardAlpha" operator="arithmetic" k2="-1" k3="1"/>
<feColorMatrix type="matrix" values="0 0 0 0 0.600756 0 0 0 0 0.600756 0 0 0 0 0.600756 0 0 0 0.25 0"/>
<feBlend mode="normal" in2="shape" result="effect1_innerShadow_540_755"/>
</filter>
<linearGradient id="paint0_linear_540_755" x1="223.256" y1="98.6441" x2="-36.8574" y2="41.4178" gradientUnits="userSpaceOnUse">
<stop stop-color="#2A0B0B"/>
<stop offset="1" stop-color="#101010"/>
</linearGradient>
<radialGradient id="paint1_radial_540_755" cx="0" cy="0" r="1" gradientUnits="userSpaceOnUse" gradientTransform="translate(225.991 86.2381) rotate(-133.078) scale(43.3049 3200)">
<stop stop-color="#F83A40"/>
<stop offset="1" stop-color="#FF2128" stop-opacity="0"/>
</radialGradient>
<radialGradient id="paint2_radial_540_755" cx="0" cy="0" r="1" gradientUnits="userSpaceOnUse" gradientTransform="translate(298.458 13.5603) rotate(-126.247) scale(43.3049 3200)">
<stop stop-color="#F83A40"/>
<stop offset="1" stop-color="#FF2128" stop-opacity="0"/>
</radialGradient>
<radialGradient id="paint3_radial_540_755" cx="0" cy="0" r="1" gradientUnits="userSpaceOnUse" gradientTransform="translate(198.298 131.532) rotate(-180) scale(55.3761 3200)">
<stop stop-color="#F83A40"/>
<stop offset="1" stop-color="#FF2128" stop-opacity="0"/>
</radialGradient>
<radialGradient id="paint4_radial_540_755" cx="0" cy="0" r="1" gradientUnits="userSpaceOnUse" gradientTransform="translate(294.187 85.6308) rotate(127.683) scale(48.8417 3200)">
<stop stop-color="#F83A40"/>
<stop offset="1" stop-color="#FF2128" stop-opacity="0"/>
</radialGradient>
<radialGradient id="paint5_radial_540_755" cx="0" cy="0" r="1" gradientUnits="userSpaceOnUse" gradientTransform="translate(54.3363) rotate(-180) scale(48.8417 3200)">
<stop stop-color="#F83A40"/>
<stop offset="1" stop-color="#FF2128" stop-opacity="0"/>
</radialGradient>
<radialGradient id="paint6_radial_540_755" cx="0" cy="0" r="1" gradientUnits="userSpaceOnUse" gradientTransform="translate(82.4288 87.0383) rotate(58.6519) scale(43.9302 3200)">
<stop stop-color="#F83A40"/>
<stop offset="1" stop-color="#FF2128" stop-opacity="0"/>
</radialGradient>
<radialGradient id="paint7_radial_540_755" cx="0" cy="0" r="1" gradientUnits="userSpaceOnUse" gradientTransform="translate(48.8723) rotate(-180) scale(43.9302 3200)">
<stop stop-color="#F83A40"/>
<stop offset="1" stop-color="#FF2128" stop-opacity="0"/>
</radialGradient>
<linearGradient id="paint8_linear_540_755" x1="195.823" y1="77.6409" x2="195.084" y2="-0.126529" gradientUnits="userSpaceOnUse">
<stop stop-color="#A6A6A6"/>
<stop offset="1" stop-color="#545454" stop-opacity="0"/>
</linearGradient>
<linearGradient id="paint9_linear_540_755" x1="262.449" y1="154.911" x2="261.711" y2="77.144" gradientUnits="userSpaceOnUse">
<stop stop-color="#A6A6A6"/>
<stop offset="1" stop-color="#545454" stop-opacity="0"/>
</linearGradient>
<linearGradient id="paint10_linear_540_755" x1="323.884" y1="76.4729" x2="323.146" y2="-1.2945" gradientUnits="userSpaceOnUse">
<stop stop-color="#A6A6A6"/>
<stop offset="1" stop-color="#545454" stop-opacity="0"/>
</linearGradient>
<linearGradient id="paint11_linear_540_755" x1="124.543" y1="155" x2="123.805" y2="77.2328" gradientUnits="userSpaceOnUse">
<stop stop-color="#A6A6A6"/>
<stop offset="1" stop-color="#545454" stop-opacity="0"/>
</linearGradient>
<radialGradient id="paint12_radial_540_755" cx="0" cy="0" r="1" gradientUnits="userSpaceOnUse" gradientTransform="translate(264.063 51.6816) rotate(179.64) scale(63.8003 3200)">
<stop stop-color="#F83A40"/>
<stop offset="1" stop-color="#FF2128" stop-opacity="0"/>
</radialGradient>
<radialGradient id="paint13_radial_540_755" cx="0" cy="0" r="1" gradientUnits="userSpaceOnUse" gradientTransform="translate(120.251 52.5465) rotate(-1.17794) scale(65.484 3200)">
<stop stop-color="#F83A40"/>
<stop offset="1" stop-color="#FF2128" stop-opacity="0"/>
</radialGradient>
<radialGradient id="paint14_radial_540_755" cx="0" cy="0" r="1" gradientUnits="userSpaceOnUse" gradientTransform="translate(156.882 94.2544) rotate(-48.5873) scale(49.1977 3200)">
<stop stop-color="#F83A40"/>
<stop offset="1" stop-color="#FF2128" stop-opacity="0"/>
</radialGradient>
<radialGradient id="paint15_radial_540_755" cx="0" cy="0" r="1" gradientUnits="userSpaceOnUse" gradientTransform="translate(93.7589 0.030404) rotate(-60) scale(45.9672 3200)">
<stop stop-color="#F83A40"/>
<stop offset="1" stop-color="#FF2128" stop-opacity="0"/>
</radialGradient>
<linearGradient id="paint16_linear_540_755" x1="66.5531" y1="81.304" x2="65.8148" y2="3.53656" gradientUnits="userSpaceOnUse">
<stop stop-color="#A6A6A6"/>
<stop offset="1" stop-color="#545454" stop-opacity="0"/>
</linearGradient>
<linearGradient id="paint17_linear_540_755" x1="208.96" y1="46" x2="208.96" y2="7" gradientUnits="userSpaceOnUse">
<stop/>
<stop offset="1" stop-opacity="0"/>
</linearGradient>
<linearGradient id="paint18_linear_540_755" x1="149.412" y1="61" x2="149.412" y2="12" gradientUnits="userSpaceOnUse">
<stop/>
<stop offset="1" stop-opacity="0"/>
</linearGradient>
<linearGradient id="paint19_linear_540_755" x1="226.824" y1="61.9999" x2="224.839" y2="8.54822" gradientUnits="userSpaceOnUse">
<stop/>
<stop offset="1" stop-opacity="0"/>
</linearGradient>
<linearGradient id="paint20_linear_540_755" x1="209.501" y1="53" x2="209.323" y2="4.26835" gradientUnits="userSpaceOnUse">
<stop/>
<stop offset="1" stop-opacity="0"/>
</linearGradient>
<linearGradient id="paint21_linear_540_755" x1="208.96" y1="31" x2="208.96" y2="3.21698" gradientUnits="userSpaceOnUse">
<stop/>
<stop offset="0.522745"/>
<stop offset="1" stop-opacity="0"/>
</linearGradient>
<radialGradient id="paint22_radial_540_755" cx="0" cy="0" r="1" gradientUnits="userSpaceOnUse" gradientTransform="translate(188 80.5) rotate(90) scale(87 276.713)">
<stop offset="0.223953" stop-opacity="0"/>
<stop offset="1"/>
</radialGradient>
<clipPath id="clip0_540_755">
<rect width="385" height="180" fill="white"/>
</clipPath>
</defs>
</svg>
