<svg width="385" height="180" viewBox="0 0 385 180" fill="none" xmlns="http://www.w3.org/2000/svg">
<g clip-path="url(#clip0_540_882)">
<rect width="385" height="180" fill="url(#paint0_linear_540_882)"/>
<rect width="386" height="46" transform="translate(0 134)" fill="url(#paint1_linear_540_882)"/>
<rect width="276" height="61" transform="translate(56 -97) rotate(90)" fill="url(#paint2_linear_540_882)"/>
<g clip-path="url(#clip1_540_882)">
<path d="M53.7628 72.6485L53.5 72.4096L53.2372 72.6485L44.9191 80.2104L42.3434 77.6347L53.5 67.2218L64.6566 77.6347L62.0809 80.2104L53.7628 72.6485Z" fill="url(#paint3_radial_540_882)" stroke="url(#paint4_linear_540_882)" stroke-width="0.78125"/>
</g>
<g opacity="0.8" clip-path="url(#clip2_540_882)">
<path d="M53.7628 83.586L53.5 83.3471L53.2372 83.586L44.9191 91.1479L42.3434 88.5722L53.5 78.1593L64.6566 88.5722L62.0809 91.1479L53.7628 83.586Z" fill="url(#paint5_radial_540_882)" stroke="url(#paint6_linear_540_882)" stroke-width="0.78125"/>
</g>
<g opacity="0.7" clip-path="url(#clip3_540_882)">
<path d="M53.7628 95.3047L53.5 95.0658L53.2372 95.3047L44.9191 102.867L42.3434 100.291L53.5 89.8781L64.6566 100.291L62.0809 102.867L53.7628 95.3047Z" fill="url(#paint7_radial_540_882)" stroke="url(#paint8_linear_540_882)" stroke-width="0.78125"/>
</g>
<g opacity="0.2" clip-path="url(#clip4_540_882)">
<path d="M53.7628 106.648L53.5 106.41L53.2372 106.648L44.9191 114.21L42.3434 111.635L53.5 101.222L64.6566 111.635L62.0809 114.21L53.7628 106.648Z" fill="url(#paint9_radial_540_882)" stroke="url(#paint10_linear_540_882)" stroke-width="0.78125"/>
</g>
<rect width="419" height="61.9999" transform="translate(-35 124)" fill="url(#paint11_linear_540_882)"/>
<g clip-path="url(#clip5_540_882)">
<rect width="387" height="53" transform="matrix(4.37114e-08 1 1 -4.37114e-08 333 -102)" fill="url(#paint12_linear_540_882)"/>
<path d="M376 46H363C359.686 46 357 48.6863 357 52V147.311C357 151.054 360.39 153.884 364.073 153.214L379 150.5" stroke="url(#paint13_linear_540_882)"/>
</g>
<path d="M11 133.5H24C27.3137 133.5 30 130.814 30 127.5V32.1893C30 28.4459 26.6097 25.6164 22.9267 26.2861L8 29" stroke="url(#paint14_linear_540_882)"/>
<rect width="386" height="31" transform="matrix(1 0 0 -1 0 26)" fill="url(#paint15_linear_540_882)"/>
<rect width="376" height="172" transform="translate(5 5)" fill="url(#paint16_radial_540_882)"/>
<rect x="87.2899" y="113.471" width="214.057" height="36.7763" rx="7.07237" fill="#1B1B1B" fill-opacity="0.43"/>
<rect x="87.2899" y="113.471" width="214.057" height="36.7763" rx="7.07237" stroke="url(#paint17_linear_540_882)" stroke-width="0.942982"/>
<path d="M140.794 135.532L136.234 132.508V131.524L140.794 128.5V129.784L137.398 131.992V132.04L140.794 134.248V135.532ZM145.158 136V133.276L142.578 128.152H144.054L145.05 130.264C145.186 130.56 145.318 130.856 145.446 131.152C145.574 131.448 145.71 131.756 145.854 132.076H145.902C146.038 131.756 146.174 131.448 146.31 131.152C146.454 130.856 146.594 130.556 146.73 130.252L147.69 128.152H149.13L146.55 133.276V136H145.158ZM153.289 136.144C152.681 136.144 152.145 135.984 151.681 135.664C151.217 135.344 150.853 134.88 150.589 134.272C150.333 133.664 150.205 132.92 150.205 132.04C150.205 131.184 150.333 130.456 150.589 129.856C150.853 129.248 151.217 128.788 151.681 128.476C152.145 128.164 152.681 128.008 153.289 128.008C153.897 128.008 154.433 128.164 154.897 128.476C155.361 128.788 155.721 129.248 155.977 129.856C156.241 130.456 156.373 131.184 156.373 132.04C156.373 132.92 156.241 133.664 155.977 134.272C155.721 134.88 155.361 135.344 154.897 135.664C154.433 135.984 153.897 136.144 153.289 136.144ZM153.289 134.932C153.625 134.932 153.917 134.82 154.165 134.596C154.413 134.372 154.605 134.044 154.741 133.612C154.877 133.18 154.945 132.656 154.945 132.04C154.945 131.44 154.877 130.932 154.741 130.516C154.605 130.092 154.413 129.772 154.165 129.556C153.917 129.332 153.625 129.22 153.289 129.22C152.953 129.22 152.661 129.332 152.413 129.556C152.165 129.772 151.973 130.092 151.837 130.516C151.701 130.932 151.633 131.44 151.633 132.04C151.633 132.656 151.701 133.18 151.837 133.612C151.973 134.044 152.165 134.372 152.413 134.596C152.661 134.82 152.953 134.932 153.289 134.932ZM160.736 136.144C160.304 136.144 159.916 136.08 159.572 135.952C159.236 135.824 158.948 135.632 158.708 135.376C158.476 135.12 158.296 134.796 158.168 134.404C158.048 134.004 157.988 133.536 157.988 133V128.152H159.38V133.108C159.38 133.532 159.432 133.88 159.536 134.152C159.648 134.416 159.808 134.612 160.016 134.74C160.224 134.868 160.464 134.932 160.736 134.932C161.024 134.932 161.268 134.868 161.468 134.74C161.676 134.612 161.836 134.416 161.948 134.152C162.068 133.88 162.128 133.532 162.128 133.108V128.152H163.46V133C163.46 133.536 163.4 134.004 163.28 134.404C163.16 134.796 162.98 135.12 162.74 135.376C162.508 135.632 162.224 135.824 161.888 135.952C161.552 136.08 161.168 136.144 160.736 136.144ZM165.568 136V128.152H168.184C168.728 128.152 169.216 128.224 169.648 128.368C170.088 128.512 170.436 128.756 170.692 129.1C170.948 129.436 171.076 129.896 171.076 130.48C171.076 131.04 170.948 131.5 170.692 131.86C170.436 132.22 170.088 132.488 169.648 132.664C169.216 132.84 168.728 132.928 168.184 132.928H166.96V136H165.568ZM166.96 131.824H168.04C168.584 131.824 168.996 131.712 169.276 131.488C169.564 131.264 169.708 130.928 169.708 130.48C169.708 130.032 169.564 129.72 169.276 129.544C168.996 129.36 168.584 129.268 168.04 129.268H166.96V131.824ZM167.932 132.556L168.94 131.728L171.388 136H169.816L167.932 132.556ZM172.715 137.824V136.744H178.475V137.824H172.715ZM179.67 136L182.214 128.152H183.846L186.39 136H184.914L183.726 131.824C183.614 131.408 183.494 130.98 183.366 130.54C183.246 130.1 183.134 129.664 183.03 129.232H182.982C182.87 129.664 182.754 130.1 182.634 130.54C182.522 130.98 182.406 131.408 182.286 131.824L181.086 136H179.67ZM181.17 133.876V132.784H184.854V133.876H181.17ZM187.922 136V128.152H190.502C191.078 128.152 191.59 128.228 192.038 128.38C192.486 128.532 192.838 128.784 193.094 129.136C193.358 129.488 193.49 129.968 193.49 130.576C193.49 131.152 193.358 131.628 193.094 132.004C192.838 132.38 192.482 132.66 192.026 132.844C191.578 133.028 191.07 133.12 190.502 133.12H189.314V136H187.922ZM189.314 132.004H190.394C190.978 132.004 191.41 131.884 191.69 131.644C191.978 131.404 192.122 131.048 192.122 130.576C192.122 130.08 191.974 129.74 191.678 129.556C191.39 129.364 190.962 129.268 190.394 129.268H189.314V132.004ZM195.357 136V128.152H197.937C198.513 128.152 199.025 128.228 199.473 128.38C199.921 128.532 200.273 128.784 200.529 129.136C200.793 129.488 200.925 129.968 200.925 130.576C200.925 131.152 200.793 131.628 200.529 132.004C200.273 132.38 199.917 132.66 199.461 132.844C199.013 133.028 198.505 133.12 197.937 133.12H196.749V136H195.357ZM196.749 132.004H197.829C198.413 132.004 198.845 131.884 199.125 131.644C199.413 131.404 199.557 131.048 199.557 130.576C199.557 130.08 199.409 129.74 199.113 129.556C198.825 129.364 198.397 129.268 197.829 129.268H196.749V132.004ZM202.456 137.824V136.744H208.216V137.824H202.456ZM213.419 136.144C212.931 136.144 212.471 136.056 212.039 135.88C211.615 135.704 211.239 135.444 210.911 135.1C210.591 134.756 210.339 134.332 210.155 133.828C209.979 133.324 209.891 132.748 209.891 132.1C209.891 131.244 210.047 130.512 210.359 129.904C210.679 129.288 211.111 128.82 211.655 128.5C212.207 128.172 212.827 128.008 213.515 128.008C214.003 128.008 214.439 128.108 214.823 128.308C215.207 128.508 215.519 128.736 215.759 128.992L214.991 129.856C214.799 129.656 214.583 129.5 214.343 129.388C214.103 129.276 213.827 129.22 213.515 129.22C213.083 129.22 212.699 129.336 212.363 129.568C212.035 129.792 211.779 130.116 211.595 130.54C211.411 130.964 211.319 131.472 211.319 132.064C211.319 132.656 211.411 133.168 211.595 133.6C211.779 134.032 212.039 134.364 212.375 134.596C212.711 134.82 213.103 134.932 213.551 134.932C213.879 134.932 214.171 134.864 214.427 134.728C214.683 134.584 214.923 134.392 215.147 134.152L215.915 135.004C215.603 135.372 215.239 135.656 214.823 135.856C214.407 136.048 213.939 136.144 213.419 136.144ZM217.459 136V128.152H218.863V131.308H221.551V128.152H222.955V136H221.551V132.52H218.863V136H217.459ZM224.282 136L226.826 128.152H228.458L231.002 136H229.526L228.338 131.824C228.226 131.408 228.106 130.98 227.978 130.54C227.858 130.1 227.746 129.664 227.642 129.232H227.594C227.482 129.664 227.366 130.1 227.246 130.54C227.134 130.98 227.018 131.408 226.898 131.824L225.698 136H224.282ZM225.782 133.876V132.784H229.466V133.876H225.782ZM232.485 136V134.824H234.381V129.328H232.485V128.152H237.669V129.328H235.773V134.824H237.669V136H232.485ZM239.801 136V128.152H241.265L243.341 132.556L244.049 134.236H244.085C244.061 133.836 244.021 133.4 243.965 132.928C243.917 132.456 243.893 132 243.893 131.56V128.152H245.225V136H243.761L241.685 131.584L240.977 129.916H240.941C240.965 130.332 241.001 130.772 241.049 131.236C241.105 131.692 241.133 132.136 241.133 132.568V136H239.801ZM247.572 135.532V134.248L250.968 132.04V131.992L247.572 129.784V128.5L252.132 131.524V132.508L247.572 135.532Z" fill="white"/>
<g filter="url(#filter0_d_540_882)">
<g filter="url(#filter1_i_540_882)">
<circle cx="82.5" cy="36.5" r="25.5" fill="#1B1B1B" fill-opacity="0.07"/>
</g>
<circle cx="82.5" cy="36.5" r="25.2682" stroke="url(#paint18_linear_540_882)" stroke-width="0.463636"/>
<circle cx="82" cy="37" r="10.5" fill="url(#paint19_radial_540_882)" stroke="url(#paint20_linear_540_882)"/>
</g>
<g filter="url(#filter2_d_540_882)">
<g filter="url(#filter3_i_540_882)">
<circle cx="195.5" cy="36.5" r="25.5" fill="#1B1B1B" fill-opacity="0.07"/>
</g>
<circle cx="195.5" cy="36.5" r="25.2682" stroke="url(#paint21_linear_540_882)" stroke-width="0.463636"/>
<circle cx="195" cy="37" r="10.5" fill="url(#paint22_radial_540_882)" stroke="url(#paint23_linear_540_882)"/>
</g>
<g filter="url(#filter4_d_540_882)">
<g filter="url(#filter5_i_540_882)">
<circle cx="308.5" cy="36.5" r="25.5" fill="#1B1B1B" fill-opacity="0.07"/>
</g>
<circle cx="308.5" cy="36.5" r="25.2682" stroke="url(#paint24_linear_540_882)" stroke-width="0.463636"/>
<circle cx="308" cy="37" r="10.5" fill="url(#paint25_radial_540_882)" stroke="url(#paint26_linear_540_882)"/>
</g>
<line x1="195.5" y1="113" x2="195.5" y2="62" stroke="url(#paint27_linear_540_882)"/>
<path d="M195.5 89H93C87.3431 89 84.5147 89 82.7574 87.2426C81 85.4853 81 82.6569 81 77V63" stroke="url(#paint28_linear_540_882)"/>
<path d="M195 89H297.5C303.157 89 305.985 89 307.743 87.2426C309.5 85.4853 309.5 82.6569 309.5 77V63" stroke="url(#paint29_linear_540_882)"/>
<g clip-path="url(#clip6_540_882)">
<path d="M330.721 102.429L330.5 102.228L330.279 102.429L323.292 108.781L321.128 106.618L330.5 97.8707L339.872 106.618L337.708 108.781L330.721 102.429Z" fill="url(#paint30_radial_540_882)" stroke="url(#paint31_linear_540_882)" stroke-width="0.65625"/>
</g>
<g opacity="0.8" clip-path="url(#clip7_540_882)">
<path d="M330.721 111.617L330.5 111.416L330.279 111.617L323.292 117.969L321.128 115.805L330.5 107.058L339.872 115.805L337.708 117.969L330.721 111.617Z" fill="url(#paint32_radial_540_882)" stroke="url(#paint33_linear_540_882)" stroke-width="0.65625"/>
</g>
<g opacity="0.3" clip-path="url(#clip8_540_882)">
<path d="M330.721 121.46L330.5 121.26L330.279 121.46L323.292 127.812L321.128 125.649L330.5 116.902L339.872 125.649L337.708 127.812L330.721 121.46Z" fill="url(#paint34_radial_540_882)" stroke="url(#paint35_linear_540_882)" stroke-width="0.65625"/>
</g>
</g>
<defs>
<filter id="filter0_d_540_882" x="10.6364" y="-35.3636" width="143.727" height="143.727" filterUnits="userSpaceOnUse" color-interpolation-filters="sRGB">
<feFlood flood-opacity="0" result="BackgroundImageFix"/>
<feColorMatrix in="SourceAlpha" type="matrix" values="0 0 0 0 0 0 0 0 0 0 0 0 0 0 0 0 0 0 127 0" result="hardAlpha"/>
<feOffset/>
<feGaussianBlur stdDeviation="23.1818"/>
<feComposite in2="hardAlpha" operator="out"/>
<feColorMatrix type="matrix" values="0 0 0 0 0.920815 0 0 0 0 0.407802 0 0 0 0 0.407802 0 0 0 0.18 0"/>
<feBlend mode="normal" in2="BackgroundImageFix" result="effect1_dropShadow_540_882"/>
<feBlend mode="normal" in="SourceGraphic" in2="effect1_dropShadow_540_882" result="shape"/>
</filter>
<filter id="filter1_i_540_882" x="57" y="11" width="51" height="52.8545" filterUnits="userSpaceOnUse" color-interpolation-filters="sRGB">
<feFlood flood-opacity="0" result="BackgroundImageFix"/>
<feBlend mode="normal" in="SourceGraphic" in2="BackgroundImageFix" result="shape"/>
<feColorMatrix in="SourceAlpha" type="matrix" values="0 0 0 0 0 0 0 0 0 0 0 0 0 0 0 0 0 0 127 0" result="hardAlpha"/>
<feOffset dy="1.85455"/>
<feGaussianBlur stdDeviation="0.927273"/>
<feComposite in2="hardAlpha" operator="arithmetic" k2="-1" k3="1"/>
<feColorMatrix type="matrix" values="0 0 0 0 0.600756 0 0 0 0 0.600756 0 0 0 0 0.600756 0 0 0 0.25 0"/>
<feBlend mode="normal" in2="shape" result="effect1_innerShadow_540_882"/>
</filter>
<filter id="filter2_d_540_882" x="123.636" y="-35.3636" width="143.727" height="143.727" filterUnits="userSpaceOnUse" color-interpolation-filters="sRGB">
<feFlood flood-opacity="0" result="BackgroundImageFix"/>
<feColorMatrix in="SourceAlpha" type="matrix" values="0 0 0 0 0 0 0 0 0 0 0 0 0 0 0 0 0 0 127 0" result="hardAlpha"/>
<feOffset/>
<feGaussianBlur stdDeviation="23.1818"/>
<feComposite in2="hardAlpha" operator="out"/>
<feColorMatrix type="matrix" values="0 0 0 0 0.920815 0 0 0 0 0.407802 0 0 0 0 0.407802 0 0 0 0.18 0"/>
<feBlend mode="normal" in2="BackgroundImageFix" result="effect1_dropShadow_540_882"/>
<feBlend mode="normal" in="SourceGraphic" in2="effect1_dropShadow_540_882" result="shape"/>
</filter>
<filter id="filter3_i_540_882" x="170" y="11" width="51" height="52.8545" filterUnits="userSpaceOnUse" color-interpolation-filters="sRGB">
<feFlood flood-opacity="0" result="BackgroundImageFix"/>
<feBlend mode="normal" in="SourceGraphic" in2="BackgroundImageFix" result="shape"/>
<feColorMatrix in="SourceAlpha" type="matrix" values="0 0 0 0 0 0 0 0 0 0 0 0 0 0 0 0 0 0 127 0" result="hardAlpha"/>
<feOffset dy="1.85455"/>
<feGaussianBlur stdDeviation="0.927273"/>
<feComposite in2="hardAlpha" operator="arithmetic" k2="-1" k3="1"/>
<feColorMatrix type="matrix" values="0 0 0 0 0.600756 0 0 0 0 0.600756 0 0 0 0 0.600756 0 0 0 0.25 0"/>
<feBlend mode="normal" in2="shape" result="effect1_innerShadow_540_882"/>
</filter>
<filter id="filter4_d_540_882" x="236.636" y="-35.3636" width="143.727" height="143.727" filterUnits="userSpaceOnUse" color-interpolation-filters="sRGB">
<feFlood flood-opacity="0" result="BackgroundImageFix"/>
<feColorMatrix in="SourceAlpha" type="matrix" values="0 0 0 0 0 0 0 0 0 0 0 0 0 0 0 0 0 0 127 0" result="hardAlpha"/>
<feOffset/>
<feGaussianBlur stdDeviation="23.1818"/>
<feComposite in2="hardAlpha" operator="out"/>
<feColorMatrix type="matrix" values="0 0 0 0 0.920815 0 0 0 0 0.407802 0 0 0 0 0.407802 0 0 0 0.18 0"/>
<feBlend mode="normal" in2="BackgroundImageFix" result="effect1_dropShadow_540_882"/>
<feBlend mode="normal" in="SourceGraphic" in2="effect1_dropShadow_540_882" result="shape"/>
</filter>
<filter id="filter5_i_540_882" x="283" y="11" width="51" height="52.8545" filterUnits="userSpaceOnUse" color-interpolation-filters="sRGB">
<feFlood flood-opacity="0" result="BackgroundImageFix"/>
<feBlend mode="normal" in="SourceGraphic" in2="BackgroundImageFix" result="shape"/>
<feColorMatrix in="SourceAlpha" type="matrix" values="0 0 0 0 0 0 0 0 0 0 0 0 0 0 0 0 0 0 127 0" result="hardAlpha"/>
<feOffset dy="1.85455"/>
<feGaussianBlur stdDeviation="0.927273"/>
<feComposite in2="hardAlpha" operator="arithmetic" k2="-1" k3="1"/>
<feColorMatrix type="matrix" values="0 0 0 0 0.600756 0 0 0 0 0.600756 0 0 0 0 0.600756 0 0 0 0.25 0"/>
<feBlend mode="normal" in2="shape" result="effect1_innerShadow_540_882"/>
</filter>
<linearGradient id="paint0_linear_540_882" x1="223.256" y1="98.6441" x2="-36.8574" y2="41.4178" gradientUnits="userSpaceOnUse">
<stop stop-color="#2A0B0B"/>
<stop offset="1" stop-color="#101010"/>
</linearGradient>
<linearGradient id="paint1_linear_540_882" x1="208.96" y1="46" x2="208.96" y2="7" gradientUnits="userSpaceOnUse">
<stop/>
<stop offset="1" stop-opacity="0"/>
</linearGradient>
<linearGradient id="paint2_linear_540_882" x1="149.412" y1="61" x2="149.412" y2="12" gradientUnits="userSpaceOnUse">
<stop/>
<stop offset="1" stop-opacity="0"/>
</linearGradient>
<radialGradient id="paint3_radial_540_882" cx="0" cy="0" r="1" gradientUnits="userSpaceOnUse" gradientTransform="translate(53.5 73.7187) rotate(-90) scale(7.03125 11.7187)">
<stop stop-color="#FF4E4E" stop-opacity="0.42"/>
<stop offset="1" stop-color="#FA8484" stop-opacity="0.18"/>
</radialGradient>
<linearGradient id="paint4_linear_540_882" x1="59.892" y1="80.1108" x2="57.4741" y2="66.0062" gradientUnits="userSpaceOnUse">
<stop stop-color="#FF6060"/>
<stop offset="1" stop-color="#952C2C"/>
</linearGradient>
<radialGradient id="paint5_radial_540_882" cx="0" cy="0" r="1" gradientUnits="userSpaceOnUse" gradientTransform="translate(53.5 84.6562) rotate(-90) scale(7.03125 11.7187)">
<stop stop-color="#FF4E4E" stop-opacity="0.42"/>
<stop offset="1" stop-color="#FA8484" stop-opacity="0.18"/>
</radialGradient>
<linearGradient id="paint6_linear_540_882" x1="59.892" y1="91.0483" x2="57.4741" y2="76.9437" gradientUnits="userSpaceOnUse">
<stop stop-color="#FF6060"/>
<stop offset="1" stop-color="#952C2C"/>
</linearGradient>
<radialGradient id="paint7_radial_540_882" cx="0" cy="0" r="1" gradientUnits="userSpaceOnUse" gradientTransform="translate(53.5 96.375) rotate(-90) scale(7.03125 11.7187)">
<stop stop-color="#FF4E4E" stop-opacity="0.42"/>
<stop offset="1" stop-color="#FA8484" stop-opacity="0.18"/>
</radialGradient>
<linearGradient id="paint8_linear_540_882" x1="59.892" y1="102.767" x2="57.4741" y2="88.6625" gradientUnits="userSpaceOnUse">
<stop stop-color="#FF6060"/>
<stop offset="1" stop-color="#952C2C"/>
</linearGradient>
<radialGradient id="paint9_radial_540_882" cx="0" cy="0" r="1" gradientUnits="userSpaceOnUse" gradientTransform="translate(53.5 107.719) rotate(-90) scale(7.03125 11.7187)">
<stop stop-color="#FF4E4E" stop-opacity="0.42"/>
<stop offset="1" stop-color="#FA8484" stop-opacity="0.18"/>
</radialGradient>
<linearGradient id="paint10_linear_540_882" x1="59.892" y1="114.111" x2="57.4741" y2="100.006" gradientUnits="userSpaceOnUse">
<stop stop-color="#FF6060"/>
<stop offset="1" stop-color="#952C2C"/>
</linearGradient>
<linearGradient id="paint11_linear_540_882" x1="226.824" y1="61.9999" x2="224.839" y2="8.54822" gradientUnits="userSpaceOnUse">
<stop/>
<stop offset="1" stop-opacity="0"/>
</linearGradient>
<linearGradient id="paint12_linear_540_882" x1="209.501" y1="53" x2="209.323" y2="4.26835" gradientUnits="userSpaceOnUse">
<stop/>
<stop offset="1" stop-opacity="0"/>
</linearGradient>
<linearGradient id="paint13_linear_540_882" x1="357" y1="46" x2="427.861" y2="46.0649" gradientUnits="userSpaceOnUse">
<stop stop-color="#A76161"/>
<stop offset="0.224996" stop-color="#964C4C"/>
<stop offset="1" stop-color="#8A2828" stop-opacity="0"/>
</linearGradient>
<linearGradient id="paint14_linear_540_882" x1="30" y1="133.5" x2="-40.8613" y2="133.435" gradientUnits="userSpaceOnUse">
<stop stop-color="#A76161"/>
<stop offset="0.224996" stop-color="#964C4C"/>
<stop offset="1" stop-color="#8A2828" stop-opacity="0"/>
</linearGradient>
<linearGradient id="paint15_linear_540_882" x1="208.96" y1="31" x2="208.96" y2="3.21698" gradientUnits="userSpaceOnUse">
<stop/>
<stop offset="0.522745"/>
<stop offset="1" stop-opacity="0"/>
</linearGradient>
<radialGradient id="paint16_radial_540_882" cx="0" cy="0" r="1" gradientUnits="userSpaceOnUse" gradientTransform="translate(188 80.5) rotate(90) scale(87 276.713)">
<stop offset="0.223953" stop-opacity="0"/>
<stop offset="1"/>
</radialGradient>
<linearGradient id="paint17_linear_540_882" x1="58.0145" y1="127.145" x2="298.702" y2="120.412" gradientUnits="userSpaceOnUse">
<stop stop-color="#4C2E2E"/>
<stop offset="0.556497" stop-color="#AF5454" stop-opacity="0.38"/>
<stop offset="1" stop-color="#371212"/>
</linearGradient>
<linearGradient id="paint18_linear_540_882" x1="85.05" y1="62" x2="84.3545" y2="-11.2545" gradientUnits="userSpaceOnUse">
<stop stop-color="#FD4C4C"/>
<stop offset="1" stop-color="#545454" stop-opacity="0"/>
<stop offset="1" stop-color="#FFB4B4" stop-opacity="0"/>
</linearGradient>
<radialGradient id="paint19_radial_540_882" cx="0" cy="0" r="1" gradientUnits="userSpaceOnUse" gradientTransform="translate(82 37) rotate(90) scale(11)">
<stop offset="0.469173" stop-color="#FF5D5D" stop-opacity="0"/>
<stop offset="1" stop-color="#FA8484" stop-opacity="0.18"/>
</radialGradient>
<linearGradient id="paint20_linear_540_882" x1="76" y1="27" x2="82" y2="48" gradientUnits="userSpaceOnUse">
<stop stop-color="#FF6060"/>
<stop offset="1" stop-color="#952C2C"/>
</linearGradient>
<linearGradient id="paint21_linear_540_882" x1="198.05" y1="62" x2="197.355" y2="-11.2545" gradientUnits="userSpaceOnUse">
<stop stop-color="#FD4C4C"/>
<stop offset="1" stop-color="#545454" stop-opacity="0"/>
<stop offset="1" stop-color="#FFB4B4" stop-opacity="0"/>
</linearGradient>
<radialGradient id="paint22_radial_540_882" cx="0" cy="0" r="1" gradientUnits="userSpaceOnUse" gradientTransform="translate(195 37) rotate(90) scale(11)">
<stop offset="0.469173" stop-color="#FF5D5D" stop-opacity="0"/>
<stop offset="1" stop-color="#FA8484" stop-opacity="0.18"/>
</radialGradient>
<linearGradient id="paint23_linear_540_882" x1="189" y1="27" x2="195" y2="48" gradientUnits="userSpaceOnUse">
<stop stop-color="#FF6060"/>
<stop offset="1" stop-color="#952C2C"/>
</linearGradient>
<linearGradient id="paint24_linear_540_882" x1="311.05" y1="62" x2="310.355" y2="-11.2545" gradientUnits="userSpaceOnUse">
<stop stop-color="#FD4C4C"/>
<stop offset="1" stop-color="#545454" stop-opacity="0"/>
<stop offset="1" stop-color="#FFB4B4" stop-opacity="0"/>
</linearGradient>
<radialGradient id="paint25_radial_540_882" cx="0" cy="0" r="1" gradientUnits="userSpaceOnUse" gradientTransform="translate(308 37) rotate(90) scale(11)">
<stop offset="0.469173" stop-color="#FF5D5D" stop-opacity="0"/>
<stop offset="1" stop-color="#FA8484" stop-opacity="0.18"/>
</radialGradient>
<linearGradient id="paint26_linear_540_882" x1="302" y1="27" x2="308" y2="48" gradientUnits="userSpaceOnUse">
<stop stop-color="#FF6060"/>
<stop offset="1" stop-color="#952C2C"/>
</linearGradient>
<linearGradient id="paint27_linear_540_882" x1="196" y1="84.95" x2="209.864" y2="111.046" gradientUnits="userSpaceOnUse">
<stop stop-color="#A76161"/>
<stop offset="1" stop-color="#8A2828" stop-opacity="0"/>
</linearGradient>
<linearGradient id="paint28_linear_540_882" x1="81" y1="63" x2="253.615" y2="64.6081" gradientUnits="userSpaceOnUse">
<stop stop-color="#A76161"/>
<stop offset="0.224996" stop-color="#964C4C"/>
<stop offset="1" stop-color="#8A2828" stop-opacity="0"/>
</linearGradient>
<linearGradient id="paint29_linear_540_882" x1="309.5" y1="63" x2="136.885" y2="64.6081" gradientUnits="userSpaceOnUse">
<stop stop-color="#A76161"/>
<stop offset="0.224996" stop-color="#964C4C"/>
<stop offset="1" stop-color="#8A2828" stop-opacity="0"/>
</linearGradient>
<radialGradient id="paint30_radial_540_882" cx="0" cy="0" r="1" gradientUnits="userSpaceOnUse" gradientTransform="translate(330.5 103.328) rotate(-90) scale(5.90625 9.84375)">
<stop offset="0.469173" stop-color="#FF8989" stop-opacity="0.17"/>
<stop offset="1" stop-color="#FA8484" stop-opacity="0.18"/>
</radialGradient>
<linearGradient id="paint31_linear_540_882" x1="335.869" y1="108.697" x2="333.838" y2="96.8496" gradientUnits="userSpaceOnUse">
<stop stop-color="#FF6060"/>
<stop offset="1" stop-color="#952C2C"/>
</linearGradient>
<radialGradient id="paint32_radial_540_882" cx="0" cy="0" r="1" gradientUnits="userSpaceOnUse" gradientTransform="translate(330.5 112.516) rotate(-90) scale(5.90625 9.84375)">
<stop offset="0.469173" stop-color="#FF5D5D" stop-opacity="0.27"/>
<stop offset="1" stop-color="#FA8484" stop-opacity="0.18"/>
</radialGradient>
<linearGradient id="paint33_linear_540_882" x1="335.869" y1="117.885" x2="333.838" y2="106.037" gradientUnits="userSpaceOnUse">
<stop stop-color="#FF6060"/>
<stop offset="1" stop-color="#952C2C"/>
</linearGradient>
<radialGradient id="paint34_radial_540_882" cx="0" cy="0" r="1" gradientUnits="userSpaceOnUse" gradientTransform="translate(330.5 122.359) rotate(-90) scale(5.90625 9.84375)">
<stop offset="0.469173" stop-color="#FF5D5D" stop-opacity="0.3"/>
<stop offset="1" stop-color="#FA8484" stop-opacity="0.18"/>
</radialGradient>
<linearGradient id="paint35_linear_540_882" x1="335.869" y1="127.729" x2="333.838" y2="115.881" gradientUnits="userSpaceOnUse">
<stop stop-color="#FF6060"/>
<stop offset="1" stop-color="#952C2C"/>
</linearGradient>
<clipPath id="clip0_540_882">
<rect width="385" height="180" fill="white"/>
</clipPath>
<clipPath id="clip1_540_882">
<rect width="25" height="25" fill="white" transform="translate(66 87) rotate(-180)"/>
</clipPath>
<clipPath id="clip2_540_882">
<rect width="25" height="25" fill="white" transform="translate(66 97.9375) rotate(-180)"/>
</clipPath>
<clipPath id="clip3_540_882">
<rect width="25" height="25" fill="white" transform="translate(66 109.656) rotate(-180)"/>
</clipPath>
<clipPath id="clip4_540_882">
<rect width="25" height="25" fill="white" transform="translate(66 121) rotate(-180)"/>
</clipPath>
<clipPath id="clip5_540_882">
<rect width="387" height="53" fill="white" transform="matrix(4.37114e-08 1 1 -4.37114e-08 333 -102)"/>
</clipPath>
<clipPath id="clip6_540_882">
<rect width="21" height="21" fill="white" transform="translate(341 114.484) rotate(-180)"/>
</clipPath>
<clipPath id="clip7_540_882">
<rect width="21" height="21" fill="white" transform="translate(341 123.672) rotate(-180)"/>
</clipPath>
<clipPath id="clip8_540_882">
<rect width="21" height="21" fill="white" transform="translate(341 133.516) rotate(-180)"/>
</clipPath>
</defs>
</svg>
