<svg width="385" height="180" viewBox="0 0 385 180" fill="none" xmlns="http://www.w3.org/2000/svg">
<g clipPath="url(#clip0_540_134)">
<rect width="385" height="180" fill="url(#paint0_linear_540_134)"/>
<rect width="520" height="336" fill="url(#paint1_radial_540_134)"/>
<rect width="386" height="46" transform="translate(0 134)" fill="url(#paint2_linear_540_134)"/>
<rect x="6.01672" y="-15.7549" width="16.3596" height="16.3596" rx="1.63596" fill="#251414"/>
<rect x="25.2214" y="-15.7549" width="16.3596" height="16.3596" rx="1.63596" fill="#251414"/>
<rect x="44.4263" y="-15.7549" width="16.3596" height="16.3596" rx="1.63596" fill="#251414"/>
<rect x="63.631" y="-15.7549" width="16.3596" height="16.3596" rx="1.63596" fill="#251414"/>
<rect x="82.8358" y="-15.7549" width="16.3596" height="16.3596" rx="1.63596" fill="#251414"/>
<rect x="102.041" y="-15.7549" width="16.3596" height="16.3596" rx="1.63596" fill="#251414"/>
<rect x="121.245" y="-15.7549" width="16.3596" height="16.3596" rx="1.63596" fill="#251414"/>
<rect x="140.45" y="-15.7549" width="16.3596" height="16.3596" rx="1.63596" fill="#251414"/>
<rect x="159.655" y="-15.7549" width="16.3596" height="16.3596" rx="1.63596" fill="#251414"/>
<rect x="178.86" y="-15.7549" width="16.3596" height="16.3596" rx="1.63596" fill="#251414"/>
<rect x="198.064" y="-15.7549" width="16.3596" height="16.3596" rx="1.63596" fill="#251414"/>
<rect x="217.269" y="-15.7549" width="16.3596" height="16.3596" rx="1.63596" fill="#251414"/>
<rect x="236.474" y="-15.7549" width="16.3596" height="16.3596" rx="1.63596" fill="#251414"/>
<rect x="255.679" y="-15.7549" width="16.3596" height="16.3596" rx="1.63596" fill="#251414"/>
<rect x="274.883" y="-15.7549" width="16.3596" height="16.3596" rx="1.63596" fill="#251414"/>
<rect x="294.088" y="-15.7549" width="16.3596" height="16.3596" rx="1.63596" fill="#251414"/>
<rect x="313.293" y="-15.7549" width="16.3596" height="16.3596" rx="1.63596" fill="#251414"/>
<rect x="6.01672" y="7.71777" width="16.3596" height="16.3596" rx="1.63596" fill="#251414"/>
<rect x="25.2214" y="7.71777" width="16.3596" height="16.3596" rx="1.63596" fill="#251414"/>
<rect x="44.4261" y="7.71777" width="16.3596" height="16.3596" rx="1.63596" fill="#492A2A"/>
<rect x="63.631" y="7.71777" width="16.3596" height="16.3596" rx="1.63596" fill="#251414"/>
<rect x="82.8357" y="7.71777" width="16.3596" height="16.3596" rx="1.63596" fill="#251414"/>
<rect x="102.04" y="7.71777" width="16.3596" height="16.3596" rx="1.63596" fill="#251414"/>
<rect x="121.245" y="7.71777" width="16.3596" height="16.3596" rx="1.63596" fill="#251414"/>
<rect x="140.45" y="7.71777" width="16.3596" height="16.3596" rx="1.63596" fill="#251414"/>
<rect x="159.655" y="7.71777" width="16.3596" height="16.3596" rx="1.63596" fill="#251414"/>
<rect x="178.859" y="7.71777" width="16.3596" height="16.3596" rx="1.63596" fill="#251414"/>
<rect x="198.064" y="7.71777" width="16.3596" height="16.3596" rx="1.63596" fill="#251414"/>
<rect x="217.269" y="7.71777" width="16.3596" height="16.3596" rx="1.63596" fill="#251414"/>
<rect x="236.474" y="7.71777" width="16.3596" height="16.3596" rx="1.63596" fill="#251414"/>
<rect x="255.679" y="7.71777" width="16.3596" height="16.3596" rx="1.63596" fill="#251414"/>
<rect x="274.883" y="7.71777" width="16.3596" height="16.3596" rx="1.63596" fill="#251414"/>
<rect x="294.088" y="7.71777" width="16.3596" height="16.3596" rx="1.63596" fill="#251414"/>
<rect x="313.293" y="7.71777" width="16.3596" height="16.3596" rx="1.63596" fill="#251414"/>
<rect x="6.01672" y="31.1904" width="16.3596" height="16.3596" rx="1.63596" fill="#251414"/>
<rect x="25.2214" y="31.1904" width="16.3596" height="16.3596" rx="1.63596" fill="#251414"/>
<rect x="44.4261" y="31.1904" width="16.3596" height="16.3596" rx="1.63596" fill="#492A2A"/>
<rect x="63.6309" y="31.1904" width="16.3596" height="16.3596" rx="1.63596" fill="#492A2A"/>
<rect x="82.8357" y="31.1904" width="16.3596" height="16.3596" rx="1.63596" fill="#492A2A"/>
<rect x="102.04" y="31.1904" width="16.3596" height="16.3596" rx="1.63596" fill="#251414"/>
<rect x="121.245" y="31.1904" width="16.3596" height="16.3596" rx="1.63596" fill="#251414"/>
<rect x="140.45" y="31.1904" width="16.3596" height="16.3596" rx="1.63596" fill="#251414"/>
<rect x="159.655" y="31.1904" width="16.3596" height="16.3596" rx="1.63596" fill="#251414"/>
<rect x="178.859" y="31.1904" width="16.3596" height="16.3596" rx="1.63596" fill="#251414"/>
<rect x="198.064" y="31.1904" width="16.3596" height="16.3596" rx="1.63596" fill="#251414"/>
<rect x="217.269" y="31.1904" width="16.3596" height="16.3596" rx="1.63596" fill="#251414"/>
<rect x="236.474" y="31.1904" width="16.3596" height="16.3596" rx="1.63596" fill="#251414"/>
<rect x="255.679" y="31.1904" width="16.3596" height="16.3596" rx="1.63596" fill="#251414"/>
<rect x="274.883" y="31.1904" width="16.3596" height="16.3596" rx="1.63596" fill="#251414"/>
<rect x="294.088" y="31.1904" width="16.3596" height="16.3596" rx="1.63596" fill="#251414"/>
<rect x="313.293" y="31.1904" width="16.3596" height="16.3596" rx="1.63596" fill="#492A2A"/>
<rect x="6.01672" y="54.6621" width="16.3596" height="16.3596" rx="1.63596" fill="#251414"/>
<rect x="25.2214" y="54.6621" width="16.3596" height="16.3596" rx="1.63596" fill="#492A2A"/>
<rect x="44.4261" y="54.6621" width="16.3596" height="16.3596" rx="1.63596" fill="#251414"/>
<rect x="63.6309" y="54.6621" width="16.3596" height="16.3596" rx="1.63596" fill="#251414"/>
<rect x="82.8357" y="54.6621" width="16.3596" height="16.3596" rx="1.63596" fill="#251414"/>
<g filter="url(#filter0_d_540_134)">
<rect x="102.04" y="54.6621" width="16.3596" height="16.3596" rx="1.63596" fill="#803636"/>
</g>
<g filter="url(#filter1_d_540_134)">
<rect x="121.245" y="54.6621" width="16.3596" height="16.3596" rx="1.63596" fill="#AA4848"/>
</g>
<g filter="url(#filter2_d_540_134)">
<rect x="140.45" y="54.6621" width="16.3596" height="16.3596" rx="1.63596" fill="#8E2626"/>
</g>
<rect x="159.655" y="54.6621" width="16.3596" height="16.3596" rx="1.63596" fill="#803636"/>
<g filter="url(#filter3_d_540_134)">
<rect x="178.859" y="54.6621" width="16.3596" height="16.3596" rx="1.63596" fill="#AA4848"/>
</g>
<rect x="198.064" y="54.6621" width="16.3596" height="16.3596" rx="1.63596" fill="#8E2626"/>
<rect x="217.269" y="54.6621" width="16.3596" height="16.3596" rx="1.63596" fill="#251414"/>
<rect x="236.474" y="54.6621" width="16.3596" height="16.3596" rx="1.63596" fill="#251414"/>
<g filter="url(#filter4_d_540_134)">
<rect x="255.679" y="54.6621" width="16.3596" height="16.3596" rx="1.63596" fill="#8E2626"/>
</g>
<rect x="274.883" y="54.6621" width="16.3596" height="16.3596" rx="1.63596" fill="#251414"/>
<rect x="294.088" y="54.6621" width="16.3596" height="16.3596" rx="1.63596" fill="#251414"/>
<rect x="313.293" y="54.6621" width="16.3596" height="16.3596" rx="1.63596" fill="#251414"/>
<rect x="6.01672" y="78.1348" width="16.3596" height="16.3596" rx="1.63596" fill="#251414"/>
<rect x="25.2214" y="78.1348" width="16.3596" height="16.3596" rx="1.63596" fill="#251414"/>
<rect x="44.4261" y="78.1348" width="16.3596" height="16.3596" rx="1.63596" fill="#251414"/>
<rect x="63.6309" y="78.1348" width="16.3596" height="16.3596" rx="1.63596" fill="#251414"/>
<rect x="82.8357" y="78.1348" width="16.3596" height="16.3596" rx="1.63596" fill="#251414"/>
<rect x="102.04" y="78.1348" width="16.3596" height="16.3596" rx="1.63596" fill="#251414"/>
<rect x="121.245" y="78.1348" width="16.3596" height="16.3596" rx="1.63596" fill="#251414"/>
<g filter="url(#filter5_d_540_134)">
<rect x="140.45" y="78.1348" width="16.3596" height="16.3596" rx="1.63596" fill="#AA4848"/>
</g>
<rect x="159.655" y="78.1348" width="16.3596" height="16.3596" rx="1.63596" fill="#8C3232"/>
<rect x="178.859" y="78.1348" width="16.3596" height="16.3596" rx="1.63596" fill="#251414"/>
<rect x="198.064" y="78.1348" width="16.3596" height="16.3596" rx="1.63596" fill="#803636"/>
<rect x="217.269" y="78.1348" width="16.3596" height="16.3596" rx="1.63596" fill="#251414"/>
<rect x="236.474" y="78.1348" width="16.3596" height="16.3596" rx="1.63596" fill="#8C3232"/>
<g filter="url(#filter6_d_540_134)">
<rect x="255.679" y="78.1348" width="16.3596" height="16.3596" rx="1.63596" fill="#AA4848"/>
</g>
<rect x="274.883" y="78.1348" width="16.3596" height="16.3596" rx="1.63596" fill="#8C3232"/>
<rect x="294.088" y="78.1348" width="16.3596" height="16.3596" rx="1.63596" fill="#251414"/>
<rect x="313.293" y="78.1348" width="16.3596" height="16.3596" rx="1.63596" fill="#251414"/>
<rect x="6.0166" y="101.607" width="16.3596" height="16.3596" rx="1.63596" fill="#251414"/>
<rect x="25.2213" y="101.607" width="16.3596" height="16.3596" rx="1.63596" fill="#492A2A"/>
<rect x="44.426" y="101.607" width="16.3596" height="16.3596" rx="1.63596" fill="#251414"/>
<rect x="63.6309" y="101.607" width="16.3596" height="16.3596" rx="1.63596" fill="#251414"/>
<rect x="82.8356" y="101.607" width="16.3596" height="16.3596" rx="1.63596" fill="#251414"/>
<rect x="102.04" y="101.607" width="16.3596" height="16.3596" rx="1.63596" fill="#251414"/>
<rect x="121.245" y="101.607" width="16.3596" height="16.3596" rx="1.63596" fill="#251414"/>
<rect x="140.45" y="101.607" width="16.3596" height="16.3596" rx="1.63596" fill="#8C3232"/>
<rect x="159.655" y="101.607" width="16.3596" height="16.3596" rx="1.63596" fill="#8E2626"/>
<g filter="url(#filter7_d_540_134)">
<rect x="178.859" y="101.607" width="16.3596" height="16.3596" rx="1.63596" fill="#AA4848"/>
</g>
<g filter="url(#filter8_d_540_134)">
<rect x="198.064" y="101.607" width="16.3596" height="16.3596" rx="1.63596" fill="#AA4848"/>
</g>
<rect x="217.269" y="101.607" width="16.3596" height="16.3596" rx="1.63596" fill="#251414"/>
<rect x="236.474" y="101.607" width="16.3596" height="16.3596" rx="1.63596" fill="#251414"/>
<g filter="url(#filter9_d_540_134)">
<rect x="255.678" y="101.607" width="16.3596" height="16.3596" rx="1.63596" fill="#8E2626"/>
</g>
<rect x="274.883" y="101.607" width="16.3596" height="16.3596" rx="1.63596" fill="#251414"/>
<rect x="294.088" y="101.607" width="16.3596" height="16.3596" rx="1.63596" fill="#251414"/>
<rect x="313.293" y="101.607" width="16.3596" height="16.3596" rx="1.63596" fill="#492A2A"/>
<rect x="6.0166" y="125.08" width="16.3596" height="16.3596" rx="1.63596" fill="#251414"/>
<rect x="25.2213" y="125.08" width="16.3596" height="16.3596" rx="1.63596" fill="#251414"/>
<rect x="44.426" y="125.08" width="16.3596" height="16.3596" rx="1.63596" fill="#492A2A"/>
<rect x="63.6309" y="125.08" width="16.3596" height="16.3596" rx="1.63596" fill="#492A2A"/>
<rect x="82.8356" y="125.08" width="16.3596" height="16.3596" rx="1.63596" fill="#251414"/>
<rect x="102.04" y="125.08" width="16.3596" height="16.3596" rx="1.63596" fill="#251414"/>
<rect x="121.245" y="125.08" width="16.3596" height="16.3596" rx="1.63596" fill="#251414"/>
<rect x="140.45" y="125.08" width="16.3596" height="16.3596" rx="1.63596" fill="#251414"/>
<rect x="159.655" y="125.08" width="16.3596" height="16.3596" rx="1.63596" fill="#251414"/>
<rect x="178.859" y="125.08" width="16.3596" height="16.3596" rx="1.63596" fill="#251414"/>
<rect x="198.064" y="125.08" width="16.3596" height="16.3596" rx="1.63596" fill="#251414"/>
<rect x="217.269" y="125.08" width="16.3596" height="16.3596" rx="1.63596" fill="#251414"/>
<rect x="236.474" y="125.08" width="16.3596" height="16.3596" rx="1.63596" fill="#251414"/>
<rect x="255.678" y="125.08" width="16.3596" height="16.3596" rx="1.63596" fill="#251414"/>
<rect x="274.883" y="125.08" width="16.3596" height="16.3596" rx="1.63596" fill="#251414"/>
<rect x="294.088" y="125.08" width="16.3596" height="16.3596" rx="1.63596" fill="#251414"/>
<rect x="313.293" y="125.08" width="16.3596" height="16.3596" rx="1.63596" fill="#251414"/>
<rect x="6.0166" y="148.553" width="16.3596" height="16.3596" rx="1.63596" fill="#251414"/>
<rect x="25.2213" y="148.553" width="16.3596" height="16.3596" rx="1.63596" fill="#492A2A"/>
<rect x="44.426" y="148.553" width="16.3596" height="16.3596" rx="1.63596" fill="#251414"/>
<rect x="63.6309" y="148.553" width="16.3596" height="16.3596" rx="1.63596" fill="#492A2A"/>
<rect x="82.8356" y="148.553" width="16.3596" height="16.3596" rx="1.63596" fill="#251414"/>
<rect x="102.04" y="148.553" width="16.3596" height="16.3596" rx="1.63596" fill="#251414"/>
<rect x="121.245" y="148.553" width="16.3596" height="16.3596" rx="1.63596" fill="#251414"/>
<rect x="140.45" y="148.553" width="16.3596" height="16.3596" rx="1.63596" fill="#251414"/>
<rect x="159.655" y="148.553" width="16.3596" height="16.3596" rx="1.63596" fill="#251414"/>
<rect x="178.859" y="148.553" width="16.3596" height="16.3596" rx="1.63596" fill="#251414"/>
<rect x="198.064" y="148.553" width="16.3596" height="16.3596" rx="1.63596" fill="#251414"/>
<rect x="217.269" y="148.553" width="16.3596" height="16.3596" rx="1.63596" fill="#251414"/>
<rect x="236.474" y="148.553" width="16.3596" height="16.3596" rx="1.63596" fill="#251414"/>
<rect x="255.678" y="148.553" width="16.3596" height="16.3596" rx="1.63596" fill="#251414"/>
<rect x="274.883" y="148.553" width="16.3596" height="16.3596" rx="1.63596" fill="#251414"/>
<rect x="294.088" y="148.553" width="16.3596" height="16.3596" rx="1.63596" fill="#492A2A"/>
<rect x="313.293" y="148.553" width="16.3596" height="16.3596" rx="1.63596" fill="#251414"/>
<rect x="6.0166" y="172.025" width="16.3596" height="16.3596" rx="1.63596" fill="#251414"/>
<rect x="25.2213" y="172.025" width="16.3596" height="16.3596" rx="1.63596" fill="#251414"/>
<rect x="44.426" y="172.025" width="16.3596" height="16.3596" rx="1.63596" fill="#251414"/>
<rect x="63.6309" y="172.025" width="16.3596" height="16.3596" rx="1.63596" fill="#251414"/>
<rect x="82.8356" y="172.025" width="16.3596" height="16.3596" rx="1.63596" fill="#251414"/>
<rect x="102.04" y="172.025" width="16.3596" height="16.3596" rx="1.63596" fill="#251414"/>
<rect x="121.245" y="172.025" width="16.3596" height="16.3596" rx="1.63596" fill="#251414"/>
<rect x="140.45" y="172.025" width="16.3596" height="16.3596" rx="1.63596" fill="#251414"/>
<rect x="159.655" y="172.025" width="16.3596" height="16.3596" rx="1.63596" fill="#251414"/>
<rect x="178.859" y="172.025" width="16.3596" height="16.3596" rx="1.63596" fill="#251414"/>
<rect x="198.064" y="172.025" width="16.3596" height="16.3596" rx="1.63596" fill="#251414"/>
<rect x="217.269" y="172.025" width="16.3596" height="16.3596" rx="1.63596" fill="#251414"/>
<rect x="236.474" y="172.025" width="16.3596" height="16.3596" rx="1.63596" fill="#251414"/>
<rect x="255.678" y="172.025" width="16.3596" height="16.3596" rx="1.63596" fill="#251414"/>
<rect x="274.883" y="172.025" width="16.3596" height="16.3596" rx="1.63596" fill="#251414"/>
<rect x="294.088" y="172.025" width="16.3596" height="16.3596" rx="1.63596" fill="#251414"/>
<rect x="313.293" y="172.025" width="16.3596" height="16.3596" rx="1.63596" fill="#251414"/>
<rect x="332.696" y="-15.7549" width="16.3596" height="16.3596" rx="1.63596" fill="#251414"/>
<rect x="351.9" y="-15.7549" width="16.3596" height="16.3596" rx="1.63596" fill="#251414"/>
<rect x="371.105" y="-15.7549" width="16.3596" height="16.3596" rx="1.63596" fill="#251414"/>
<rect x="332.696" y="7.71777" width="16.3596" height="16.3596" rx="1.63596" fill="#251414"/>
<rect x="351.901" y="7.71777" width="16.3596" height="16.3596" rx="1.63596" fill="#251414"/>
<rect x="371.105" y="7.71777" width="16.3596" height="16.3596" rx="1.63596" fill="#251414"/>
<rect x="332.696" y="31.1904" width="16.3596" height="16.3596" rx="1.63596" fill="#492A2A"/>
<rect x="351.901" y="31.1904" width="16.3596" height="16.3596" rx="1.63596" fill="#251414"/>
<rect x="371.105" y="31.1904" width="16.3596" height="16.3596" rx="1.63596" fill="#251414"/>
<rect x="332.696" y="54.6621" width="16.3596" height="16.3596" rx="1.63596" fill="#492A2A"/>
<rect x="351.901" y="54.6621" width="16.3596" height="16.3596" rx="1.63596" fill="#251414"/>
<rect x="371.105" y="54.6621" width="16.3596" height="16.3596" rx="1.63596" fill="#251414"/>
<rect x="332.696" y="78.1348" width="16.3596" height="16.3596" rx="1.63596" fill="#251414"/>
<rect x="351.901" y="78.1348" width="16.3596" height="16.3596" rx="1.63596" fill="#251414"/>
<rect x="371.105" y="78.1348" width="16.3596" height="16.3596" rx="1.63596" fill="#251414"/>
<rect x="332.696" y="101.607" width="16.3596" height="16.3596" rx="1.63596" fill="#492A2A"/>
<rect x="351.901" y="101.607" width="16.3596" height="16.3596" rx="1.63596" fill="#251414"/>
<rect x="371.106" y="101.607" width="16.3596" height="16.3596" rx="1.63596" fill="#251414"/>
<rect x="332.696" y="125.08" width="16.3596" height="16.3596" rx="1.63596" fill="#492A2A"/>
<rect x="351.901" y="125.08" width="16.3596" height="16.3596" rx="1.63596" fill="#492A2A"/>
<rect x="371.106" y="125.08" width="16.3596" height="16.3596" rx="1.63596" fill="#251414"/>
<rect x="332.696" y="148.553" width="16.3596" height="16.3596" rx="1.63596" fill="#251414"/>
<rect x="351.901" y="148.553" width="16.3596" height="16.3596" rx="1.63596" fill="#492A2A"/>
<rect x="371.106" y="148.553" width="16.3596" height="16.3596" rx="1.63596" fill="#251414"/>
<rect x="332.696" y="172.025" width="16.3596" height="16.3596" rx="1.63596" fill="#251414"/>
<rect x="351.901" y="172.025" width="16.3596" height="16.3596" rx="1.63596" fill="#251414"/>
<rect x="371.106" y="172.025" width="16.3596" height="16.3596" rx="1.63596" fill="#251414"/>
<rect x="-13.387" y="-15.7549" width="16.3596" height="16.3596" rx="1.63596" fill="#251414"/>
<rect x="-13.3867" y="7.71777" width="16.3596" height="16.3596" rx="1.63596" fill="#251414"/>
<rect x="-13.3867" y="31.1904" width="16.3596" height="16.3596" rx="1.63596" fill="#251414"/>
<rect x="-13.3867" y="54.6621" width="16.3596" height="16.3596" rx="1.63596" fill="#251414"/>
<rect x="-13.3867" y="78.1348" width="16.3596" height="16.3596" rx="1.63596" fill="#251414"/>
<rect x="-13.3867" y="101.607" width="16.3596" height="16.3596" rx="1.63596" fill="#251414"/>
<rect x="-13.3867" y="125.08" width="16.3596" height="16.3596" rx="1.63596" fill="#251414"/>
<rect x="-13.3867" y="148.553" width="16.3596" height="16.3596" rx="1.63596" fill="#251414"/>
<rect x="-13.3867" y="172.025" width="16.3596" height="16.3596" rx="1.63596" fill="#251414"/>
<rect width="276" height="61" transform="translate(56 -97) rotate(90)" fill="url(#paint3_linear_540_134)"/>
<rect width="419" height="61.9999" transform="translate(-35 124)" fill="url(#paint4_linear_540_134)"/>
<rect width="386.326" height="29.7174" transform="matrix(4.37114e-08 1 1 -4.37114e-08 356.608 -101.782)" fill="url(#paint5_linear_540_134)"/>
<rect width="386" height="53" transform="matrix(1 0 0 -1 0 48)" fill="url(#paint6_linear_540_134)"/>
</g>
<defs>
<filter id="filter0_d_540_134" x="94.1394" y="49.2895" width="32.1615" height="32.1613" filterUnits="userSpaceOnUse" colorInterpolationFilters="sRGB">
<feFlood floodOpacity="0" result="BackgroundImageFix"/>
<feColorMatrix in="SourceAlpha" type="matrix" values="0 0 0 0 0 0 0 0 0 0 0 0 0 0 0 0 0 0 127 0" result="hardAlpha"/>
<feOffset dy="2.52831"/>
<feGaussianBlur stdDeviation="3.95048"/>
<feComposite in2="hardAlpha" operator="out"/>
<feColorMatrix type="matrix" values="0 0 0 0 0.54902 0 0 0 0 0.196078 0 0 0 0 0.196078 0 0 0 0.16 0"/>
<feBlend mode="normal" in2="BackgroundImageFix" result="effect1_dropShadow_540_134"/>
<feBlend mode="normal" in="SourceGraphic" in2="effect1_dropShadow_540_134" result="shape"/>
</filter>
<filter id="filter1_d_540_134" x="113.344" y="49.2895" width="32.1615" height="32.1613" filterUnits="userSpaceOnUse" colorInterpolationFilters="sRGB">
<feFlood floodOpacity="0" result="BackgroundImageFix"/>
<feColorMatrix in="SourceAlpha" type="matrix" values="0 0 0 0 0 0 0 0 0 0 0 0 0 0 0 0 0 0 127 0" result="hardAlpha"/>
<feOffset dy="2.52831"/>
<feGaussianBlur stdDeviation="3.95048"/>
<feComposite in2="hardAlpha" operator="out"/>
<feColorMatrix type="matrix" values="0 0 0 0 0.54902 0 0 0 0 0.196078 0 0 0 0 0.196078 0 0 0 0.16 0"/>
<feBlend mode="normal" in2="BackgroundImageFix" result="effect1_dropShadow_540_134"/>
<feBlend mode="normal" in="SourceGraphic" in2="effect1_dropShadow_540_134" result="shape"/>
</filter>
<filter id="filter2_d_540_134" x="132.549" y="49.2895" width="32.1615" height="32.1613" filterUnits="userSpaceOnUse" colorInterpolationFilters="sRGB">
<feFlood floodOpacity="0" result="BackgroundImageFix"/>
<feColorMatrix in="SourceAlpha" type="matrix" values="0 0 0 0 0 0 0 0 0 0 0 0 0 0 0 0 0 0 127 0" result="hardAlpha"/>
<feOffset dy="2.52831"/>
<feGaussianBlur stdDeviation="3.95048"/>
<feComposite in2="hardAlpha" operator="out"/>
<feColorMatrix type="matrix" values="0 0 0 0 0.54902 0 0 0 0 0.196078 0 0 0 0 0.196078 0 0 0 0.16 0"/>
<feBlend mode="normal" in2="BackgroundImageFix" result="effect1_dropShadow_540_134"/>
<feBlend mode="normal" in="SourceGraphic" in2="effect1_dropShadow_540_134" result="shape"/>
</filter>
<filter id="filter3_d_540_134" x="170.959" y="49.2895" width="32.1615" height="32.1613" filterUnits="userSpaceOnUse" colorInterpolationFilters="sRGB">
<feFlood floodOpacity="0" result="BackgroundImageFix"/>
<feColorMatrix in="SourceAlpha" type="matrix" values="0 0 0 0 0 0 0 0 0 0 0 0 0 0 0 0 0 0 127 0" result="hardAlpha"/>
<feOffset dy="2.52831"/>
<feGaussianBlur stdDeviation="3.95048"/>
<feComposite in2="hardAlpha" operator="out"/>
<feColorMatrix type="matrix" values="0 0 0 0 0.54902 0 0 0 0 0.196078 0 0 0 0 0.196078 0 0 0 0.16 0"/>
<feBlend mode="normal" in2="BackgroundImageFix" result="effect1_dropShadow_540_134"/>
<feBlend mode="normal" in="SourceGraphic" in2="effect1_dropShadow_540_134" result="shape"/>
</filter>
<filter id="filter4_d_540_134" x="247.778" y="49.2895" width="32.1615" height="32.1613" filterUnits="userSpaceOnUse" colorInterpolationFilters="sRGB">
<feFlood floodOpacity="0" result="BackgroundImageFix"/>
<feColorMatrix in="SourceAlpha" type="matrix" values="0 0 0 0 0 0 0 0 0 0 0 0 0 0 0 0 0 0 127 0" result="hardAlpha"/>
<feOffset dy="2.52831"/>
<feGaussianBlur stdDeviation="3.95048"/>
<feComposite in2="hardAlpha" operator="out"/>
<feColorMatrix type="matrix" values="0 0 0 0 0.54902 0 0 0 0 0.196078 0 0 0 0 0.196078 0 0 0 0.16 0"/>
<feBlend mode="normal" in2="BackgroundImageFix" result="effect1_dropShadow_540_134"/>
<feBlend mode="normal" in="SourceGraphic" in2="effect1_dropShadow_540_134" result="shape"/>
</filter>
<filter id="filter5_d_540_134" x="132.549" y="72.7621" width="32.1615" height="32.1613" filterUnits="userSpaceOnUse" colorInterpolationFilters="sRGB">
<feFlood floodOpacity="0" result="BackgroundImageFix"/>
<feColorMatrix in="SourceAlpha" type="matrix" values="0 0 0 0 0 0 0 0 0 0 0 0 0 0 0 0 0 0 127 0" result="hardAlpha"/>
<feOffset dy="2.52831"/>
<feGaussianBlur stdDeviation="3.95048"/>
<feComposite in2="hardAlpha" operator="out"/>
<feColorMatrix type="matrix" values="0 0 0 0 0.54902 0 0 0 0 0.196078 0 0 0 0 0.196078 0 0 0 0.16 0"/>
<feBlend mode="normal" in2="BackgroundImageFix" result="effect1_dropShadow_540_134"/>
<feBlend mode="normal" in="SourceGraphic" in2="effect1_dropShadow_540_134" result="shape"/>
</filter>
<filter id="filter6_d_540_134" x="247.778" y="72.7621" width="32.1615" height="32.1613" filterUnits="userSpaceOnUse" colorInterpolationFilters="sRGB">
<feFlood floodOpacity="0" result="BackgroundImageFix"/>
<feColorMatrix in="SourceAlpha" type="matrix" values="0 0 0 0 0 0 0 0 0 0 0 0 0 0 0 0 0 0 127 0" result="hardAlpha"/>
<feOffset dy="2.52831"/>
<feGaussianBlur stdDeviation="3.95048"/>
<feComposite in2="hardAlpha" operator="out"/>
<feColorMatrix type="matrix" values="0 0 0 0 0.54902 0 0 0 0 0.196078 0 0 0 0 0.196078 0 0 0 0.16 0"/>
<feBlend mode="normal" in2="BackgroundImageFix" result="effect1_dropShadow_540_134"/>
<feBlend mode="normal" in="SourceGraphic" in2="effect1_dropShadow_540_134" result="shape"/>
</filter>
<filter id="filter7_d_540_134" x="170.958" y="96.2348" width="32.1615" height="32.1613" filterUnits="userSpaceOnUse" colorInterpolationFilters="sRGB">
<feFlood floodOpacity="0" result="BackgroundImageFix"/>
<feColorMatrix in="SourceAlpha" type="matrix" values="0 0 0 0 0 0 0 0 0 0 0 0 0 0 0 0 0 0 127 0" result="hardAlpha"/>
<feOffset dy="2.52831"/>
<feGaussianBlur stdDeviation="3.95048"/>
<feComposite in2="hardAlpha" operator="out"/>
<feColorMatrix type="matrix" values="0 0 0 0 0.54902 0 0 0 0 0.196078 0 0 0 0 0.196078 0 0 0 0.16 0"/>
<feBlend mode="normal" in2="BackgroundImageFix" result="effect1_dropShadow_540_134"/>
<feBlend mode="normal" in="SourceGraphic" in2="effect1_dropShadow_540_134" result="shape"/>
</filter>
<filter id="filter8_d_540_134" x="190.163" y="96.2348" width="32.1615" height="32.1613" filterUnits="userSpaceOnUse" colorInterpolationFilters="sRGB">
<feFlood floodOpacity="0" result="BackgroundImageFix"/>
<feColorMatrix in="SourceAlpha" type="matrix" values="0 0 0 0 0 0 0 0 0 0 0 0 0 0 0 0 0 0 127 0" result="hardAlpha"/>
<feOffset dy="2.52831"/>
<feGaussianBlur stdDeviation="3.95048"/>
<feComposite in2="hardAlpha" operator="out"/>
<feColorMatrix type="matrix" values="0 0 0 0 0.54902 0 0 0 0 0.196078 0 0 0 0 0.196078 0 0 0 0.16 0"/>
<feBlend mode="normal" in2="BackgroundImageFix" result="effect1_dropShadow_540_134"/>
<feBlend mode="normal" in="SourceGraphic" in2="effect1_dropShadow_540_134" result="shape"/>
</filter>
<filter id="filter9_d_540_134" x="247.778" y="96.2348" width="32.1615" height="32.1613" filterUnits="userSpaceOnUse" colorInterpolationFilters="sRGB">
<feFlood floodOpacity="0" result="BackgroundImageFix"/>
<feColorMatrix in="SourceAlpha" type="matrix" values="0 0 0 0 0 0 0 0 0 0 0 0 0 0 0 0 0 0 127 0" result="hardAlpha"/>
<feOffset dy="2.52831"/>
<feGaussianBlur stdDeviation="3.95048"/>
<feComposite in2="hardAlpha" operator="out"/>
<feColorMatrix type="matrix" values="0 0 0 0 0.54902 0 0 0 0 0.196078 0 0 0 0 0.196078 0 0 0 0.16 0"/>
<feBlend mode="normal" in2="BackgroundImageFix" result="effect1_dropShadow_540_134"/>
<feBlend mode="normal" in="SourceGraphic" in2="effect1_dropShadow_540_134" result="shape"/>
</filter>
<linearGradient id="paint0_linear_540_134" x1="223.256" y1="98.6441" x2="-36.8574" y2="41.4178" gradientUnits="userSpaceOnUse">
<stop stopColor="#2A0B0B"/>
<stop offset="1" stopColor="#101010"/>
</linearGradient>
<radialGradient id="paint1_radial_540_134" cx="0" cy="0" r="1" gradientUnits="userSpaceOnUse" gradientTransform="translate(88 126.5) rotate(-0.118137) scale(485.001 208.645)">
<stop stopOpacity="0"/>
<stop offset="0.790879" stopOpacity="0.77"/>
</radialGradient>
<linearGradient id="paint2_linear_540_134" x1="208.96" y1="46" x2="203.071" y2="-12.9147" gradientUnits="userSpaceOnUse">
<stop/>
<stop offset="1" stopOpacity="0"/>
</linearGradient>
<linearGradient id="paint3_linear_540_134" x1="149.412" y1="61" x2="146.499" y2="8.4994" gradientUnits="userSpaceOnUse">
<stop/>
<stop offset="1" stopOpacity="0"/>
</linearGradient>
<linearGradient id="paint4_linear_540_134" x1="226.824" y1="61.9999" x2="224.839" y2="8.54822" gradientUnits="userSpaceOnUse">
<stop/>
<stop offset="1" stopOpacity="0"/>
</linearGradient>
<linearGradient id="paint5_linear_540_134" x1="209.136" y1="29.7174" x2="209.08" y2="2.39304" gradientUnits="userSpaceOnUse">
<stop/>
<stop offset="1" stopOpacity="0"/>
</linearGradient>
<linearGradient id="paint6_linear_540_134" x1="208.96" y1="53" x2="205.829" y2="-3.60619" gradientUnits="userSpaceOnUse">
<stop/>
<stop offset="1" stopOpacity="0"/>
</linearGradient>
<clipPath id="clip0_540_134">
<rect width="385" height="180" fill="white"/>
</clipPath>
</defs>
</svg>
