<svg width="385" height="180" viewBox="0 0 385 180" fill="none" xmlns="http://www.w3.org/2000/svg">
<g clip-path="url(#clip0_540_714)">
<rect width="385" height="180" fill="url(#paint0_radial_540_714)"/>
<path d="M4.73547 30.9908C88.8992 49.8087 283.779 72.5557 389.986 13" stroke="url(#paint1_linear_540_714)" stroke-width="1.24074"/>
<path d="M1.01343 127.718C85.1772 108.9 280.057 86.1533 386.264 145.709" stroke="url(#paint2_linear_540_714)" stroke-width="1.24074"/>
<g filter="url(#filter0_f_540_714)">
<path d="M388.746 13.6201V147C300.405 86.948 95.5168 109.157 4.11536 127.769V31.6109C223.727 72.5554 345.94 39.6757 388.746 13.6201Z" fill="#995252" fill-opacity="0.12"/>
</g>
<path d="M108.958 112.259L139.977 48.9814" stroke="url(#paint3_linear_540_714)" stroke-width="1.24074"/>
<path d="M209.458 107.296L240.477 48.9814" stroke="url(#paint4_linear_540_714)" stroke-width="1.24074"/>
<path d="M305 117L331.543 34.0928" stroke="url(#paint5_linear_540_714)" stroke-width="1.24074"/>
<path d="M287.625 113.5L260.329 48.9814" stroke="url(#paint6_linear_540_714)" stroke-width="1.24074"/>
<path d="M190.847 107.296L164.791 50.2217" stroke="url(#paint7_linear_540_714)" stroke-width="1.24074"/>
<path d="M95.3099 112.259L70.4951 41.5371" stroke="url(#paint8_linear_540_714)" stroke-width="1.24074"/>
<path d="M380.68 143.278L345.94 31.6113" stroke="url(#paint9_linear_540_714)" stroke-width="1.24074"/>
<path d="M20.8652 123.426L54.3653 40.2959" stroke="url(#paint10_linear_540_714)" stroke-width="1.24074"/>
<g clip-path="url(#clip1_540_714)">
<path fill-rule="evenodd" clip-rule="evenodd" d="M189.853 85.3558C190.258 85.5501 190.441 86.0404 190.262 86.4516L186.465 95.1662C186.382 95.3605 186.26 95.5359 186.108 95.6818C185.955 95.8276 185.774 95.9409 185.576 96.0146C185.378 96.0884 185.167 96.1211 184.956 96.1108C184.745 96.1006 184.539 96.0475 184.349 95.9548L175.712 91.8212C175.518 91.7266 175.367 91.5618 175.29 91.3602C175.214 91.1585 175.217 90.9353 175.299 90.7357C175.339 90.6369 175.399 90.5475 175.476 90.4729C175.552 90.3984 175.643 90.3403 175.742 90.3022C175.842 90.2642 175.949 90.247 176.055 90.2518C176.162 90.2566 176.266 90.2832 176.362 90.33L184.265 94.1139C184.36 94.1603 184.464 94.1869 184.569 94.192C184.675 94.1972 184.78 94.1808 184.879 94.1439C184.978 94.107 185.069 94.0504 185.145 93.9774C185.222 93.9044 185.282 93.8167 185.324 93.7195L188.796 85.7499C188.837 85.6528 188.898 85.565 188.974 85.4921C189.051 85.4192 189.141 85.3625 189.24 85.3257C189.339 85.2888 189.444 85.2724 189.55 85.2776C189.655 85.2828 189.759 85.3094 189.853 85.3558Z" fill="url(#paint11_linear_540_714)"/>
</g>
<g clip-path="url(#clip2_540_714)">
<path fill-rule="evenodd" clip-rule="evenodd" d="M221.468 72.8604C221.251 72.4673 221.386 71.9619 221.77 71.7308L229.917 66.8323C230.097 66.7221 230.298 66.6497 230.507 66.6194C230.716 66.5892 230.929 66.6018 231.133 66.6565C231.337 66.7112 231.528 66.8067 231.694 66.9375C231.86 67.0682 231.997 67.2313 232.098 67.4168L236.738 75.7928C236.842 75.9823 236.869 76.2039 236.814 76.4126C236.76 76.6214 236.628 76.8016 236.446 76.9167C236.355 76.9738 236.254 77.0117 236.149 77.0282C236.044 77.0447 235.936 77.0394 235.833 77.0125C235.729 76.9857 235.633 76.938 235.549 76.8723C235.464 76.8066 235.395 76.7243 235.344 76.6306L231.099 68.965C231.048 68.8722 230.979 68.7906 230.896 68.7252C230.814 68.6598 230.718 68.6119 230.616 68.5846C230.514 68.5573 230.407 68.551 230.303 68.5661C230.198 68.5812 230.098 68.6175 230.008 68.6727L222.558 73.1525C222.468 73.2077 222.368 73.244 222.263 73.2591C222.159 73.2743 222.052 73.268 221.95 73.2406C221.848 73.2133 221.753 73.1655 221.67 73.1001C221.587 73.0348 221.518 72.9532 221.468 72.8604Z" fill="url(#paint12_linear_540_714)"/>
</g>
<g opacity="0.5" clip-path="url(#clip3_540_714)">
<path fill-rule="evenodd" clip-rule="evenodd" d="M138.974 69.9304C139.378 69.736 139.561 69.2457 139.382 68.8346L135.585 60.1199C135.502 59.9256 135.381 59.7502 135.228 59.6044C135.075 59.4585 134.894 59.3453 134.696 59.2715C134.498 59.1977 134.287 59.165 134.076 59.1753C133.865 59.1856 133.659 59.2387 133.469 59.3313L124.832 63.4649C124.638 63.5595 124.487 63.7244 124.411 63.926C124.334 64.1276 124.337 64.3509 124.419 64.5504C124.459 64.6492 124.519 64.7386 124.596 64.8132C124.672 64.8878 124.763 64.9459 124.862 64.9839C124.962 65.0219 125.069 65.0391 125.175 65.0343C125.282 65.0296 125.386 65.0029 125.482 64.9562L133.386 61.1722C133.481 61.1259 133.584 61.0993 133.689 61.0941C133.795 61.0889 133.9 61.1053 133.999 61.1422C134.099 61.1791 134.189 61.2358 134.265 61.3087C134.342 61.3817 134.403 61.4695 134.444 61.5667L137.916 69.5362C137.957 69.6334 138.018 69.7211 138.094 69.794C138.171 69.867 138.261 69.9236 138.36 69.9605C138.459 69.9974 138.564 70.0137 138.67 70.0085C138.775 70.0033 138.879 69.9768 138.974 69.9304Z" fill="url(#paint13_linear_540_714)"/>
</g>
<g opacity="0.3" clip-path="url(#clip4_540_714)">
<path fill-rule="evenodd" clip-rule="evenodd" d="M326.853 72.4567C327.258 72.2624 327.441 71.7721 327.262 71.3609L323.465 62.6463C323.382 62.452 323.26 62.2766 323.108 62.1307C322.955 61.9849 322.774 61.8716 322.576 61.7979C322.378 61.7241 322.167 61.6914 321.956 61.7017C321.745 61.7119 321.539 61.765 321.349 61.8577L312.712 65.9913C312.518 66.0859 312.367 66.2507 312.29 66.4523C312.214 66.654 312.217 66.8772 312.299 67.0768C312.339 67.1756 312.399 67.265 312.476 67.3396C312.552 67.4141 312.643 67.4722 312.742 67.5103C312.842 67.5483 312.949 67.5655 313.055 67.5607C313.162 67.5559 313.266 67.5293 313.362 67.4825L321.265 63.6986C321.36 63.6522 321.464 63.6256 321.569 63.6205C321.675 63.6153 321.78 63.6317 321.879 63.6686C321.978 63.7055 322.069 63.7621 322.145 63.8351C322.222 63.9081 322.282 63.9958 322.324 64.093L325.796 72.0626C325.837 72.1597 325.898 72.2475 325.974 72.3204C326.051 72.3933 326.141 72.45 326.24 72.4868C326.339 72.5237 326.444 72.5401 326.55 72.5349C326.655 72.5297 326.759 72.5031 326.853 72.4567Z" fill="url(#paint14_linear_540_714)"/>
</g>
<g opacity="0.7" clip-path="url(#clip5_540_714)">
<path fill-rule="evenodd" clip-rule="evenodd" d="M283.853 85.3558C284.258 85.5501 284.441 86.0404 284.262 86.4516L280.465 95.1662C280.382 95.3605 280.26 95.5359 280.108 95.6818C279.955 95.8276 279.774 95.9409 279.576 96.0146C279.378 96.0884 279.167 96.1211 278.956 96.1108C278.745 96.1006 278.539 96.0475 278.349 95.9548L269.712 91.8212C269.518 91.7266 269.367 91.5618 269.29 91.3602C269.214 91.1585 269.217 90.9353 269.299 90.7357C269.339 90.6369 269.399 90.5475 269.476 90.4729C269.552 90.3984 269.643 90.3403 269.742 90.3022C269.842 90.2642 269.949 90.247 270.055 90.2518C270.162 90.2566 270.266 90.2832 270.362 90.33L278.265 94.1139C278.36 94.1603 278.464 94.1869 278.569 94.192C278.675 94.1972 278.78 94.1808 278.879 94.1439C278.978 94.107 279.069 94.0504 279.145 93.9774C279.222 93.9044 279.282 93.8167 279.324 93.7195L282.796 85.7499C282.837 85.6528 282.898 85.565 282.974 85.4921C283.051 85.4192 283.141 85.3625 283.24 85.3257C283.339 85.2888 283.444 85.2724 283.55 85.2776C283.655 85.2828 283.759 85.3094 283.853 85.3558Z" fill="url(#paint15_linear_540_714)"/>
</g>
<g opacity="0.4" clip-path="url(#clip6_540_714)">
<path fill-rule="evenodd" clip-rule="evenodd" d="M95.8535 89.3558C96.2584 89.5501 96.4411 90.0404 96.2619 90.4516L92.4649 99.1662C92.382 99.3605 92.2605 99.5359 92.1077 99.6818C91.9549 99.8276 91.774 99.9409 91.5761 100.015C91.3782 100.088 91.1673 100.121 90.9563 100.111C90.7454 100.101 90.5387 100.047 90.3489 99.9548L81.7117 95.8212C81.5178 95.7266 81.3672 95.5618 81.2905 95.3602C81.2138 95.1585 81.2167 94.9353 81.2986 94.7357C81.339 94.6369 81.3992 94.5475 81.4755 94.4729C81.5518 94.3984 81.6427 94.3403 81.7424 94.3022C81.8421 94.2642 81.9485 94.247 82.0551 94.2518C82.1617 94.2566 82.2662 94.2832 82.3621 94.33L90.2655 98.1139C90.3604 98.1603 90.4638 98.1869 90.5693 98.192C90.6749 98.1972 90.7804 98.1808 90.8794 98.1439C90.9784 98.107 91.0688 98.0504 91.1453 97.9774C91.2217 97.9044 91.2825 97.8167 91.3239 97.7195L94.7959 89.7499C94.8372 89.6528 94.8979 89.565 94.9743 89.4921C95.0506 89.4192 95.141 89.3625 95.24 89.3257C95.3389 89.2888 95.4444 89.2724 95.5498 89.2776C95.6553 89.2828 95.7586 89.3094 95.8535 89.3558Z" fill="url(#paint16_linear_540_714)"/>
</g>
<g opacity="0.4" clip-path="url(#clip7_540_714)">
<path fill-rule="evenodd" clip-rule="evenodd" d="M372.853 92.3558C373.258 92.5501 373.441 93.0404 373.262 93.4516L369.465 102.166C369.382 102.361 369.26 102.536 369.108 102.682C368.955 102.828 368.774 102.941 368.576 103.015C368.378 103.088 368.167 103.121 367.956 103.111C367.745 103.101 367.539 103.047 367.349 102.955L358.712 98.8212C358.518 98.7266 358.367 98.5618 358.29 98.3602C358.214 98.1585 358.217 97.9353 358.299 97.7357C358.339 97.6369 358.399 97.5475 358.476 97.4729C358.552 97.3984 358.643 97.3403 358.742 97.3022C358.842 97.2642 358.949 97.247 359.055 97.2518C359.162 97.2566 359.266 97.2832 359.362 97.33L367.265 101.114C367.36 101.16 367.464 101.187 367.569 101.192C367.675 101.197 367.78 101.181 367.879 101.144C367.978 101.107 368.069 101.05 368.145 100.977C368.222 100.904 368.282 100.817 368.324 100.719L371.796 92.7499C371.837 92.6528 371.898 92.565 371.974 92.4921C372.051 92.4192 372.141 92.3625 372.24 92.3257C372.339 92.2888 372.444 92.2724 372.55 92.2776C372.655 92.2828 372.759 92.3094 372.853 92.3558Z" fill="url(#paint17_linear_540_714)"/>
</g>
<rect x="144.408" y="12.4075" width="90.7076" height="26.2855" rx="6.1128" fill="#3C1B1B" fill-opacity="0.85"/>
<rect x="144.408" y="12.4075" width="90.7076" height="26.2855" rx="6.1128" stroke="url(#paint18_linear_540_714)" stroke-width="0.81504"/>
<circle cx="155.668" cy="25.5506" r="3.88945" fill="#D77575"/>
<path d="M170.199 29.0508L169.691 27.5883H166.6L166.092 29.0508H164.796L167.43 21.7905H168.862L171.486 29.0508H170.199ZM166.995 26.4682H169.297L168.146 23.1907L166.995 26.4682ZM175.336 23.73C176.747 23.73 177.919 24.9228 177.919 26.4578C177.919 28.0032 176.747 29.1856 175.336 29.1856C174.527 29.1856 173.915 28.8537 173.521 28.3144V31.1252H172.401V23.8649H173.521V24.6116C173.915 24.0619 174.527 23.73 175.336 23.73ZM175.16 28.1173C176.094 28.1173 176.799 27.4224 176.799 26.4578C176.799 25.4932 176.094 24.7983 175.16 24.7983C174.227 24.7983 173.521 25.4932 173.521 26.4578C173.521 27.4224 174.227 28.1173 175.16 28.1173ZM182.077 23.73C183.487 23.73 184.659 24.9228 184.659 26.4578C184.659 28.0032 183.487 29.1856 182.077 29.1856C181.268 29.1856 180.656 28.8537 180.262 28.3144V31.1252H179.142V23.8649H180.262V24.6116C180.656 24.0619 181.268 23.73 182.077 23.73ZM181.901 28.1173C182.834 28.1173 183.539 27.4224 183.539 26.4578C183.539 25.4932 182.834 24.7983 181.901 24.7983C180.967 24.7983 180.262 25.4932 180.262 26.4578C180.262 27.4224 180.967 28.1173 181.901 28.1173ZM192.188 29.1856C189.979 29.1856 188.392 27.5261 188.392 25.4206C188.392 23.3151 189.979 21.6556 192.188 21.6556C193.516 21.6556 194.698 22.3298 195.31 23.3877L194.273 23.9893C193.889 23.2737 193.101 22.8173 192.188 22.8173C190.622 22.8173 189.585 23.9271 189.585 25.4206C189.585 26.9142 190.622 28.024 192.188 28.024C193.101 28.024 193.9 27.5676 194.273 26.8519L195.31 27.4431C194.709 28.5011 193.526 29.1856 192.188 29.1856ZM199.214 23.73C200.376 23.73 201.206 24.5183 201.206 25.8666V29.0508H200.086V25.9807C200.086 25.1924 199.629 24.7776 198.924 24.7776C198.188 24.7776 197.607 25.2132 197.607 26.2711V29.0508H196.487V21.7905H197.607V24.5287C197.949 23.9893 198.509 23.73 199.214 23.73ZM206.727 23.8649H207.847V29.0508H206.727V28.304C206.332 28.8537 205.721 29.1856 204.912 29.1856C203.501 29.1856 202.329 27.9929 202.329 26.4578C202.329 24.9124 203.501 23.73 204.912 23.73C205.721 23.73 206.332 24.0619 206.727 24.6013V23.8649ZM205.088 28.1173C206.021 28.1173 206.727 27.4224 206.727 26.4578C206.727 25.4932 206.021 24.7983 205.088 24.7983C204.154 24.7983 203.449 25.4932 203.449 26.4578C203.449 27.4224 204.154 28.1173 205.088 28.1173ZM209.92 23.087C209.526 23.087 209.204 22.7551 209.204 22.3713C209.204 21.9772 209.526 21.6556 209.92 21.6556C210.314 21.6556 210.636 21.9772 210.636 22.3713C210.636 22.7551 210.314 23.087 209.92 23.087ZM209.36 29.0508V23.8649H210.48V29.0508H209.36ZM214.716 23.73C215.877 23.73 216.707 24.5183 216.707 25.8666V29.0508H215.587V25.9807C215.587 25.1924 215.131 24.7776 214.425 24.7776C213.689 24.7776 213.108 25.2132 213.108 26.2711V29.0508H211.988V23.8649H213.108V24.5287C213.45 23.9893 214.011 23.73 214.716 23.73ZM225.723 29.0508L225.215 27.5883H222.124L221.616 29.0508H220.32L222.954 21.7905H224.385L227.009 29.0508H225.723ZM222.518 26.4682H224.821L223.67 23.1907L222.518 26.4682Z" fill="white"/>
<rect x="144.408" y="122.408" width="89.7076" height="26.2855" rx="6.1128" fill="#3C1B1B" fill-opacity="0.85"/>
<rect x="144.408" y="122.408" width="89.7076" height="26.2855" rx="6.1128" stroke="url(#paint19_linear_540_714)" stroke-width="0.81504"/>
<circle cx="155.668" cy="135.551" r="3.88945" fill="#D77575"/>
<path d="M170.199 139.051L169.691 137.588H166.6L166.092 139.051H164.796L167.43 131.79H168.862L171.486 139.051H170.199ZM166.995 136.468H169.297L168.146 133.191L166.995 136.468ZM175.336 133.73C176.747 133.73 177.919 134.923 177.919 136.458C177.919 138.003 176.747 139.186 175.336 139.186C174.527 139.186 173.915 138.854 173.521 138.314V141.125H172.401V133.865H173.521V134.612C173.915 134.062 174.527 133.73 175.336 133.73ZM175.16 138.117C176.094 138.117 176.799 137.422 176.799 136.458C176.799 135.493 176.094 134.798 175.16 134.798C174.227 134.798 173.521 135.493 173.521 136.458C173.521 137.422 174.227 138.117 175.16 138.117ZM182.077 133.73C183.487 133.73 184.659 134.923 184.659 136.458C184.659 138.003 183.487 139.186 182.077 139.186C181.268 139.186 180.656 138.854 180.262 138.314V141.125H179.142V133.865H180.262V134.612C180.656 134.062 181.268 133.73 182.077 133.73ZM181.901 138.117C182.834 138.117 183.539 137.422 183.539 136.458C183.539 135.493 182.834 134.798 181.901 134.798C180.967 134.798 180.262 135.493 180.262 136.458C180.262 137.422 180.967 138.117 181.901 138.117ZM192.188 139.186C189.979 139.186 188.392 137.526 188.392 135.421C188.392 133.315 189.979 131.656 192.188 131.656C193.516 131.656 194.698 132.33 195.31 133.388L194.273 133.989C193.889 133.274 193.101 132.817 192.188 132.817C190.622 132.817 189.585 133.927 189.585 135.421C189.585 136.914 190.622 138.024 192.188 138.024C193.101 138.024 193.9 137.568 194.273 136.852L195.31 137.443C194.709 138.501 193.526 139.186 192.188 139.186ZM199.214 133.73C200.376 133.73 201.206 134.518 201.206 135.867V139.051H200.086V135.981C200.086 135.192 199.629 134.778 198.924 134.778C198.188 134.778 197.607 135.213 197.607 136.271V139.051H196.487V131.79H197.607V134.529C197.949 133.989 198.509 133.73 199.214 133.73ZM206.727 133.865H207.847V139.051H206.727V138.304C206.332 138.854 205.721 139.186 204.912 139.186C203.501 139.186 202.329 137.993 202.329 136.458C202.329 134.912 203.501 133.73 204.912 133.73C205.721 133.73 206.332 134.062 206.727 134.601V133.865ZM205.088 138.117C206.021 138.117 206.727 137.422 206.727 136.458C206.727 135.493 206.021 134.798 205.088 134.798C204.154 134.798 203.449 135.493 203.449 136.458C203.449 137.422 204.154 138.117 205.088 138.117ZM209.92 133.087C209.526 133.087 209.204 132.755 209.204 132.371C209.204 131.977 209.526 131.656 209.92 131.656C210.314 131.656 210.636 131.977 210.636 132.371C210.636 132.755 210.314 133.087 209.92 133.087ZM209.36 139.051V133.865H210.48V139.051H209.36ZM214.716 133.73C215.877 133.73 216.707 134.518 216.707 135.867V139.051H215.587V135.981C215.587 135.192 215.131 134.778 214.425 134.778C213.689 134.778 213.108 135.213 213.108 136.271V139.051H211.988V133.865H213.108V134.529C213.45 133.989 214.011 133.73 214.716 133.73ZM225.267 135.286C225.879 135.607 226.283 136.199 226.283 136.976C226.283 138.18 225.309 139.051 224.105 139.051H220.994V131.79H223.877C225.049 131.79 226.003 132.641 226.003 133.803C226.003 134.435 225.723 134.954 225.267 135.286ZM223.877 132.911H222.187V134.819H223.877C224.406 134.819 224.811 134.404 224.811 133.865C224.811 133.326 224.406 132.911 223.877 132.911ZM224.105 137.931C224.665 137.931 225.091 137.485 225.091 136.914C225.091 136.344 224.665 135.898 224.105 135.898H222.187V137.931H224.105Z" fill="white"/>
<g clip-path="url(#clip8_540_714)">
<rect width="276" height="61" transform="translate(56 -97) rotate(90)" fill="url(#paint20_linear_540_714)"/>
<g opacity="0.1" clip-path="url(#clip9_540_714)">
<g clip-path="url(#clip10_540_714)">
<path fill-rule="evenodd" clip-rule="evenodd" d="M51.8535 68.4567C52.2584 68.2624 52.4411 67.7721 52.2619 67.3609L48.4649 58.6463C48.382 58.452 48.2605 58.2766 48.1077 58.1307C47.9549 57.9849 47.774 57.8716 47.5761 57.7979C47.3782 57.7241 47.1673 57.6914 46.9563 57.7017C46.7454 57.7119 46.5387 57.765 46.3489 57.8577L37.7117 61.9913C37.5178 62.0859 37.3672 62.2507 37.2905 62.4523C37.2138 62.654 37.2167 62.8772 37.2986 63.0768C37.339 63.1756 37.3992 63.265 37.4755 63.3396C37.5518 63.4141 37.6427 63.4722 37.7424 63.5103C37.8421 63.5483 37.9485 63.5655 38.0551 63.5607C38.1617 63.5559 38.2662 63.5293 38.3621 63.4825L46.2655 59.6986C46.3604 59.6522 46.4638 59.6256 46.5693 59.6205C46.6749 59.6153 46.7804 59.6317 46.8794 59.6686C46.9784 59.7055 47.0688 59.7621 47.1453 59.8351C47.2217 59.9081 47.2825 59.9958 47.3239 60.093L50.7959 68.0626C50.8372 68.1597 50.8979 68.2475 50.9743 68.3204C51.0506 68.3933 51.141 68.45 51.24 68.4868C51.3389 68.5237 51.4444 68.5401 51.5498 68.5349C51.6553 68.5297 51.7586 68.5031 51.8535 68.4567Z" fill="url(#paint21_linear_540_714)"/>
</g>
</g>
</g>
<rect width="419" height="51.9999" transform="translate(-26 130)" fill="url(#paint22_linear_540_714)"/>
<rect width="386.326" height="29.7174" transform="matrix(4.37114e-08 1 1 -4.37114e-08 356.608 -101.782)" fill="url(#paint23_linear_540_714)"/>
<rect width="386" height="41" transform="matrix(1 0 0 -1 0 22)" fill="url(#paint24_linear_540_714)"/>
</g>
<defs>
<filter id="filter0_f_540_714" x="0.765349" y="10.2701" width="391.33" height="140.08" filterUnits="userSpaceOnUse" color-interpolation-filters="sRGB">
<feFlood flood-opacity="0" result="BackgroundImageFix"/>
<feBlend mode="normal" in="SourceGraphic" in2="BackgroundImageFix" result="shape"/>
<feGaussianBlur stdDeviation="1.675" result="effect1_foregroundBlur_540_714"/>
</filter>
<radialGradient id="paint0_radial_540_714" cx="0" cy="0" r="1" gradientUnits="userSpaceOnUse" gradientTransform="translate(183.389 100.678) rotate(-179.374) scale(232.738 428.908)">
<stop stop-color="#261212"/>
<stop offset="1"/>
</radialGradient>
<linearGradient id="paint1_linear_540_714" x1="4.73547" y1="13" x2="585.313" y2="25.3177" gradientUnits="userSpaceOnUse">
<stop stop-color="#A76161"/>
<stop offset="0.224996" stop-color="#964C4C"/>
<stop offset="1" stop-color="#8A2828" stop-opacity="0"/>
</linearGradient>
<linearGradient id="paint2_linear_540_714" x1="1.01343" y1="145.709" x2="581.591" y2="133.391" gradientUnits="userSpaceOnUse">
<stop stop-color="#A76161"/>
<stop offset="0.224996" stop-color="#964C4C"/>
<stop offset="1" stop-color="#8A2828" stop-opacity="0"/>
</linearGradient>
<linearGradient id="paint3_linear_540_714" x1="108.958" y1="48.9814" x2="155.724" y2="49.0299" gradientUnits="userSpaceOnUse">
<stop stop-color="#A76161"/>
<stop offset="0.224996" stop-color="#964C4C"/>
<stop offset="1" stop-color="#8A2828" stop-opacity="0"/>
</linearGradient>
<linearGradient id="paint4_linear_540_714" x1="209.458" y1="48.9814" x2="256.224" y2="49.0341" gradientUnits="userSpaceOnUse">
<stop stop-color="#A76161"/>
<stop offset="0.224996" stop-color="#964C4C"/>
<stop offset="1" stop-color="#8A2828" stop-opacity="0"/>
</linearGradient>
<linearGradient id="paint5_linear_540_714" x1="290.224" y1="42.2617" x2="352.535" y2="30.0184" gradientUnits="userSpaceOnUse">
<stop stop-color="#A76161"/>
<stop offset="0.224996" stop-color="#964C4C"/>
<stop offset="1" stop-color="#8A2828" stop-opacity="0"/>
</linearGradient>
<linearGradient id="paint6_linear_540_714" x1="287.625" y1="48.9814" x2="246.471" y2="49.0183" gradientUnits="userSpaceOnUse">
<stop stop-color="#A76161"/>
<stop offset="0.224996" stop-color="#964C4C"/>
<stop offset="1" stop-color="#8A2828" stop-opacity="0"/>
</linearGradient>
<linearGradient id="paint7_linear_540_714" x1="190.847" y1="50.2217" x2="151.563" y2="50.2596" gradientUnits="userSpaceOnUse">
<stop stop-color="#A76161"/>
<stop offset="0.224996" stop-color="#964C4C"/>
<stop offset="1" stop-color="#8A2828" stop-opacity="0"/>
</linearGradient>
<linearGradient id="paint8_linear_540_714" x1="95.3099" y1="41.5371" x2="57.8969" y2="41.5649" gradientUnits="userSpaceOnUse">
<stop stop-color="#A76161"/>
<stop offset="0.224996" stop-color="#964C4C"/>
<stop offset="1" stop-color="#8A2828" stop-opacity="0"/>
</linearGradient>
<linearGradient id="paint9_linear_540_714" x1="380.68" y1="31.6113" x2="328.302" y2="31.6458" gradientUnits="userSpaceOnUse">
<stop stop-color="#A76161"/>
<stop offset="0.224996" stop-color="#964C4C"/>
<stop offset="1" stop-color="#8A2828" stop-opacity="0"/>
</linearGradient>
<linearGradient id="paint10_linear_540_714" x1="20.8652" y1="40.2959" x2="71.3729" y2="40.339" gradientUnits="userSpaceOnUse">
<stop stop-color="#A76161"/>
<stop offset="0.224996" stop-color="#964C4C"/>
<stop offset="1" stop-color="#8A2828" stop-opacity="0"/>
</linearGradient>
<linearGradient id="paint11_linear_540_714" x1="176.534" y1="94.6959" x2="191.504" y2="89.1167" gradientUnits="userSpaceOnUse">
<stop stop-color="#DD3B3B"/>
<stop offset="0.450746" stop-color="#E07F7F"/>
<stop offset="1" stop-color="#F85353"/>
</linearGradient>
<linearGradient id="paint12_linear_540_714" x1="237.736" y1="72.974" x2="222.303" y2="68.839" gradientUnits="userSpaceOnUse">
<stop stop-color="#DD3B3B"/>
<stop offset="0.450746" stop-color="#E07F7F"/>
<stop offset="1" stop-color="#F85353"/>
</linearGradient>
<linearGradient id="paint13_linear_540_714" x1="125.654" y1="60.5902" x2="140.625" y2="66.1695" gradientUnits="userSpaceOnUse">
<stop stop-color="#A63434"/>
<stop offset="0.450746" stop-color="#AF4747"/>
<stop offset="1" stop-color="#9E2A2A"/>
</linearGradient>
<linearGradient id="paint14_linear_540_714" x1="313.534" y1="63.1166" x2="328.504" y2="68.6958" gradientUnits="userSpaceOnUse">
<stop stop-color="#A63434"/>
<stop offset="0.450746" stop-color="#AF4747"/>
<stop offset="1" stop-color="#9E2A2A"/>
</linearGradient>
<linearGradient id="paint15_linear_540_714" x1="270.534" y1="94.6959" x2="285.504" y2="89.1167" gradientUnits="userSpaceOnUse">
<stop stop-color="#A63434"/>
<stop offset="0.450746" stop-color="#AF4747"/>
<stop offset="1" stop-color="#9E2A2A"/>
</linearGradient>
<linearGradient id="paint16_linear_540_714" x1="82.5336" y1="98.6959" x2="97.5044" y2="93.1167" gradientUnits="userSpaceOnUse">
<stop stop-color="#A63434"/>
<stop offset="0.450746" stop-color="#AF4747"/>
<stop offset="1" stop-color="#9E2A2A"/>
</linearGradient>
<linearGradient id="paint17_linear_540_714" x1="359.534" y1="101.696" x2="374.504" y2="96.1167" gradientUnits="userSpaceOnUse">
<stop stop-color="#A63434"/>
<stop offset="0.450746" stop-color="#AF4747"/>
<stop offset="1" stop-color="#9E2A2A"/>
</linearGradient>
<linearGradient id="paint18_linear_540_714" x1="131.739" y1="22.1627" x2="234.248" y2="20.4638" gradientUnits="userSpaceOnUse">
<stop stop-color="#894B4B"/>
<stop offset="0.556497" stop-color="#CD4F4F" stop-opacity="0.38"/>
<stop offset="1" stop-color="#7E4141"/>
</linearGradient>
<linearGradient id="paint19_linear_540_714" x1="131.873" y1="132.163" x2="233.263" y2="130.501" gradientUnits="userSpaceOnUse">
<stop stop-color="#894B4B"/>
<stop offset="0.556497" stop-color="#CD4F4F" stop-opacity="0.38"/>
<stop offset="1" stop-color="#7E4141"/>
</linearGradient>
<linearGradient id="paint20_linear_540_714" x1="149.412" y1="61" x2="146.499" y2="8.4994" gradientUnits="userSpaceOnUse">
<stop/>
<stop offset="1" stop-opacity="0"/>
</linearGradient>
<linearGradient id="paint21_linear_540_714" x1="38.5336" y1="59.1166" x2="53.5044" y2="64.6958" gradientUnits="userSpaceOnUse">
<stop stop-color="#DD3B3B"/>
<stop offset="0.450746" stop-color="#E07F7F"/>
<stop offset="1" stop-color="#F85353"/>
</linearGradient>
<linearGradient id="paint22_linear_540_714" x1="226.824" y1="51.9999" x2="225.427" y2="7.15115" gradientUnits="userSpaceOnUse">
<stop/>
<stop offset="1" stop-opacity="0"/>
</linearGradient>
<linearGradient id="paint23_linear_540_714" x1="209.136" y1="29.7174" x2="209.08" y2="2.39304" gradientUnits="userSpaceOnUse">
<stop/>
<stop offset="1" stop-opacity="0"/>
</linearGradient>
<linearGradient id="paint24_linear_540_714" x1="208.96" y1="41" x2="207.084" y2="-2.8434" gradientUnits="userSpaceOnUse">
<stop/>
<stop offset="1" stop-opacity="0"/>
</linearGradient>
<clipPath id="clip0_540_714">
<rect width="385" height="180" fill="white"/>
</clipPath>
<clipPath id="clip1_540_714">
<rect width="8.78671" height="15.9758" fill="white" transform="matrix(0.349214 0.937043 0.937043 -0.349214 175 90.5791)"/>
</clipPath>
<clipPath id="clip2_540_714">
<rect width="8.78671" height="15.9758" fill="white" transform="matrix(0.258819 -0.965926 -0.965926 -0.258819 236.598 77.2168)"/>
</clipPath>
<clipPath id="clip3_540_714">
<rect width="8.78671" height="15.9758" fill="white" transform="translate(124.12 64.707) rotate(-69.5607)"/>
</clipPath>
<clipPath id="clip4_540_714">
<rect width="8.78671" height="15.9758" fill="white" transform="translate(312 67.2334) rotate(-69.5607)"/>
</clipPath>
<clipPath id="clip5_540_714">
<rect width="8.78671" height="15.9758" fill="white" transform="matrix(0.349214 0.937043 0.937043 -0.349214 269 90.5791)"/>
</clipPath>
<clipPath id="clip6_540_714">
<rect width="8.78671" height="15.9758" fill="white" transform="matrix(0.349214 0.937043 0.937043 -0.349214 81 94.5791)"/>
</clipPath>
<clipPath id="clip7_540_714">
<rect width="8.78671" height="15.9758" fill="white" transform="matrix(0.349214 0.937043 0.937043 -0.349214 358 97.5791)"/>
</clipPath>
<clipPath id="clip8_540_714">
<rect width="276" height="61" fill="white" transform="translate(56 -97) rotate(90)"/>
</clipPath>
<clipPath id="clip9_540_714">
<rect width="21" height="21" fill="white" transform="translate(53.2847 75.7197) rotate(-165)"/>
</clipPath>
<clipPath id="clip10_540_714">
<rect width="8.78671" height="15.9758" fill="white" transform="translate(37 63.2334) rotate(-69.5607)"/>
</clipPath>
</defs>
</svg>
