<svg width="2061" height="879" viewBox="0 0 2061 879" fill="none" xmlns="http://www.w3.org/2000/svg">
<rect x="0.5" y="0.5" width="2060" height="878" rx="48.5" fill="black"/>
<rect x="0.5" y="0.5" width="2060" height="878" rx="48.5" stroke="#2E2E2E"/>
<path d="M1296 621L1642 621" stroke="#864141" strokeWidth="3" strokeDasharray="6 6"/>
<path d="M1296 621L1642 621" stroke="url(#paint0_linear_439_101)" strokeWidth="3" strokeDasharray="6 6"/>
<rect width="181" height="52" transform="translate(792 518)" fill="black"/>
<path d="M826.52 538.42H822.52V550H820.7V538.42H816.7V536.66H826.52V538.42ZM840.791 550H838.591L834.791 544.52C834.691 544.4 834.571 544.34 834.451 544.34H831.811V550H829.991V536.66H837.251C837.631 536.66 837.951 536.8 838.211 537.06L839.391 538.24C839.671 538.52 839.831 538.84 839.831 539.24V541.76C839.831 542.16 839.671 542.5 839.411 542.76L838.231 543.94C837.971 544.2 837.631 544.34 837.271 544.34H836.771L840.791 550ZM837.991 541.52L838.011 539.48C838.011 539.36 837.951 539.26 837.891 539.2L837.231 538.54C837.151 538.46 837.071 538.42 836.951 538.42H831.811V542.58H836.931C837.051 542.58 837.151 542.54 837.211 542.46L837.871 541.8C837.951 541.72 837.991 541.64 837.991 541.52ZM855.525 550H853.665L852.305 546.42H846.325L844.965 550H843.145L848.145 536.66H850.545L855.525 550ZM851.645 544.74L849.325 538.3L846.965 544.74H851.645ZM868.294 547.7L866.414 549.58C866.134 549.86 865.794 550 865.414 550H861.514C861.134 550 860.794 549.86 860.514 549.58L858.874 547.94C858.594 547.66 858.454 547.32 858.454 546.94V539.72C858.454 539.34 858.594 539 858.874 538.72L860.514 537.08C860.794 536.8 861.134 536.66 861.514 536.66H865.414C865.794 536.66 866.134 536.8 866.414 537.08L868.294 538.96L867.054 540.2L865.394 538.54C865.314 538.46 865.234 538.42 865.114 538.42H861.814C861.694 538.42 861.614 538.46 861.534 538.54L860.394 539.68C860.314 539.76 860.274 539.86 860.274 539.96V546.7C860.274 546.8 860.314 546.9 860.394 546.98L861.534 548.12C861.614 548.2 861.694 548.24 861.814 548.24H865.114C865.234 548.24 865.314 548.2 865.394 548.12L867.034 546.46L868.294 547.7ZM880.67 550H872.05V536.66H880.67V538.42H873.87V542.44H880.67V544.2H873.87V548.24H880.67V550ZM895.483 546.94C895.483 547.32 895.323 547.66 895.063 547.94L893.423 549.58C893.143 549.86 892.783 550 892.423 550H887.303C886.923 550 886.583 549.86 886.303 549.58L884.423 547.7L885.663 546.46L887.323 548.12C887.403 548.2 887.483 548.24 887.603 548.24H892.103C892.223 548.24 892.323 548.2 892.383 548.12L893.523 546.98C893.603 546.9 893.663 546.8 893.663 546.7V545.06C893.663 544.84 893.463 544.68 893.283 544.66L885.743 543.68C885.003 543.58 884.423 542.94 884.423 542.2V539.72C884.423 539.34 884.563 539 884.843 538.72L886.483 537.08C886.763 536.8 887.103 536.66 887.483 536.66H892.583C892.963 536.66 893.323 536.8 893.583 537.08L895.483 538.96L894.243 540.2L892.583 538.54C892.503 538.46 892.403 538.42 892.303 538.42H887.783C887.663 538.42 887.583 538.46 887.503 538.54L886.363 539.68C886.283 539.76 886.243 539.86 886.243 539.96V541.6C886.243 541.8 886.403 541.98 886.603 542L894.163 542.98C894.903 543.08 895.483 543.72 895.483 544.46V546.94Z" fill="#E45D5D"/>
<path d="M303 685L303 566" stroke="#864141" strokeWidth="3" strokeDasharray="6 6"/>
<path d="M303 685L303 566" stroke="url(#paint1_linear_439_101)" strokeWidth="3" strokeDasharray="6 6"/>
<path d="M303 685L303 566" stroke="#864141" strokeWidth="3" strokeDasharray="6 6"/>
<path d="M303 427L303 308" stroke="#864141" strokeWidth="3" strokeDasharray="6 6"/>
<path d="M303 685L303 566" stroke="url(#paint2_linear_439_101)" strokeWidth="3" strokeDasharray="6 6"/>
<path d="M303 427L303 308" stroke="url(#paint3_linear_439_101)" strokeWidth="3" strokeDasharray="6 6"/>
<path d="M54 209H254.5" stroke="#864141" strokeWidth="3" strokeDasharray="6 6"/>
<path d="M54 209H254.5" stroke="url(#paint4_linear_439_101)" strokeWidth="3" strokeDasharray="6 6"/>
<path d="M553 290H767.719V579H958" stroke="#864141" strokeWidth="3" strokeDasharray="6 6"/>
<path d="M553 290H767.719V579H958" stroke="url(#paint5_linear_439_101)" strokeWidth="3" strokeDasharray="6 6"/>
<rect x="255.5" y="687.5" width="351" height="131" rx="8.5" fill="#131313"/>
<rect x="255.5" y="687.5" width="351" height="131" rx="8.5" stroke="#434141" strokeWidth="3"/>
<path d="M351.408 762H349.272V748.032L344.736 762H342.528L338.016 748.032V762H335.856V745.992H339.432L343.632 759L347.832 745.992H351.408V762ZM370.434 762H368.202L366.57 757.704H359.394L357.762 762H355.578L361.578 745.992H364.458L370.434 762ZM365.778 755.688L362.994 747.96L360.162 755.688H365.778ZM386.429 758.328C386.429 758.784 386.237 759.192 385.925 759.528L383.957 761.496C383.621 761.832 383.189 762 382.757 762H374.621V745.992H382.733C383.189 745.992 383.621 746.16 383.933 746.496L385.901 748.464C386.237 748.8 386.429 749.208 386.429 749.664V758.328ZM384.221 758.04L384.245 749.952C384.245 749.832 384.173 749.712 384.101 749.616L382.733 748.248C382.637 748.152 382.517 748.104 382.397 748.104H376.805V759.888H382.373C382.517 759.888 382.637 759.84 382.709 759.744L384.077 758.376C384.173 758.28 384.221 758.16 384.221 758.04ZM404.792 762H402.56L400.928 757.704H393.752L392.12 762H389.936L395.936 745.992H398.816L404.792 762ZM400.136 755.688L397.352 747.96L394.52 755.688H400.136ZM421.939 762H419.299L414.739 755.424C414.619 755.28 414.475 755.208 414.331 755.208H411.163V762H408.979V745.992H417.691C418.147 745.992 418.531 746.16 418.843 746.472L420.259 747.888C420.595 748.224 420.787 748.608 420.787 749.088V752.112C420.787 752.592 420.595 753 420.283 753.312L418.867 754.728C418.555 755.04 418.147 755.208 417.715 755.208H417.115L421.939 762ZM418.579 751.824L418.603 749.376C418.603 749.232 418.531 749.112 418.459 749.04L417.667 748.248C417.571 748.152 417.475 748.104 417.331 748.104H411.163V753.096H417.307C417.451 753.096 417.571 753.048 417.643 752.952L418.435 752.16C418.531 752.064 418.579 751.968 418.579 751.824ZM439.619 762H437.387L435.755 757.704H428.579L426.947 762H424.763L430.763 745.992H433.643L439.619 762ZM434.963 755.688L432.179 747.96L429.347 755.688H434.963ZM462.711 759.24L460.455 761.496C460.119 761.832 459.711 762 459.255 762H454.575C454.119 762 453.711 761.832 453.375 761.496L451.407 759.528C451.071 759.192 450.903 758.784 450.903 758.328V749.664C450.903 749.208 451.071 748.8 451.407 748.464L453.375 746.496C453.711 746.16 454.119 745.992 454.575 745.992H459.255C459.711 745.992 460.119 746.16 460.455 746.496L462.711 748.752L461.223 750.24L459.231 748.248C459.135 748.152 459.039 748.104 458.895 748.104H454.935C454.791 748.104 454.695 748.152 454.599 748.248L453.231 749.616C453.135 749.712 453.087 749.832 453.087 749.952V758.04C453.087 758.16 453.135 758.28 453.231 758.376L454.599 759.744C454.695 759.84 454.791 759.888 454.935 759.888H458.895C459.039 759.888 459.135 759.84 459.231 759.744L461.199 757.752L462.711 759.24ZM479.027 762H476.843V755.04H469.403V762H467.219V745.992H469.403V752.928H476.819V745.992H479.027V762ZM498.071 762H495.839L494.207 757.704H487.031L485.399 762H483.215L489.215 745.992H492.095L498.071 762ZM493.415 755.688L490.631 747.96L487.799 755.688H493.415ZM508.714 762H500.578V760.032H503.554V747.96H500.578V745.992H508.714V747.96H505.738V760.032H508.714V762ZM525.022 762H521.758L515.374 748.488V762H513.214V745.992H516.478L522.862 759.504V745.992H525.022V762Z" fill="white"/>
<g clipPath="url(#clip0_439_101)">
<rect x="254" y="45" width="354" height="301" rx="10" fill="#0D0D0D"/>
<g clipPath="url(#clip1_439_101)">
<rect x="254" y="45" width="354" height="301" rx="10" fill="#131313"/>
<path d="M254.5 170.5H182V213.5H75" stroke="#FFFDFD" strokeWidth="5"/>
</g>
<rect x="255.5" y="46.5" width="351" height="298" rx="8.5" stroke="#434141" strokeWidth="3"/>
<rect x="285" y="135" width="289" height="73" rx="11" fill="#5E1D1D" fillOpacity="0.56"/>
<rect x="285" y="135" width="289" height="73" rx="11" stroke="url(#paint6_linear_439_101)" strokeWidth="2"/>
<path d="M380.568 178.182C378.738 178.182 377.338 177.739 376.368 176.855C375.41 175.958 374.931 174.661 374.931 172.964V168.564C374.931 166.842 375.416 165.533 376.386 164.636C377.356 163.727 378.756 163.273 380.586 163.273C382.319 163.273 383.665 163.673 384.622 164.473C385.592 165.261 386.119 166.503 386.204 168.2L384.386 168.382C384.277 167.048 383.925 166.139 383.331 165.655C382.738 165.158 381.816 164.909 380.568 164.909C379.21 164.909 378.234 165.194 377.641 165.764C377.047 166.333 376.75 167.267 376.75 168.564V172.964C376.75 174.236 377.047 175.152 377.641 175.709C378.234 176.267 379.21 176.545 380.568 176.545C381.901 176.545 382.865 176.285 383.459 175.764C384.065 175.23 384.374 174.358 384.386 173.145L386.204 173.327C386.204 174.903 385.719 176.109 384.75 176.945C383.792 177.77 382.398 178.182 380.568 178.182ZM397.446 172.182L394.919 165.273L392.373 172.182H397.446ZM399.573 178L398.046 173.818H391.773L390.246 178H388.391L393.991 163.455H395.9L401.5 178H399.573ZM404.033 178V176.364H407.669V165.091H404.033V163.455H413.124V165.091H409.488V176.364H413.124V178H404.033ZM418.586 170.764H423.131C424.113 170.764 424.81 170.582 425.222 170.218C425.646 169.855 425.858 169.255 425.858 168.418V167.291C425.858 166.503 425.646 165.939 425.222 165.6C424.81 165.261 424.113 165.091 423.131 165.091H418.586V170.764ZM418.586 178H416.767V163.455H423.149C424.664 163.455 425.798 163.776 426.549 164.418C427.301 165.048 427.676 166.006 427.676 167.291V168.418C427.676 169.57 427.38 170.467 426.786 171.109C426.204 171.752 425.313 172.152 424.113 172.309L427.84 178H425.767L422.076 172.364H418.586V178ZM436.773 178.182C434.967 178.182 433.603 177.745 432.682 176.873C431.773 176 431.318 174.697 431.318 172.964V168.564C431.318 166.806 431.779 165.485 432.7 164.6C433.621 163.715 434.985 163.273 436.791 163.273C438.597 163.273 439.955 163.715 440.864 164.6C441.773 165.485 442.227 166.806 442.227 168.564V172.964C442.227 174.697 441.767 176 440.845 176.873C439.936 177.745 438.579 178.182 436.773 178.182ZM436.773 176.545C438.082 176.545 439.015 176.273 439.573 175.727C440.13 175.17 440.409 174.248 440.409 172.964V168.564C440.409 167.255 440.13 166.321 439.573 165.764C439.015 165.194 438.082 164.909 436.773 164.909C435.464 164.909 434.53 165.194 433.973 165.764C433.415 166.321 433.136 167.255 433.136 168.564V172.964C433.136 174.248 433.415 175.17 433.973 175.727C434.53 176.273 435.464 176.545 436.773 176.545ZM463.205 178H461.296L455.696 163.455H457.66L462.278 175.964L466.896 163.455H468.805L463.205 178ZM476.592 174.364L473.065 165.545V178H471.338V163.455H474.065L477.774 172.855L481.465 163.455H484.065V178H482.338V165.564L478.81 174.364H476.592Z" fill="white"/>
<rect x="285" y="239" width="289" height="73" rx="11" fill="url(#paint7_radial_439_101)" fillOpacity="0.56"/>
<rect x="285" y="239" width="289" height="73" rx="11" stroke="#404040" strokeWidth="2"/>
<path d="M344.006 275.091V282H342.187V267.455H344.006V273.455H344.624L350.242 267.455H352.351L346.115 274.145L352.296 282H350.115L344.678 275.091H344.006ZM362.885 276.182L360.358 269.273L357.813 276.182H362.885ZM365.013 282L363.485 277.818H357.213L355.685 282H353.831L359.431 267.455H361.34L366.94 282H365.013ZM371.291 275.091V282H369.472V267.455H371.291V273.455H371.909L377.527 267.455H379.636L373.4 274.145L379.582 282H377.4L371.963 275.091H371.291ZM390.17 276.182L387.643 269.273L385.098 276.182H390.17ZM392.298 282L390.77 277.818H384.498L382.97 282H381.116L386.716 267.455H388.625L394.225 282H392.298ZM398.576 274.764H403.121C404.103 274.764 404.8 274.582 405.212 274.218C405.636 273.855 405.849 273.255 405.849 272.418V271.291C405.849 270.503 405.636 269.939 405.212 269.6C404.8 269.261 404.103 269.091 403.121 269.091H398.576V274.764ZM398.576 282H396.758V267.455H403.139C404.655 267.455 405.788 267.776 406.539 268.418C407.291 269.048 407.667 270.006 407.667 271.291V272.418C407.667 273.57 407.37 274.467 406.776 275.109C406.194 275.752 405.303 276.152 404.103 276.309L407.83 282H405.758L402.067 276.364H398.576V282ZM416.763 282.182C414.957 282.182 413.593 281.745 412.672 280.873C411.763 280 411.308 278.697 411.308 276.964V272.564C411.308 270.806 411.769 269.485 412.69 268.6C413.611 267.715 414.975 267.273 416.781 267.273C418.587 267.273 419.945 267.715 420.854 268.6C421.763 269.485 422.218 270.806 422.218 272.564V276.964C422.218 278.697 421.757 280 420.836 280.873C419.927 281.745 418.569 282.182 416.763 282.182ZM416.763 280.545C418.072 280.545 419.005 280.273 419.563 279.727C420.121 279.17 420.399 278.248 420.399 276.964V272.564C420.399 271.255 420.121 270.321 419.563 269.764C419.005 269.194 418.072 268.909 416.763 268.909C415.454 268.909 414.521 269.194 413.963 269.764C413.405 270.321 413.127 271.255 413.127 272.564V276.964C413.127 278.248 413.405 279.17 413.963 279.727C414.521 280.273 415.454 280.545 416.763 280.545ZM429.496 282V269.091H424.95V267.455H435.859V269.091H431.314V282H429.496ZM460.421 282H449.512V280.364L458.239 269.091H449.512V267.455H460.421V269.091L451.693 280.364H460.421V282ZM465.881 275.091V282H464.062V267.455H465.881V273.455H466.499L472.117 267.455H474.226L467.99 274.145L474.171 282H471.99L466.553 275.091H465.881ZM476.797 282V267.455H486.251V269.091H478.615V273.273H485.342V274.909H478.615V280.364H486.251V282H476.797ZM495.949 282H494.04L488.44 267.455H490.404L495.022 279.964L499.64 267.455H501.549L495.949 282ZM509.336 278.364L505.809 269.545V282H504.082V267.455H506.809L510.518 276.855L514.209 267.455H516.809V282H515.082V269.564L511.555 278.364H509.336Z" fill="white"/>
<g filter="url(#filter0_d_439_101)">
<path d="M545.145 99.6366L587.299 36.1329C592.66 28.058 586.731 17.2885 577.041 17.4992L281.276 23.9298C271.338 24.1459 265.957 35.6582 272.164 43.4214L317.803 100.494C320.08 103.342 323.529 105 327.175 105H535.148C539.168 105 542.922 102.986 545.145 99.6366Z" fill="url(#paint8_radial_439_101)" fillOpacity="0.56" shapeRendering="crispEdges"/>
<path d="M586.466 35.5799L544.312 99.0835C542.274 102.154 538.833 104 535.148 104H327.175C323.833 104 320.672 102.48 318.584 99.8698L272.945 42.7968C267.255 35.6806 272.188 25.1276 281.297 24.9296L577.063 18.499C585.945 18.3058 591.38 28.1779 586.466 35.5799Z" stroke="#404040" strokeWidth="2" shapeRendering="crispEdges"/>
</g>
<path d="M332.848 64.992L327.28 73.92V81H325.096V73.92L319.504 64.992H321.952L326.2 71.784L330.448 64.992H332.848ZM349.28 77.328C349.28 77.784 349.088 78.192 348.776 78.528L346.808 80.496C346.472 80.832 346.04 81 345.608 81H339.68C339.224 81 338.816 80.832 338.48 80.496L336.512 78.528C336.176 78.192 336.008 77.784 336.008 77.328V68.664C336.008 68.208 336.176 67.8 336.512 67.464L338.48 65.496C338.816 65.16 339.224 64.992 339.68 64.992H345.584C346.04 64.992 346.472 65.16 346.784 65.496L348.752 67.464C349.088 67.8 349.28 68.208 349.28 68.664V77.328ZM347.072 77.04L347.096 68.952C347.096 68.832 347.024 68.712 346.952 68.616L345.584 67.248C345.488 67.152 345.368 67.104 345.248 67.104H340.04C339.896 67.104 339.8 67.152 339.704 67.248L338.336 68.616C338.24 68.712 338.192 68.832 338.192 68.952V77.04C338.192 77.16 338.24 77.28 338.336 77.376L339.704 78.744C339.8 78.84 339.896 78.888 340.04 78.888H345.224C345.368 78.888 345.488 78.84 345.56 78.744L346.928 77.376C347.024 77.28 347.072 77.16 347.072 77.04ZM366.28 77.328C366.28 77.784 366.088 78.192 365.776 78.528L363.808 80.496C363.472 80.832 363.04 81 362.608 81H358.144C357.688 81 357.28 80.832 356.944 80.496L354.976 78.528C354.64 78.192 354.472 77.784 354.472 77.328V64.992H356.656V77.04C356.656 77.16 356.704 77.28 356.8 77.376L358.168 78.744C358.264 78.84 358.36 78.888 358.504 78.888H362.224C362.368 78.888 362.488 78.84 362.56 78.744L363.928 77.376C364.024 77.28 364.072 77.16 364.072 77.04V64.992H366.28V77.328ZM385.1 81H382.46L377.9 74.424C377.78 74.28 377.636 74.208 377.492 74.208H374.324V81H372.14V64.992H380.852C381.308 64.992 381.692 65.16 382.004 65.472L383.42 66.888C383.756 67.224 383.948 67.608 383.948 68.088V71.112C383.948 71.592 383.756 72 383.444 72.312L382.028 73.728C381.716 74.04 381.308 74.208 380.876 74.208H380.276L385.1 81ZM381.74 70.824L381.764 68.376C381.764 68.232 381.692 68.112 381.62 68.04L380.828 67.248C380.732 67.152 380.636 67.104 380.492 67.104H374.324V72.096H380.468C380.612 72.096 380.732 72.048 380.804 71.952L381.596 71.16C381.692 71.064 381.74 70.968 381.74 70.824ZM399.084 88.56H387.084V86.664H399.084V88.56ZM415.26 81H413.028L411.396 76.704H404.22L402.588 81H400.404L406.404 64.992H409.284L415.26 81ZM410.604 74.688L407.82 66.96L404.988 74.688H410.604ZM431.255 71.112C431.255 71.592 431.063 72 430.751 72.312L429.335 73.728C429.023 74.04 428.615 74.208 428.183 74.208H421.631V81H419.447V64.992H428.159C428.615 64.992 428.999 65.16 429.311 65.472L430.727 66.888C431.063 67.224 431.255 67.608 431.255 68.088V71.112ZM429.047 70.824L429.071 68.376C429.071 68.232 428.999 68.112 428.927 68.04L428.135 67.248C428.039 67.152 427.943 67.104 427.799 67.104H421.631V72.096H427.775C427.919 72.096 428.039 72.048 428.111 71.952L428.903 71.16C428.999 71.064 429.047 70.968 429.047 70.824ZM447.649 71.112C447.649 71.592 447.457 72 447.145 72.312L445.729 73.728C445.417 74.04 445.009 74.208 444.577 74.208H438.025V81H435.841V64.992H444.553C445.009 64.992 445.393 65.16 445.705 65.472L447.121 66.888C447.457 67.224 447.649 67.608 447.649 68.088V71.112ZM445.441 70.824L445.465 68.376C445.465 68.232 445.393 68.112 445.321 68.04L444.529 67.248C444.433 67.152 444.337 67.104 444.193 67.104H438.025V72.096H444.169C444.313 72.096 444.433 72.048 444.505 71.952L445.297 71.16C445.393 71.064 445.441 70.968 445.441 70.824ZM461.379 88.56H449.379V86.664H461.379V88.56ZM475.851 78.24L473.595 80.496C473.259 80.832 472.851 81 472.395 81H467.715C467.259 81 466.851 80.832 466.515 80.496L464.547 78.528C464.211 78.192 464.043 77.784 464.043 77.328V68.664C464.043 68.208 464.211 67.8 464.547 67.464L466.515 65.496C466.851 65.16 467.259 64.992 467.715 64.992H472.395C472.851 64.992 473.259 65.16 473.595 65.496L475.851 67.752L474.363 69.24L472.371 67.248C472.275 67.152 472.179 67.104 472.035 67.104H468.075C467.931 67.104 467.835 67.152 467.739 67.248L466.371 68.616C466.275 68.712 466.227 68.832 466.227 68.952V77.04C466.227 77.16 466.275 77.28 466.371 77.376L467.739 78.744C467.835 78.84 467.931 78.888 468.075 78.888H472.035C472.179 78.888 472.275 78.84 472.371 78.744L474.339 76.752L475.851 78.24ZM492.167 81H489.983V74.04H482.543V81H480.359V64.992H482.543V71.928H489.959V64.992H492.167V81ZM511.21 81H508.978L507.346 76.704H500.17L498.538 81H496.354L502.354 64.992H505.234L511.21 81ZM506.554 74.688L503.77 66.96L500.938 74.688H506.554ZM521.853 81H513.717V79.032H516.693V66.96H513.717V64.992H521.853V66.96H518.877V79.032H521.853V81ZM538.162 81H534.898L528.514 67.488V81H526.354V64.992H529.618L536.002 78.504V64.992H538.162V81Z" fill="#FF6B6B"/>
</g>
<rect x="255.5" y="46.5" width="351" height="298" rx="8.5" stroke="#434141" strokeWidth="3"/>
<g clipPath="url(#clip2_439_101)">
<rect x="958" y="441" width="354" height="284" rx="10" fill="#131313"/>
<g filter="url(#filter1_d_439_101)">
<path d="M1213.16 490.339L1241.31 426.457C1244.87 418.37 1238.77 409.335 1229.93 409.624L1039.23 415.87C1030.35 416.161 1024.86 425.65 1029.02 433.491L1059.62 491.127C1061.7 495.048 1065.78 497.5 1070.22 497.5H1202.17C1206.93 497.5 1211.24 494.691 1213.16 490.339Z" fill="url(#paint9_radial_439_101)" fillOpacity="0.56" shapeRendering="crispEdges"/>
<path d="M1240.39 426.054L1212.24 489.936C1210.48 493.925 1206.53 496.5 1202.17 496.5H1070.22C1066.15 496.5 1062.41 494.253 1060.5 490.658L1029.9 433.022C1026.09 425.835 1031.13 417.136 1039.26 416.87L1229.97 410.624C1238.06 410.359 1243.66 418.641 1240.39 426.054Z" stroke="#404040" strokeWidth="2" shapeRendering="crispEdges"/>
</g>
<path d="M1098.66 467.112C1098.66 467.592 1098.47 468 1098.16 468.312L1096.74 469.728C1096.43 470.04 1096.02 470.208 1095.59 470.208H1089.04V477H1086.86V460.992H1095.57C1096.02 460.992 1096.41 461.16 1096.72 461.472L1098.14 462.888C1098.47 463.224 1098.66 463.608 1098.66 464.088V467.112ZM1096.46 466.824L1096.48 464.376C1096.48 464.232 1096.41 464.112 1096.34 464.04L1095.54 463.248C1095.45 463.152 1095.35 463.104 1095.21 463.104H1089.04V468.096H1095.18C1095.33 468.096 1095.45 468.048 1095.52 467.952L1096.31 467.16C1096.41 467.064 1096.46 466.968 1096.46 466.824ZM1116.21 477H1113.57L1109.01 470.424C1108.89 470.28 1108.75 470.208 1108.6 470.208H1105.43V477H1103.25V460.992H1111.96C1112.42 460.992 1112.8 461.16 1113.11 461.472L1114.53 462.888C1114.87 463.224 1115.06 463.608 1115.06 464.088V467.112C1115.06 467.592 1114.87 468 1114.55 468.312L1113.14 469.728C1112.83 470.04 1112.42 470.208 1111.99 470.208H1111.39L1116.21 477ZM1112.85 466.824L1112.87 464.376C1112.87 464.232 1112.8 464.112 1112.73 464.04L1111.94 463.248C1111.84 463.152 1111.75 463.104 1111.6 463.104H1105.43V468.096H1111.58C1111.72 468.096 1111.84 468.048 1111.91 467.952L1112.71 467.16C1112.8 467.064 1112.85 466.968 1112.85 466.824ZM1133.65 473.328C1133.65 473.784 1133.46 474.192 1133.15 474.528L1131.18 476.496C1130.84 476.832 1130.41 477 1129.98 477H1124.05C1123.59 477 1123.19 476.832 1122.85 476.496L1120.88 474.528C1120.55 474.192 1120.38 473.784 1120.38 473.328V464.664C1120.38 464.208 1120.55 463.8 1120.88 463.464L1122.85 461.496C1123.19 461.16 1123.59 460.992 1124.05 460.992H1129.95C1130.41 460.992 1130.84 461.16 1131.15 461.496L1133.12 463.464C1133.46 463.8 1133.65 464.208 1133.65 464.664V473.328ZM1131.44 473.04L1131.47 464.952C1131.47 464.832 1131.39 464.712 1131.32 464.616L1129.95 463.248C1129.86 463.152 1129.74 463.104 1129.62 463.104H1124.41C1124.27 463.104 1124.17 463.152 1124.07 463.248L1122.71 464.616C1122.61 464.712 1122.56 464.832 1122.56 464.952V473.04C1122.56 473.16 1122.61 473.28 1122.71 473.376L1124.07 474.744C1124.17 474.84 1124.27 474.888 1124.41 474.888H1129.59C1129.74 474.888 1129.86 474.84 1129.93 474.744L1131.3 473.376C1131.39 473.28 1131.44 473.16 1131.44 473.04ZM1150.31 460.992L1145.01 477H1142.11L1136.83 460.992H1139.06L1143.59 474.984L1148.13 460.992H1150.31ZM1164.49 477H1154.14V460.992H1164.49V463.104H1156.33V467.928H1164.49V470.04H1156.33V474.888H1164.49V477ZM1182.96 477H1180.32L1175.76 470.424C1175.64 470.28 1175.49 470.208 1175.35 470.208H1172.18V477H1170V460.992H1178.71C1179.17 460.992 1179.55 461.16 1179.86 461.472L1181.28 462.888C1181.61 463.224 1181.81 463.608 1181.81 464.088V467.112C1181.81 467.592 1181.61 468 1181.3 468.312L1179.89 469.728C1179.57 470.04 1179.17 470.208 1178.73 470.208H1178.13L1182.96 477ZM1179.6 466.824L1179.62 464.376C1179.62 464.232 1179.55 464.112 1179.48 464.04L1178.69 463.248C1178.59 463.152 1178.49 463.104 1178.35 463.104H1172.18V468.096H1178.33C1178.47 468.096 1178.59 468.048 1178.66 467.952L1179.45 467.16C1179.55 467.064 1179.6 466.968 1179.6 466.824Z" fill="#FF6B6B"/>
</g>
<rect x="959.5" y="442.5" width="351" height="281" rx="8.5" stroke="#434141" strokeWidth="3"/>
<rect x="989" y="521" width="289" height="73" rx="11" fill="#5E1D1D" fillOpacity="0.56"/>
<rect x="989" y="521" width="289" height="73" rx="11" stroke="url(#paint10_linear_439_101)" strokeWidth="2"/>
<path d="M1106.39 564.109C1104.99 564.109 1103.79 563.855 1102.81 563.345C1101.84 562.836 1101.1 561.867 1100.58 560.436L1102.27 559.764C1102.64 560.794 1103.14 561.503 1103.76 561.891C1104.39 562.279 1105.3 562.473 1106.5 562.473C1107.56 562.473 1108.41 562.279 1109.07 561.891C1109.72 561.503 1110.05 560.861 1110.05 559.964C1110.05 559.139 1109.76 558.564 1109.18 558.236C1108.61 557.897 1107.58 557.612 1106.08 557.382C1104.22 557.103 1102.91 556.667 1102.16 556.073C1101.42 555.479 1101.05 554.582 1101.05 553.382C1101.05 552.145 1101.5 551.17 1102.39 550.455C1103.29 549.739 1104.52 549.382 1106.07 549.382C1107.47 549.382 1108.63 549.624 1109.54 550.109C1110.45 550.582 1111.13 551.442 1111.59 552.691L1109.9 553.364C1109.59 552.491 1109.1 551.885 1108.43 551.545C1107.76 551.194 1106.94 551.018 1105.96 551.018C1105.04 551.018 1104.29 551.182 1103.72 551.509C1103.16 551.836 1102.88 552.406 1102.88 553.218C1102.88 554.042 1103.19 554.612 1103.79 554.927C1104.4 555.242 1105.49 555.515 1107.07 555.745C1108.84 556.012 1110.08 556.436 1110.79 557.018C1111.51 557.6 1111.87 558.479 1111.87 559.655C1111.87 561.036 1111.38 562.127 1110.39 562.927C1109.42 563.715 1108.09 564.109 1106.39 564.109ZM1118.94 564V551.091H1114.4V549.455H1125.31V551.091H1120.76V564H1118.94ZM1133.5 564.182C1131.69 564.182 1130.33 563.745 1129.41 562.873C1128.5 562 1128.04 560.697 1128.04 558.964V554.564C1128.04 552.806 1128.5 551.485 1129.42 550.6C1130.35 549.715 1131.71 549.273 1133.52 549.273C1135.32 549.273 1136.68 549.715 1137.59 550.6C1138.5 551.485 1138.95 552.806 1138.95 554.564V558.964C1138.95 560.697 1138.49 562 1137.57 562.873C1136.66 563.745 1135.3 564.182 1133.5 564.182ZM1133.5 562.545C1134.81 562.545 1135.74 562.273 1136.3 561.727C1136.85 561.17 1137.13 560.248 1137.13 558.964V554.564C1137.13 553.255 1136.85 552.321 1136.3 551.764C1135.74 551.194 1134.81 550.909 1133.5 550.909C1132.19 550.909 1131.25 551.194 1130.7 551.764C1130.14 552.321 1129.86 553.255 1129.86 554.564V558.964C1129.86 560.248 1130.14 561.17 1130.7 561.727C1131.25 562.273 1132.19 562.545 1133.5 562.545ZM1150.9 564L1144.32 551.891V564H1142.59V549.455H1145.08L1151.78 561.8V549.455H1153.5V564H1150.9ZM1157.14 564V549.455H1166.6V551.091H1158.96V555.273H1165.69V556.909H1158.96V562.364H1166.6V564H1157.14Z" fill="white"/>
<rect x="989" y="625" width="289" height="73" rx="11" fill="url(#paint11_radial_439_101)" fillOpacity="0.56"/>
<rect x="989" y="625" width="289" height="73" rx="11" stroke="#404040" strokeWidth="2"/>
<path d="M1081.21 668V653.455H1086.32C1087.78 653.455 1088.9 653.782 1089.68 654.436C1090.46 655.091 1090.84 656.042 1090.84 657.291V659.073C1090.84 660.321 1090.46 661.273 1089.68 661.927C1088.9 662.582 1087.78 662.909 1086.3 662.909H1083.03V668H1081.21ZM1083.03 661.309H1086.3C1087.27 661.309 1087.96 661.133 1088.39 660.782C1088.81 660.418 1089.03 659.836 1089.03 659.036V657.364C1089.03 656.564 1088.81 655.988 1088.39 655.636C1087.96 655.273 1087.27 655.091 1086.3 655.091H1083.03V661.309ZM1093.94 668V653.455H1095.76V666.364H1102.3V668H1093.94ZM1112.82 662.182L1110.3 655.273L1107.75 662.182H1112.82ZM1114.95 668L1113.42 663.818H1107.15L1105.62 668H1103.77L1109.37 653.455H1111.28L1116.88 668H1114.95ZM1122.13 668V655.091H1117.58V653.455H1128.49V655.091H1123.95V668H1122.13ZM1131.23 668V666.364H1134.86V655.091H1131.23V653.455H1140.32V655.091H1136.68V666.364H1140.32V668H1131.23ZM1152.27 668L1145.69 655.891V668H1143.96V653.455H1146.45L1153.14 665.8V653.455H1154.87V668H1152.27ZM1163.97 668.182C1162.06 668.182 1160.68 667.709 1159.8 666.764C1158.94 665.818 1158.51 664.552 1158.51 662.964V653.455H1160.33V662.964C1160.33 664.091 1160.57 664.97 1161.06 665.6C1161.55 666.23 1162.52 666.545 1163.97 666.545C1165.41 666.545 1166.37 666.23 1166.86 665.6C1167.35 664.97 1167.6 664.091 1167.6 662.964V653.455H1169.42V662.964C1169.42 664.552 1168.98 665.818 1168.11 666.764C1167.25 667.709 1165.87 668.182 1163.97 668.182ZM1178.32 664.364L1174.79 655.545V668H1173.06V653.455H1175.79L1179.5 662.855L1183.19 653.455H1185.79V668H1184.06V655.564L1180.54 664.364H1178.32Z" fill="white"/>
<rect width="181" height="52" transform="translate(703 108)" fill="black"/>
<line x1="996" y1="171.5" x2="607" y2="171.5" stroke="#864141" strokeWidth="3" strokeDasharray="6 6"/>
<line x1="996" y1="171.5" x2="607" y2="171.5" stroke="url(#paint12_linear_439_101)" strokeWidth="3" strokeDasharray="6 6"/>
<rect width="181" height="52" transform="translate(688 100)" fill="black"/>
<path d="M724.6 128.94C724.6 129.32 724.44 129.66 724.18 129.94L722.54 131.58C722.26 131.86 721.9 132 721.54 132H716.42C716.04 132 715.7 131.86 715.42 131.58L713.54 129.7L714.78 128.46L716.44 130.12C716.52 130.2 716.6 130.24 716.72 130.24H721.22C721.34 130.24 721.44 130.2 721.5 130.12L722.64 128.98C722.72 128.9 722.78 128.8 722.78 128.7V127.06C722.78 126.84 722.58 126.68 722.4 126.66L714.86 125.68C714.12 125.58 713.54 124.94 713.54 124.2V121.72C713.54 121.34 713.68 121 713.96 120.72L715.6 119.08C715.88 118.8 716.22 118.66 716.6 118.66H721.7C722.08 118.66 722.44 118.8 722.7 119.08L724.6 120.96L723.36 122.2L721.7 120.54C721.62 120.46 721.52 120.42 721.42 120.42H716.9C716.78 120.42 716.7 120.46 716.62 120.54L715.48 121.68C715.4 121.76 715.36 121.86 715.36 121.96V123.6C715.36 123.8 715.52 123.98 715.72 124L723.28 124.98C724.02 125.08 724.6 125.72 724.6 126.46V128.94ZM737.061 120.42H733.061V132H731.241V120.42H727.241V118.66H737.061V120.42ZM751.232 132H749.372L748.012 128.42H742.032L740.672 132H738.852L743.852 118.66H746.252L751.232 132ZM747.352 126.74L745.032 120.3L742.672 126.74H747.352ZM762.861 120.42H758.861V132H757.041V120.42H753.041V118.66H762.861V120.42ZM774.952 132H766.332V118.66H774.952V120.42H768.152V124.44H774.952V126.2H768.152V130.24H774.952V132ZM795.858 128.94C795.858 129.32 795.698 129.66 795.438 129.94L793.798 131.58C793.518 131.86 793.158 132 792.798 132H786.018V118.66H792.778C793.158 118.66 793.518 118.8 793.778 119.08L795.418 120.72C795.698 121 795.858 121.34 795.858 121.72V128.94ZM794.018 128.7L794.038 121.96C794.038 121.86 793.978 121.76 793.918 121.68L792.778 120.54C792.698 120.46 792.598 120.42 792.498 120.42H787.838V130.24H792.478C792.598 130.24 792.698 130.2 792.758 130.12L793.898 128.98C793.978 128.9 794.018 128.8 794.018 128.7ZM805.841 132H799.061V130.36H801.541V120.3H799.061V118.66H805.841V120.3H803.361V130.36H805.841V132ZM818.232 126.2H811.412V132H809.592V118.66H818.232V120.42H811.412V124.44H818.232V126.2ZM830.917 126.2H824.097V132H822.277V118.66H830.917V120.42H824.097V124.44H830.917V126.2ZM845.182 128.94C845.182 129.32 845.022 129.66 844.762 129.94L843.122 131.58C842.842 131.86 842.482 132 842.122 132H837.002C836.622 132 836.282 131.86 836.002 131.58L834.122 129.7L835.362 128.46L837.022 130.12C837.102 130.2 837.182 130.24 837.302 130.24H841.802C841.922 130.24 842.022 130.2 842.082 130.12L843.222 128.98C843.302 128.9 843.362 128.8 843.362 128.7V127.06C843.362 126.84 843.162 126.68 842.982 126.66L835.442 125.68C834.702 125.58 834.122 124.94 834.122 124.2V121.72C834.122 121.34 834.262 121 834.542 120.72L836.182 119.08C836.462 118.8 836.802 118.66 837.182 118.66H842.282C842.662 118.66 843.022 118.8 843.282 119.08L845.182 120.96L843.942 122.2L842.282 120.54C842.202 120.46 842.102 120.42 842.002 120.42H837.482C837.362 120.42 837.282 120.46 837.202 120.54L836.062 121.68C835.982 121.76 835.942 121.86 835.942 121.96V123.6C835.942 123.8 836.102 123.98 836.302 124L843.862 124.98C844.602 125.08 845.182 125.72 845.182 126.46V128.94Z" fill="#E45D5D"/>
<path d="M771.88 776.94C771.88 777.32 771.72 777.66 771.46 777.94L769.82 779.58C769.54 779.86 769.18 780 768.82 780H763.88C763.5 780 763.16 779.86 762.88 779.58L761.24 777.94C760.96 777.66 760.82 777.32 760.82 776.94V769.72C760.82 769.34 760.96 769 761.24 768.72L762.88 767.08C763.16 766.8 763.5 766.66 763.88 766.66H768.8C769.18 766.66 769.54 766.8 769.8 767.08L771.44 768.72C771.72 769 771.88 769.34 771.88 769.72V776.94ZM770.04 776.7L770.06 769.96C770.06 769.86 770 769.76 769.94 769.68L768.8 768.54C768.72 768.46 768.62 768.42 768.52 768.42H764.18C764.06 768.42 763.98 768.46 763.9 768.54L762.76 769.68C762.68 769.76 762.64 769.86 762.64 769.96V776.7C762.64 776.8 762.68 776.9 762.76 776.98L763.9 778.12C763.98 778.2 764.06 778.24 764.18 778.24H768.5C768.62 778.24 768.72 778.2 768.78 778.12L769.92 776.98C770 776.9 770.04 776.8 770.04 776.7ZM787.287 780H785.087L781.287 774.52C781.187 774.4 781.067 774.34 780.947 774.34H778.307V780H776.487V766.66H783.747C784.127 766.66 784.447 766.8 784.707 767.06L785.887 768.24C786.167 768.52 786.327 768.84 786.327 769.24V771.76C786.327 772.16 786.167 772.5 785.907 772.76L784.727 773.94C784.467 774.2 784.127 774.34 783.767 774.34H783.267L787.287 780ZM784.487 771.52L784.507 769.48C784.507 769.36 784.447 769.26 784.387 769.2L783.727 768.54C783.647 768.46 783.567 768.42 783.447 768.42H778.307V772.58H783.427C783.547 772.58 783.647 772.54 783.707 772.46L784.367 771.8C784.447 771.72 784.487 771.64 784.487 771.52ZM801.161 776.94C801.161 777.32 801.001 777.66 800.741 777.94L799.101 779.58C798.821 779.86 798.461 780 798.101 780H791.321V766.66H798.081C798.461 766.66 798.821 766.8 799.081 767.08L800.721 768.72C801.001 769 801.161 769.34 801.161 769.72V776.94ZM799.321 776.7L799.341 769.96C799.341 769.86 799.281 769.76 799.221 769.68L798.081 768.54C798.001 768.46 797.901 768.42 797.801 768.42H793.141V778.24H797.781C797.901 778.24 798.001 778.2 798.061 778.12L799.201 776.98C799.281 776.9 799.321 776.8 799.321 776.7ZM814.384 780H805.764V766.66H814.384V768.42H807.584V772.44H814.384V774.2H807.584V778.24H814.384V780ZM829.776 780H827.576L823.776 774.52C823.676 774.4 823.556 774.34 823.436 774.34H820.796V780H818.976V766.66H826.236C826.616 766.66 826.936 766.8 827.196 767.06L828.376 768.24C828.656 768.52 828.816 768.84 828.816 769.24V771.76C828.816 772.16 828.656 772.5 828.396 772.76L827.216 773.94C826.956 774.2 826.616 774.34 826.256 774.34H825.756L829.776 780ZM826.976 771.52L826.996 769.48C826.996 769.36 826.936 769.26 826.876 769.2L826.216 768.54C826.136 768.46 826.056 768.42 825.936 768.42H820.796V772.58H825.916C826.036 772.58 826.136 772.54 826.196 772.46L826.856 771.8C826.936 771.72 826.976 771.64 826.976 771.52ZM849.564 777.7L847.684 779.58C847.404 779.86 847.064 780 846.684 780H842.784C842.404 780 842.064 779.86 841.784 779.58L840.144 777.94C839.864 777.66 839.724 777.32 839.724 776.94V769.72C839.724 769.34 839.864 769 840.144 768.72L841.784 767.08C842.064 766.8 842.404 766.66 842.784 766.66H846.684C847.064 766.66 847.404 766.8 847.684 767.08L849.564 768.96L848.324 770.2L846.664 768.54C846.584 768.46 846.504 768.42 846.384 768.42H843.084C842.964 768.42 842.884 768.46 842.804 768.54L841.664 769.68C841.584 769.76 841.544 769.86 841.544 769.96V776.7C841.544 776.8 841.584 776.9 841.664 776.98L842.804 778.12C842.884 778.2 842.964 778.24 843.084 778.24H846.384C846.504 778.24 846.584 778.2 846.664 778.12L848.304 776.46L849.564 777.7ZM863.821 776.94C863.821 777.32 863.661 777.66 863.401 777.94L861.761 779.58C861.481 779.86 861.121 780 860.761 780H855.821C855.441 780 855.101 779.86 854.821 779.58L853.181 777.94C852.901 777.66 852.761 777.32 852.761 776.94V769.72C852.761 769.34 852.901 769 853.181 768.72L854.821 767.08C855.101 766.8 855.441 766.66 855.821 766.66H860.741C861.121 766.66 861.481 766.8 861.741 767.08L863.381 768.72C863.661 769 863.821 769.34 863.821 769.72V776.94ZM861.981 776.7L862.001 769.96C862.001 769.86 861.941 769.76 861.881 769.68L860.741 768.54C860.661 768.46 860.561 768.42 860.461 768.42H856.121C856.001 768.42 855.921 768.46 855.841 768.54L854.701 769.68C854.621 769.76 854.581 769.86 854.581 769.96V776.7C854.581 776.8 854.621 776.9 854.701 776.98L855.841 778.12C855.921 778.2 856.001 778.24 856.121 778.24H860.441C860.561 778.24 860.661 778.2 860.721 778.12L861.861 776.98C861.941 776.9 861.981 776.8 861.981 776.7ZM881.388 780H879.608V768.36L875.828 780H873.988L870.228 768.36V780H868.428V766.66H871.408L874.908 777.5L878.408 766.66H881.388V780ZM899.502 780H897.722V768.36L893.942 780H892.102L888.342 768.36V780H886.542V766.66H889.522L893.022 777.5L896.522 766.66H899.502V780ZM910.037 780H903.257V778.36H905.737V768.3H903.257V766.66H910.037V768.3H907.557V778.36H910.037V780ZM921.928 768.42H917.928V780H916.108V768.42H912.108V766.66H921.928V768.42ZM938.359 780H936.579V768.36L932.799 780H930.959L927.199 768.36V780H925.399V766.66H928.379L931.879 777.5L935.379 766.66H938.359V780ZM952.134 780H943.514V766.66H952.134V768.42H945.334V772.44H952.134V774.2H945.334V778.24H952.134V780ZM966.566 780H963.846L958.526 768.74V780H956.726V766.66H959.446L964.766 777.92V766.66H966.566V780ZM979.875 768.42H975.875V780H974.055V768.42H970.055V766.66H979.875V768.42Z" fill="#E45D5D"/>
<path d="M343.727 639.2H336.907V645H335.087V631.66H343.727V633.42H336.907V637.44H343.727V639.2ZM358.272 641.94C358.272 642.32 358.112 642.66 357.852 642.94L356.212 644.58C355.932 644.86 355.572 645 355.212 645H350.272C349.892 645 349.552 644.86 349.272 644.58L347.632 642.94C347.352 642.66 347.212 642.32 347.212 641.94V634.72C347.212 634.34 347.352 634 347.632 633.72L349.272 632.08C349.552 631.8 349.892 631.66 350.272 631.66H355.192C355.572 631.66 355.932 631.8 356.192 632.08L357.832 633.72C358.112 634 358.272 634.34 358.272 634.72V641.94ZM356.432 641.7L356.452 634.96C356.452 634.86 356.392 634.76 356.332 634.68L355.192 633.54C355.112 633.46 355.012 633.42 354.912 633.42H350.572C350.452 633.42 350.372 633.46 350.292 633.54L349.152 634.68C349.072 634.76 349.032 634.86 349.032 634.96V641.7C349.032 641.8 349.072 641.9 349.152 641.98L350.292 643.12C350.372 643.2 350.452 643.24 350.572 643.24H354.892C355.012 643.24 355.112 643.2 355.172 643.12L356.312 641.98C356.392 641.9 356.432 641.8 356.432 641.7ZM373.679 645H371.479L367.679 639.52C367.579 639.4 367.459 639.34 367.339 639.34H364.699V645H362.879V631.66H370.139C370.519 631.66 370.839 631.8 371.099 632.06L372.279 633.24C372.559 633.52 372.719 633.84 372.719 634.24V636.76C372.719 637.16 372.559 637.5 372.299 637.76L371.119 638.94C370.859 639.2 370.519 639.34 370.159 639.34H369.659L373.679 645ZM370.879 636.52L370.899 634.48C370.899 634.36 370.839 634.26 370.779 634.2L370.119 633.54C370.039 633.46 369.959 633.42 369.839 633.42H364.699V637.58H369.819C369.939 637.58 370.039 637.54 370.099 637.46L370.759 636.8C370.839 636.72 370.879 636.64 370.879 636.52ZM386.993 642.7L385.113 644.58C384.833 644.86 384.493 645 384.113 645H380.213C379.833 645 379.493 644.86 379.213 644.58L377.573 642.94C377.293 642.66 377.153 642.32 377.153 641.94V634.72C377.153 634.34 377.293 634 377.573 633.72L379.213 632.08C379.493 631.8 379.833 631.66 380.213 631.66H384.113C384.493 631.66 384.833 631.8 385.113 632.08L386.993 633.96L385.753 635.2L384.093 633.54C384.013 633.46 383.933 633.42 383.813 633.42H380.513C380.393 633.42 380.313 633.46 380.233 633.54L379.093 634.68C379.013 634.76 378.973 634.86 378.973 634.96V641.7C378.973 641.8 379.013 641.9 379.093 641.98L380.233 643.12C380.313 643.2 380.393 643.24 380.513 643.24H383.813C383.933 643.24 384.013 643.2 384.093 643.12L385.733 641.46L386.993 642.7ZM399.37 645H390.75V631.66H399.37V633.42H392.57V637.44H399.37V639.2H392.57V643.24H399.37V645ZM415.816 645H409.036V643.36H411.516V633.3H409.036V631.66H415.816V633.3H413.336V643.36H415.816V645ZM429.407 645H426.687L421.367 633.74V645H419.567V631.66H422.287L427.607 642.92V631.66H429.407V645ZM443.856 642.7L441.976 644.58C441.696 644.86 441.356 645 440.976 645H437.076C436.696 645 436.356 644.86 436.076 644.58L434.436 642.94C434.156 642.66 434.016 642.32 434.016 641.94V634.72C434.016 634.34 434.156 634 434.436 633.72L436.076 632.08C436.356 631.8 436.696 631.66 437.076 631.66H440.976C441.356 631.66 441.696 631.8 441.976 632.08L443.856 633.96L442.616 635.2L440.956 633.54C440.876 633.46 440.796 633.42 440.676 633.42H437.376C437.256 633.42 437.176 633.46 437.096 633.54L435.956 634.68C435.876 634.76 435.836 634.86 435.836 634.96V641.7C435.836 641.8 435.876 641.9 435.956 641.98L437.096 643.12C437.176 643.2 437.256 643.24 437.376 643.24H440.676C440.796 643.24 440.876 643.2 440.956 643.12L442.596 641.46L443.856 642.7ZM456.233 645H447.613V631.66H449.433V643.24H456.233V645ZM469.057 641.94C469.057 642.32 468.897 642.66 468.637 642.94L466.997 644.58C466.717 644.86 466.357 645 465.997 645H462.277C461.897 645 461.557 644.86 461.277 644.58L459.637 642.94C459.357 642.66 459.217 642.32 459.217 641.94V631.66H461.037V641.7C461.037 641.8 461.077 641.9 461.157 641.98L462.297 643.12C462.377 643.2 462.457 643.24 462.577 643.24H465.677C465.797 643.24 465.897 643.2 465.957 643.12L467.097 641.98C467.177 641.9 467.217 641.8 467.217 641.7V631.66H469.057V641.94ZM483.78 641.94C483.78 642.32 483.62 642.66 483.36 642.94L481.72 644.58C481.44 644.86 481.08 645 480.72 645H473.94V631.66H480.7C481.08 631.66 481.44 631.8 481.7 632.08L483.34 633.72C483.62 634 483.78 634.34 483.78 634.72V641.94ZM481.94 641.7L481.96 634.96C481.96 634.86 481.9 634.76 481.84 634.68L480.7 633.54C480.62 633.46 480.52 633.42 480.42 633.42H475.76V643.24H480.4C480.52 643.24 480.62 643.2 480.68 643.12L481.82 641.98C481.9 641.9 481.94 641.8 481.94 641.7ZM497.003 645H488.383V631.66H497.003V633.42H490.203V637.44H497.003V639.2H490.203V643.24H497.003V645ZM516.21 633.42H512.21V645H510.39V633.42H506.39V631.66H516.21V633.42ZM528.321 645H526.241L523.301 639.98L520.321 645H518.281L522.301 638.34L518.281 631.66H520.341L523.301 636.7L526.261 631.66H528.301L524.281 638.32L528.321 645Z" fill="#E45D5D"/>
<path d="M341.52 382.42H337.52V394H335.7V382.42H331.7V380.66H341.52V382.42ZM353.631 394H351.551L348.611 388.98L345.631 394H343.591L347.611 387.34L343.591 380.66H345.651L348.611 385.7L351.571 380.66H353.611L349.591 387.32L353.631 394ZM367.223 394H364.503L359.183 382.74V394H357.383V380.66H360.103L365.423 391.92V380.66H367.223V394Z" fill="#E45D5D"/>
<path d="M190.718 176.42H186.718V188H184.898V176.42H180.898V174.66H190.718V176.42ZM202.829 188H200.749L197.809 182.98L194.829 188H192.789L196.809 181.34L192.789 174.66H194.849L197.809 179.7L200.769 174.66H202.809L198.789 181.32L202.829 188Z" fill="#E45D5D"/>
<path d="M1439.22 585.76C1439.22 586.16 1439.06 586.5 1438.8 586.76L1437.62 587.94C1437.36 588.2 1437.02 588.34 1436.66 588.34H1431.2V594H1429.38V580.66H1436.64C1437.02 580.66 1437.34 580.8 1437.6 581.06L1438.78 582.24C1439.06 582.52 1439.22 582.84 1439.22 583.24V585.76ZM1437.38 585.52L1437.4 583.48C1437.4 583.36 1437.34 583.26 1437.28 583.2L1436.62 582.54C1436.54 582.46 1436.46 582.42 1436.34 582.42H1431.2V586.58H1436.32C1436.44 586.58 1436.54 586.54 1436.6 586.46L1437.26 585.8C1437.34 585.72 1437.38 585.64 1437.38 585.52ZM1453.84 594H1451.64L1447.84 588.52C1447.74 588.4 1447.62 588.34 1447.5 588.34H1444.86V594H1443.04V580.66H1450.3C1450.68 580.66 1451 580.8 1451.26 581.06L1452.44 582.24C1452.72 582.52 1452.88 582.84 1452.88 583.24V585.76C1452.88 586.16 1452.72 586.5 1452.46 586.76L1451.28 587.94C1451.02 588.2 1450.68 588.34 1450.32 588.34H1449.82L1453.84 594ZM1451.04 585.52L1451.06 583.48C1451.06 583.36 1451 583.26 1450.94 583.2L1450.28 582.54C1450.2 582.46 1450.12 582.42 1450 582.42H1444.86V586.58H1449.98C1450.1 586.58 1450.2 586.54 1450.26 586.46L1450.92 585.8C1451 585.72 1451.04 585.64 1451.04 585.52ZM1468.38 590.94C1468.38 591.32 1468.22 591.66 1467.96 591.94L1466.32 593.58C1466.04 593.86 1465.68 594 1465.32 594H1460.38C1460 594 1459.66 593.86 1459.38 593.58L1457.74 591.94C1457.46 591.66 1457.32 591.32 1457.32 590.94V583.72C1457.32 583.34 1457.46 583 1457.74 582.72L1459.38 581.08C1459.66 580.8 1460 580.66 1460.38 580.66H1465.3C1465.68 580.66 1466.04 580.8 1466.3 581.08L1467.94 582.72C1468.22 583 1468.38 583.34 1468.38 583.72V590.94ZM1466.54 590.7L1466.56 583.96C1466.56 583.86 1466.5 583.76 1466.44 583.68L1465.3 582.54C1465.22 582.46 1465.12 582.42 1465.02 582.42H1460.68C1460.56 582.42 1460.48 582.46 1460.4 582.54L1459.26 583.68C1459.18 583.76 1459.14 583.86 1459.14 583.96V590.7C1459.14 590.8 1459.18 590.9 1459.26 590.98L1460.4 592.12C1460.48 592.2 1460.56 592.24 1460.68 592.24H1465C1465.12 592.24 1465.22 592.2 1465.28 592.12L1466.42 590.98C1466.5 590.9 1466.54 590.8 1466.54 590.7ZM1483.48 590.94C1483.48 591.32 1483.32 591.66 1483.06 591.94L1481.42 593.58C1481.14 593.86 1480.78 594 1480.42 594H1475.48C1475.1 594 1474.76 593.86 1474.48 593.58L1472.84 591.94C1472.56 591.66 1472.42 591.32 1472.42 590.94V583.72C1472.42 583.34 1472.56 583 1472.84 582.72L1474.48 581.08C1474.76 580.8 1475.1 580.66 1475.48 580.66H1480.4C1480.78 580.66 1481.14 580.8 1481.4 581.08L1483.04 582.72C1483.32 583 1483.48 583.34 1483.48 583.72V590.94ZM1481.64 590.7L1481.66 583.96C1481.66 583.86 1481.6 583.76 1481.54 583.68L1480.4 582.54C1480.32 582.46 1480.22 582.42 1480.12 582.42H1475.78C1475.66 582.42 1475.58 582.46 1475.5 582.54L1474.36 583.68C1474.28 583.76 1474.24 583.86 1474.24 583.96V590.7C1474.24 590.8 1474.28 590.9 1474.36 590.98L1475.5 592.12C1475.58 592.2 1475.66 592.24 1475.78 592.24H1480.1C1480.22 592.24 1480.32 592.2 1480.38 592.12L1481.52 590.98C1481.6 590.9 1481.64 590.8 1481.64 590.7ZM1496.73 588.2H1489.91V594H1488.09V580.66H1496.73V582.42H1489.91V586.44H1496.73V588.2Z" fill="#E45D5D"/>
<path d="M1475.6 139.94C1475.6 140.32 1475.44 140.66 1475.18 140.94L1473.54 142.58C1473.26 142.86 1472.9 143 1472.54 143H1465.76V129.66H1472.52C1472.9 129.66 1473.26 129.8 1473.52 130.08L1475.16 131.72C1475.44 132 1475.6 132.34 1475.6 132.72V139.94ZM1473.76 139.7L1473.78 132.96C1473.78 132.86 1473.72 132.76 1473.66 132.68L1472.52 131.54C1472.44 131.46 1472.34 131.42 1472.24 131.42H1467.58V141.24H1472.22C1472.34 141.24 1472.44 141.2 1472.5 141.12L1473.64 139.98C1473.72 139.9 1473.76 139.8 1473.76 139.7ZM1490.91 143H1489.05L1487.69 139.42H1481.71L1480.35 143H1478.53L1483.53 129.66H1485.93L1490.91 143ZM1487.03 137.74L1484.71 131.3L1482.35 137.74H1487.03ZM1417.83 169.7L1415.95 171.58C1415.67 171.86 1415.33 172 1414.95 172H1411.05C1410.67 172 1410.33 171.86 1410.05 171.58L1408.41 169.94C1408.13 169.66 1407.99 169.32 1407.99 168.94V161.72C1407.99 161.34 1408.13 161 1408.41 160.72L1410.05 159.08C1410.33 158.8 1410.67 158.66 1411.05 158.66H1414.95C1415.33 158.66 1415.67 158.8 1415.95 159.08L1417.83 160.96L1416.59 162.2L1414.93 160.54C1414.85 160.46 1414.77 160.42 1414.65 160.42H1411.35C1411.23 160.42 1411.15 160.46 1411.07 160.54L1409.93 161.68C1409.85 161.76 1409.81 161.86 1409.81 161.96V168.7C1409.81 168.8 1409.85 168.9 1409.93 168.98L1411.07 170.12C1411.15 170.2 1411.23 170.24 1411.35 170.24H1414.65C1414.77 170.24 1414.85 170.2 1414.93 170.12L1416.57 168.46L1417.83 169.7ZM1432.09 168.94C1432.09 169.32 1431.93 169.66 1431.67 169.94L1430.03 171.58C1429.75 171.86 1429.39 172 1429.03 172H1424.09C1423.71 172 1423.37 171.86 1423.09 171.58L1421.45 169.94C1421.17 169.66 1421.03 169.32 1421.03 168.94V161.72C1421.03 161.34 1421.17 161 1421.45 160.72L1423.09 159.08C1423.37 158.8 1423.71 158.66 1424.09 158.66H1429.01C1429.39 158.66 1429.75 158.8 1430.01 159.08L1431.65 160.72C1431.93 161 1432.09 161.34 1432.09 161.72V168.94ZM1430.25 168.7L1430.27 161.96C1430.27 161.86 1430.21 161.76 1430.15 161.68L1429.01 160.54C1428.93 160.46 1428.83 160.42 1428.73 160.42H1424.39C1424.27 160.42 1424.19 160.46 1424.11 160.54L1422.97 161.68C1422.89 161.76 1422.85 161.86 1422.85 161.96V168.7C1422.85 168.8 1422.89 168.9 1422.97 168.98L1424.11 170.12C1424.19 170.2 1424.27 170.24 1424.39 170.24H1428.71C1428.83 170.24 1428.93 170.2 1428.99 170.12L1430.13 168.98C1430.21 168.9 1430.25 168.8 1430.25 168.7ZM1449.65 172H1447.87V160.36L1444.09 172H1442.25L1438.49 160.36V172H1436.69V158.66H1439.67L1443.17 169.5L1446.67 158.66H1449.65V172ZM1467.77 172H1465.99V160.36L1462.21 172H1460.37L1456.61 160.36V172H1454.81V158.66H1457.79L1461.29 169.5L1464.79 158.66H1467.77V172ZM1478.3 172H1471.52V170.36H1474V160.3H1471.52V158.66H1478.3V160.3H1475.82V170.36H1478.3V172ZM1490.19 160.42H1486.19V172H1484.37V160.42H1480.37V158.66H1490.19V160.42ZM1506.62 172H1504.84V160.36L1501.06 172H1499.22L1495.46 160.36V172H1493.66V158.66H1496.64L1500.14 169.5L1503.64 158.66H1506.62V172ZM1520.4 172H1511.78V158.66H1520.4V160.42H1513.6V164.44H1520.4V166.2H1513.6V170.24H1520.4V172ZM1534.83 172H1532.11L1526.79 160.74V172H1524.99V158.66H1527.71L1533.03 169.92V158.66H1534.83V172ZM1548.14 160.42H1544.14V172H1542.32V160.42H1538.32V158.66H1548.14V160.42Z" fill="#E45D5D"/>
<path d="M1294 209L1642 209" stroke="#864141" strokeWidth="3" strokeDasharray="6 6"/>
<path d="M1294 209L1642 209" stroke="url(#paint13_linear_439_101)" strokeWidth="3" strokeDasharray="6 6"/>
<g clipPath="url(#clip3_439_101)">
<rect x="1642" y="45" width="350" height="784" rx="10" fill="#131313"/>
<rect x="1661.08" y="120.078" width="311.578" height="213.469" rx="11.8594" fill="url(#paint14_radial_439_101)" fillOpacity="0.56"/>
<rect x="1661.08" y="120.078" width="311.578" height="213.469" rx="11.8594" stroke="#404040" strokeWidth="2.15625"/>
<path d="M1759.01 234.312V218.631H1769.21V220.395H1760.97V224.903H1768.23V226.668H1760.97V232.548H1769.21V234.312H1759.01ZM1776.66 234.312V220.395H1771.76V218.631H1783.53V220.395H1778.62V234.312H1776.66ZM1786.47 234.312V218.631H1788.43V224.903H1796.27V218.631H1798.23V234.312H1796.27V226.668H1788.43V234.312H1786.47ZM1802.16 234.312V218.631H1812.35V220.395H1804.12V224.903H1811.37V226.668H1804.12V232.548H1812.35V234.312H1802.16ZM1817.85 226.511H1822.75C1823.81 226.511 1824.56 226.315 1825.01 225.923C1825.46 225.531 1825.69 224.884 1825.69 223.982V222.767C1825.69 221.917 1825.46 221.31 1825.01 220.944C1824.56 220.578 1823.81 220.395 1822.75 220.395H1817.85V226.511ZM1817.85 234.312H1815.89V218.631H1822.77C1824.4 218.631 1825.63 218.977 1826.44 219.67C1827.25 220.349 1827.65 221.382 1827.65 222.767V223.982C1827.65 225.224 1827.33 226.191 1826.69 226.883C1826.06 227.576 1825.1 228.007 1823.81 228.177L1827.83 234.312H1825.59L1821.61 228.236H1817.85V234.312ZM1831.58 234.312V218.631H1841.77V220.395H1833.54V224.903H1840.79V226.668H1833.54V232.548H1841.77V234.312H1831.58ZM1851.19 234.509C1849.14 234.509 1847.64 233.999 1846.7 232.98C1845.77 231.96 1845.31 230.595 1845.31 228.883V218.631H1847.27V228.883C1847.27 230.098 1847.53 231.045 1848.05 231.725C1848.59 232.405 1849.63 232.744 1851.19 232.744C1852.74 232.744 1853.78 232.405 1854.3 231.725C1854.84 231.045 1855.11 230.098 1855.11 228.883V218.631H1857.07V228.883C1857.07 230.595 1856.6 231.96 1855.66 232.98C1854.73 233.999 1853.24 234.509 1851.19 234.509ZM1866.66 230.392L1862.86 220.885V234.312H1860.99V218.631H1863.93L1867.93 228.765L1871.91 218.631H1874.72V234.312H1872.85V220.905L1869.05 230.392H1866.66Z" fill="white"/>
<rect x="1661.08" y="357.266" width="311.578" height="213.469" rx="11.8594" fill="#5E1D1D" fillOpacity="0.56"/>
<rect x="1661.08" y="357.266" width="311.578" height="213.469" rx="11.8594" stroke="url(#paint15_linear_439_101)" strokeWidth="2.15625"/>
<path d="M1774.41 471.618C1772.89 471.618 1771.61 471.343 1770.55 470.794C1769.5 470.245 1768.7 469.2 1768.14 467.658L1769.96 466.933C1770.36 468.043 1770.9 468.808 1771.57 469.226C1772.25 469.644 1773.23 469.853 1774.53 469.853C1775.66 469.853 1776.58 469.644 1777.29 469.226C1778 468.808 1778.35 468.115 1778.35 467.148C1778.35 466.26 1778.04 465.639 1777.41 465.286C1776.79 464.92 1775.68 464.613 1774.08 464.365C1772.06 464.064 1770.65 463.594 1769.84 462.953C1769.04 462.313 1768.65 461.346 1768.65 460.052C1768.65 458.719 1769.13 457.667 1770.1 456.896C1771.06 456.125 1772.38 455.74 1774.06 455.74C1775.57 455.74 1776.82 456.001 1777.8 456.524C1778.78 457.034 1779.52 457.961 1780.02 459.307L1778.19 460.033C1777.85 459.092 1777.32 458.438 1776.6 458.072C1775.89 457.693 1775 457.504 1773.94 457.504C1772.95 457.504 1772.14 457.68 1771.53 458.033C1770.93 458.386 1770.63 459 1770.63 459.876C1770.63 460.764 1770.95 461.379 1771.61 461.718C1772.26 462.058 1773.44 462.352 1775.13 462.601C1777.04 462.888 1778.38 463.345 1779.15 463.973C1779.92 464.6 1780.31 465.547 1780.31 466.815C1780.31 468.305 1779.78 469.481 1778.72 470.343C1777.68 471.193 1776.24 471.618 1774.41 471.618ZM1787.94 471.5V457.582H1783.04V455.818H1794.8V457.582H1789.9V471.5H1787.94ZM1805.35 465.227L1802.62 457.778L1799.88 465.227H1805.35ZM1807.64 471.5L1805.99 466.991H1799.23L1797.58 471.5H1795.58L1801.62 455.818H1803.68L1809.72 471.5H1807.64ZM1814.41 463.698H1819.31C1820.37 463.698 1821.12 463.502 1821.56 463.11C1822.02 462.718 1822.25 462.071 1822.25 461.17V459.954C1822.25 459.105 1822.02 458.497 1821.56 458.131C1821.12 457.765 1820.37 457.582 1819.31 457.582H1814.41V463.698ZM1814.41 471.5H1812.45V455.818H1819.33C1820.96 455.818 1822.18 456.164 1822.99 456.857C1823.8 457.537 1824.21 458.569 1824.21 459.954V461.17C1824.21 462.411 1823.89 463.378 1823.25 464.071C1822.62 464.763 1821.66 465.195 1820.37 465.364L1824.38 471.5H1822.15L1818.17 465.423H1814.41V471.5ZM1830.09 464.051V471.5H1828.13V455.818H1830.09V462.287H1830.76L1836.82 455.818H1839.09L1832.37 463.032L1839.03 471.5H1836.68L1830.82 464.051H1830.09ZM1841.86 471.5V455.818H1852.06V457.582H1843.82V462.091H1851.08V463.855H1843.82V469.736H1852.06V471.5H1841.86ZM1859.51 471.5V457.582H1854.61V455.818H1866.37V457.582H1861.47V471.5H1859.51Z" fill="white"/>
<rect x="1661.08" y="594.453" width="311.578" height="213.469" rx="11.8594" fill="url(#paint16_radial_439_101)" fillOpacity="0.56"/>
<rect x="1661.08" y="594.453" width="311.578" height="213.469" rx="11.8594" stroke="#404040" strokeWidth="2.15625"/>
<path d="M1750.38 693.305C1748.87 693.305 1747.58 693.031 1746.52 692.482C1745.48 691.933 1744.67 690.888 1744.11 689.345L1745.93 688.62C1746.34 689.731 1746.87 690.495 1747.54 690.914C1748.22 691.332 1749.21 691.541 1750.5 691.541C1751.64 691.541 1752.56 691.332 1753.26 690.914C1753.97 690.495 1754.32 689.803 1754.32 688.836C1754.32 687.947 1754.01 687.326 1753.38 686.974C1752.77 686.608 1751.66 686.301 1750.05 686.052C1748.04 685.752 1746.63 685.281 1745.82 684.641C1745.02 684.001 1744.62 683.034 1744.62 681.74C1744.62 680.407 1745.1 679.355 1746.07 678.584C1747.04 677.813 1748.36 677.427 1750.03 677.427C1751.55 677.427 1752.79 677.689 1753.77 678.211C1754.75 678.721 1755.49 679.649 1755.99 680.995L1754.17 681.72C1753.83 680.779 1753.3 680.126 1752.58 679.76C1751.86 679.381 1750.97 679.191 1749.91 679.191C1748.92 679.191 1748.12 679.368 1747.5 679.721C1746.9 680.074 1746.6 680.688 1746.6 681.563C1746.6 682.452 1746.93 683.066 1747.58 683.406C1748.23 683.746 1749.41 684.04 1751.11 684.288C1753.02 684.576 1754.36 685.033 1755.13 685.66C1755.9 686.287 1756.28 687.235 1756.28 688.503C1756.28 689.992 1755.75 691.168 1754.7 692.031C1753.65 692.88 1752.21 693.305 1750.38 693.305ZM1765.87 693.384C1763.93 693.384 1762.46 692.913 1761.46 691.972C1760.48 691.031 1759.99 689.626 1759.99 687.758V683.014C1759.99 681.119 1760.49 679.695 1761.48 678.741C1762.48 677.787 1763.95 677.31 1765.89 677.31C1767.84 677.31 1769.3 677.787 1770.28 678.741C1771.27 679.695 1771.76 681.119 1771.76 683.014V687.758C1771.76 689.626 1771.26 691.031 1770.27 691.972C1769.29 692.913 1767.82 693.384 1765.87 693.384ZM1765.87 691.619C1767.29 691.619 1768.29 691.325 1768.89 690.737C1769.49 690.136 1769.79 689.143 1769.79 687.758V683.014C1769.79 681.603 1769.49 680.596 1768.89 679.995C1768.29 679.381 1767.29 679.074 1765.87 679.074C1764.46 679.074 1763.46 679.381 1762.86 679.995C1762.25 680.596 1761.95 681.603 1761.95 683.014V687.758C1761.95 689.143 1762.25 690.136 1762.86 690.737C1763.46 691.325 1764.46 691.619 1765.87 691.619ZM1782.6 693.188H1780.54L1774.51 677.506H1776.62L1781.6 690.992L1786.58 677.506H1788.64L1782.6 693.188ZM1791.37 693.188V677.506H1801.56V679.27H1793.33V683.778H1800.58V685.543H1793.33V691.423H1801.56V693.188H1791.37ZM1807.06 685.386H1811.96C1813.02 685.386 1813.77 685.19 1814.21 684.798C1814.67 684.406 1814.9 683.759 1814.9 682.857V681.642C1814.9 680.792 1814.67 680.185 1814.21 679.819C1813.77 679.453 1813.02 679.27 1811.96 679.27H1807.06V685.386ZM1807.06 693.188H1805.1V677.506H1811.98C1813.61 677.506 1814.83 677.852 1815.64 678.545C1816.45 679.224 1816.86 680.257 1816.86 681.642V682.857C1816.86 684.099 1816.54 685.066 1815.9 685.758C1815.27 686.451 1814.31 686.882 1813.02 687.052L1817.04 693.188H1814.8L1810.82 687.111H1807.06V693.188ZM1820.79 693.188V677.506H1830.98V679.27H1822.75V683.778H1830V685.543H1822.75V691.423H1830.98V693.188H1820.79ZM1834.51 693.188V691.423H1838.44V679.27H1834.51V677.506H1844.32V679.27H1840.4V691.423H1844.32V693.188H1834.51ZM1854.52 693.384C1852.37 693.384 1850.79 692.874 1849.77 691.855C1848.75 690.835 1848.24 689.47 1848.24 687.758V683.014C1848.24 681.289 1848.72 679.91 1849.68 678.878C1850.64 677.832 1852.2 677.31 1854.34 677.31C1856.29 677.31 1857.69 677.702 1858.56 678.486C1859.43 679.257 1859.91 680.505 1860.01 682.23L1858.05 682.426C1857.95 681.289 1857.67 680.446 1857.2 679.897C1856.75 679.348 1855.78 679.074 1854.32 679.074C1852.66 679.074 1851.56 679.446 1851.01 680.191C1850.47 680.936 1850.2 681.877 1850.2 683.014V687.758C1850.2 688.895 1850.51 689.822 1851.11 690.541C1851.72 691.26 1852.86 691.619 1854.52 691.619C1856.18 691.619 1857.24 691.234 1857.71 690.463C1858.2 689.679 1858.44 688.594 1858.44 687.209H1854.12V685.445H1860.4V687.562C1860.4 689.274 1859.95 690.672 1859.06 691.757C1858.18 692.841 1856.66 693.384 1854.52 693.384ZM1872.89 693.188L1865.79 680.132V693.188H1863.93V677.506H1866.62L1873.83 690.816V677.506H1875.69V693.188H1872.89ZM1879.62 697.108L1887.46 677.506H1889.42L1881.58 697.108H1879.62ZM1735.47 724.188V708.506H1737.43V722.423H1744.49V724.188H1735.47ZM1747.24 724.188V722.423H1751.16V710.27H1747.24V708.506H1757.04V710.27H1753.12V722.423H1757.04V724.188H1747.24ZM1767.25 724.384C1765.1 724.384 1763.52 723.874 1762.5 722.855C1761.48 721.835 1760.97 720.47 1760.97 718.758V714.014C1760.97 712.289 1761.45 710.91 1762.4 709.878C1763.37 708.832 1764.93 708.31 1767.07 708.31C1769.02 708.31 1770.42 708.702 1771.28 709.486C1772.16 710.257 1772.64 711.505 1772.73 713.23L1770.77 713.426C1770.68 712.289 1770.4 711.446 1769.93 710.897C1769.47 710.348 1768.51 710.074 1767.05 710.074C1765.39 710.074 1764.29 710.446 1763.74 711.191C1763.2 711.936 1762.93 712.877 1762.93 714.014V718.758C1762.93 719.895 1763.23 720.822 1763.83 721.541C1764.45 722.26 1765.59 722.619 1767.25 722.619C1768.91 722.619 1769.97 722.234 1770.44 721.463C1770.92 720.679 1771.17 719.594 1771.17 718.209H1766.85V716.445H1773.13V718.562C1773.13 720.274 1772.68 721.672 1771.79 722.757C1770.9 723.841 1769.39 724.384 1767.25 724.384ZM1776.66 724.188V708.506H1778.62V714.778H1786.46V708.506H1788.42V724.188H1786.46V716.543H1778.62V724.188H1776.66ZM1796.27 724.188V710.27H1791.37V708.506H1803.13V710.27H1798.23V724.188H1796.27ZM1823.92 724.384C1821.95 724.384 1820.44 723.907 1819.4 722.953C1818.36 721.986 1817.85 720.587 1817.85 718.758V714.014C1817.85 712.158 1818.37 710.747 1819.42 709.78C1820.46 708.8 1821.97 708.31 1823.94 708.31C1825.81 708.31 1827.26 708.741 1828.3 709.603C1829.34 710.453 1829.91 711.792 1830 713.622L1828.04 713.818C1827.92 712.38 1827.54 711.4 1826.9 710.878C1826.26 710.342 1825.27 710.074 1823.92 710.074C1822.46 710.074 1821.41 710.381 1820.77 710.995C1820.13 711.609 1819.81 712.616 1819.81 714.014V718.758C1819.81 720.13 1820.13 721.116 1820.77 721.718C1821.41 722.319 1822.46 722.619 1823.92 722.619C1825.36 722.619 1826.4 722.338 1827.04 721.776C1827.7 721.201 1828.03 720.261 1828.04 718.954L1830 719.15C1830 720.849 1829.48 722.149 1828.43 723.051C1827.4 723.939 1825.9 724.384 1823.92 724.384ZM1833.54 724.188V708.506H1835.5V722.423H1842.55V724.188H1833.54ZM1845.31 724.188V722.423H1849.23V710.27H1845.31V708.506H1855.11V710.27H1851.19V722.423H1855.11V724.188H1845.31ZM1859.04 724.188V708.506H1869.23V710.27H1861V714.778H1868.25V716.543H1861V722.423H1869.23V724.188H1859.04ZM1881.72 724.188L1874.63 711.132V724.188H1872.77V708.506H1875.45L1882.66 721.816V708.506H1884.53V724.188H1881.72ZM1892.37 724.188V710.27H1887.47V708.506H1899.23V710.27H1894.33V724.188H1892.37Z" fill="white"/>
<g filter="url(#filter2_d_439_101)">
<path d="M1910.55 94.5412L1943.58 31.1022C1947.8 22.9834 1941.75 13.3119 1932.6 13.5656L1704.99 19.8757C1695.71 20.133 1690.22 30.3809 1695.16 38.2467L1730.98 95.3756C1733.18 98.8753 1737.02 101 1741.15 101H1899.91C1904.38 101 1908.48 98.5103 1910.55 94.5412Z" fill="url(#paint17_radial_439_101)" fillOpacity="0.56" shapeRendering="crispEdges"/>
<path d="M1942.69 30.6404L1909.66 94.0794C1907.77 97.7178 1904.01 100 1899.91 100H1741.15C1737.36 100 1733.84 98.0523 1731.83 94.8443L1696 37.7154C1691.48 30.505 1696.51 21.1112 1705.02 20.8753L1932.63 14.5652C1941.01 14.3327 1946.56 23.1982 1942.69 30.6404Z" stroke="#404040" strokeWidth="2" shapeRendering="crispEdges"/>
</g>
<path d="M1753.12 77.328C1753.12 77.784 1752.93 78.192 1752.62 78.528L1750.65 80.496C1750.31 80.832 1749.88 81 1749.45 81H1743.3C1742.85 81 1742.44 80.832 1742.1 80.496L1739.85 78.24L1741.34 76.752L1743.33 78.744C1743.42 78.84 1743.52 78.888 1743.66 78.888H1749.06C1749.21 78.888 1749.33 78.84 1749.4 78.744L1750.77 77.376C1750.86 77.28 1750.94 77.16 1750.94 77.04V75.072C1750.94 74.808 1750.7 74.616 1750.48 74.592L1741.43 73.416C1740.54 73.296 1739.85 72.528 1739.85 71.64V68.664C1739.85 68.208 1740.02 67.8 1740.35 67.464L1742.32 65.496C1742.66 65.16 1743.06 64.992 1743.52 64.992H1749.64C1750.1 64.992 1750.53 65.16 1750.84 65.496L1753.12 67.752L1751.63 69.24L1749.64 67.248C1749.54 67.152 1749.42 67.104 1749.3 67.104H1743.88C1743.74 67.104 1743.64 67.152 1743.54 67.248L1742.18 68.616C1742.08 68.712 1742.03 68.832 1742.03 68.952V70.92C1742.03 71.16 1742.22 71.376 1742.46 71.4L1751.54 72.576C1752.42 72.696 1753.12 73.464 1753.12 74.352V77.328ZM1768.65 81H1758.3V64.992H1768.65V67.104H1760.49V71.928H1768.65V74.04H1760.49V78.888H1768.65V81ZM1783.93 67.104H1779.13V81H1776.94V67.104H1772.14V64.992H1783.93V67.104ZM1797.86 67.104H1793.06V81H1790.88V67.104H1786.08V64.992H1797.86V67.104ZM1812.37 81H1802.03V64.992H1804.21V78.888H1812.37V81ZM1826.63 81H1816.29V64.992H1826.63V67.104H1818.47V71.928H1826.63V74.04H1818.47V78.888H1826.63V81ZM1847.69 81H1845.56V67.032L1841.02 81H1838.81L1834.3 67.032V81H1832.14V64.992H1835.72L1839.92 78L1844.12 64.992H1847.69V81ZM1864.22 81H1853.88V64.992H1864.22V67.104H1856.06V71.928H1864.22V74.04H1856.06V78.888H1864.22V81ZM1881.54 81H1878.28L1871.9 67.488V81H1869.74V64.992H1873L1879.38 78.504V64.992H1881.54V81ZM1897.51 67.104H1892.71V81H1890.53V67.104H1885.73V64.992H1897.51V67.104Z" fill="#FF6B6B"/>
</g>
<rect x="1643.5" y="46.5" width="347" height="781" rx="8.5" stroke="#434141" strokeWidth="3"/>
<circle cx="95" cy="207" r="42.5" fill="#131313" stroke="#434141" strokeWidth="3"/>
<path d="M110 219.012V224.741H80V219.012C80 211.513 85.5012 205.299 92.6891 204.189H92.6906C93.4432 204.073 94.2146 204.012 95 204.012C97.7991 204.012 100.421 204.778 102.664 206.116C107.057 208.731 110 213.528 110 219.012Z" fill="#FFBFBF"/>
<path d="M105.375 219.015V224.744H80V219.015C80 211.515 85.5012 205.302 92.6891 204.191H92.6906C94.6198 204.49 96.4269 205.157 98.0385 206.119C102.432 208.734 105.375 213.531 105.375 219.015Z" fill="#FD9C9C"/>
<path d="M103.004 196.008C103.004 200.429 99.42 204.014 94.9983 204.014C93.2647 204.014 91.661 203.463 90.3499 202.528C88.3174 201.074 86.9922 198.696 86.9922 196.008C86.9922 191.585 90.5767 188 94.9983 188C95.8401 188 96.6521 188.13 97.4157 188.372C100.656 189.396 103.004 192.428 103.004 196.008Z" fill="#FFBFBF"/>
<path d="M98.137 198.431C96.5315 201.175 93.6033 202.216 91.8009 202.494C90.8453 202.642 89.9182 202.271 89.2458 201.576C87.8508 200.134 86.9922 198.171 86.9922 196.008C86.9922 191.585 90.5767 188 94.9983 188C95.177 188 95.3543 188.006 95.5301 188.017C96.8018 188.101 98.0351 188.728 98.5659 189.887C99.5949 192.133 99.6194 195.896 98.137 198.431Z" fill="#FD9C9C"/>
<path d="M538 505.5H688V805H1640.5" stroke="#864141" strokeWidth="3" strokeDasharray="6 6"/>
<path d="M538 505.5H688V805H1640.5" stroke="url(#paint18_linear_439_101)" strokeWidth="3" strokeDasharray="6 6"/>
<rect x="255.5" y="421.5" width="351" height="167" rx="8.5" fill="#131313"/>
<rect x="255.5" y="421.5" width="351" height="167" rx="8.5" stroke="#434141" strokeWidth="3"/>
<path d="M350.12 510.328C350.12 510.784 349.928 511.192 349.616 511.528L347.648 513.496C347.312 513.832 346.88 514 346.448 514H340.304C339.848 514 339.44 513.832 339.104 513.496L336.848 511.24L338.336 509.752L340.328 511.744C340.424 511.84 340.52 511.888 340.664 511.888H346.064C346.208 511.888 346.328 511.84 346.4 511.744L347.768 510.376C347.864 510.28 347.936 510.16 347.936 510.04V508.072C347.936 507.808 347.696 507.616 347.48 507.592L338.432 506.416C337.544 506.296 336.848 505.528 336.848 504.64V501.664C336.848 501.208 337.016 500.8 337.352 500.464L339.32 498.496C339.656 498.16 340.064 497.992 340.52 497.992H346.64C347.096 497.992 347.528 498.16 347.84 498.496L350.12 500.752L348.632 502.24L346.64 500.248C346.544 500.152 346.424 500.104 346.304 500.104H340.88C340.736 500.104 340.64 500.152 340.544 500.248L339.176 501.616C339.08 501.712 339.032 501.832 339.032 501.952V503.92C339.032 504.16 339.224 504.376 339.464 504.4L348.536 505.576C349.424 505.696 350.12 506.464 350.12 507.352V510.328ZM367.113 514H364.929V507.04H357.489V514H355.305V497.992H357.489V504.928H364.905V497.992H367.113V514ZM386.156 514H383.924L382.292 509.704H375.116L373.484 514H371.3L377.3 497.992H380.18L386.156 514ZM381.5 507.688L378.716 499.96L375.884 507.688H381.5ZM403.303 514H400.663L396.103 507.424C395.983 507.28 395.839 507.208 395.695 507.208H392.527V514H390.343V497.992H399.055C399.511 497.992 399.895 498.16 400.207 498.472L401.623 499.888C401.959 500.224 402.151 500.608 402.151 501.088V504.112C402.151 504.592 401.959 505 401.647 505.312L400.231 506.728C399.919 507.04 399.511 507.208 399.079 507.208H398.479L403.303 514ZM399.943 503.824L399.967 501.376C399.967 501.232 399.895 501.112 399.823 501.04L399.031 500.248C398.935 500.152 398.839 500.104 398.695 500.104H392.527V505.096H398.671C398.815 505.096 398.935 505.048 399.007 504.952L399.799 504.16C399.895 504.064 399.943 503.968 399.943 503.824ZM418.487 514H408.143V497.992H418.487V500.104H410.327V504.928H418.487V507.04H410.327V511.888H418.487V514ZM435.806 510.328C435.806 510.784 435.614 511.192 435.302 511.528L433.334 513.496C432.998 513.832 432.566 514 432.134 514H423.998V497.992H432.11C432.566 497.992 432.998 498.16 433.31 498.496L435.278 500.464C435.614 500.8 435.806 501.208 435.806 501.664V510.328ZM433.598 510.04L433.622 501.952C433.622 501.832 433.55 501.712 433.478 501.616L432.11 500.248C432.014 500.152 431.894 500.104 431.774 500.104H426.182V511.888H431.75C431.894 511.888 432.014 511.84 432.086 511.744L433.454 510.376C433.55 510.28 433.598 510.16 433.598 510.04ZM460.235 511.24L457.979 513.496C457.643 513.832 457.235 514 456.779 514H452.099C451.643 514 451.235 513.832 450.899 513.496L448.931 511.528C448.595 511.192 448.427 510.784 448.427 510.328V501.664C448.427 501.208 448.595 500.8 448.931 500.464L450.899 498.496C451.235 498.16 451.643 497.992 452.099 497.992H456.779C457.235 497.992 457.643 498.16 457.979 498.496L460.235 500.752L458.747 502.24L456.755 500.248C456.659 500.152 456.563 500.104 456.419 500.104H452.459C452.315 500.104 452.219 500.152 452.123 500.248L450.755 501.616C450.659 501.712 450.611 501.832 450.611 501.952V510.04C450.611 510.16 450.659 510.28 450.755 510.376L452.123 511.744C452.219 511.84 452.315 511.888 452.459 511.888H456.419C456.563 511.888 456.659 511.84 456.755 511.744L458.723 509.752L460.235 511.24ZM476.551 514H474.367V507.04H466.927V514H464.743V497.992H466.927V504.928H474.343V497.992H476.551V514ZM495.594 514H493.362L491.73 509.704H484.554L482.922 514H480.738L486.738 497.992H489.618L495.594 514ZM490.938 507.688L488.154 499.96L485.322 507.688H490.938ZM506.237 514H498.101V512.032H501.077V499.96H498.101V497.992H506.237V499.96H503.261V512.032H506.237V514ZM522.546 514H519.282L512.898 500.488V514H510.738V497.992H514.002L520.386 511.504V497.992H522.546V514Z" fill="white"/>
<g clipPath="url(#clip4_439_101)">
<rect width="354" height="371" transform="translate(958 42)" fill="#0D0D0D"/>
<rect x="959.5" y="43.5" width="351" height="368" rx="8.5" fill="#131313"/>
<rect x="959.5" y="43.5" width="351" height="368" rx="8.5" stroke="#434141" strokeWidth="3"/>
<rect x="990" y="123" width="289" height="73" rx="11" fill="#5E1D1D" fillOpacity="0.56"/>
<rect x="990" y="123" width="289" height="73" rx="11" stroke="url(#paint19_linear_439_101)" strokeWidth="2"/>
<path d="M1088.95 166.182C1087.12 166.182 1085.72 165.739 1084.75 164.855C1083.8 163.958 1083.32 162.661 1083.32 160.964V156.564C1083.32 154.842 1083.8 153.533 1084.77 152.636C1085.74 151.727 1087.14 151.273 1088.97 151.273C1090.71 151.273 1092.05 151.673 1093.01 152.473C1093.98 153.261 1094.51 154.503 1094.59 156.2L1092.77 156.382C1092.66 155.048 1092.31 154.139 1091.72 153.655C1091.12 153.158 1090.2 152.909 1088.95 152.909C1087.6 152.909 1086.62 153.194 1086.03 153.764C1085.43 154.333 1085.14 155.267 1085.14 156.564V160.964C1085.14 162.236 1085.43 163.152 1086.03 163.709C1086.62 164.267 1087.6 164.545 1088.95 164.545C1090.29 164.545 1091.25 164.285 1091.85 163.764C1092.45 163.23 1092.76 162.358 1092.77 161.145L1094.59 161.327C1094.59 162.903 1094.11 164.109 1093.14 164.945C1092.18 165.77 1090.78 166.182 1088.95 166.182ZM1097.87 166V151.455H1107.32V153.091H1099.69V157.273H1106.41V158.909H1099.69V164.364H1107.32V166H1097.87ZM1110.6 166V151.455H1112.42V164.364H1118.97V166H1110.6ZM1121.52 166V151.455H1130.98V153.091H1123.34V157.273H1130.07V158.909H1123.34V164.364H1130.98V166H1121.52ZM1139.89 166.109C1138.49 166.109 1137.29 165.855 1136.31 165.345C1135.34 164.836 1134.6 163.867 1134.07 162.436L1135.76 161.764C1136.14 162.794 1136.64 163.503 1137.26 163.891C1137.89 164.279 1138.8 164.473 1140 164.473C1141.06 164.473 1141.91 164.279 1142.56 163.891C1143.22 163.503 1143.55 162.861 1143.55 161.964C1143.55 161.139 1143.26 160.564 1142.67 160.236C1142.1 159.897 1141.07 159.612 1139.58 159.382C1137.72 159.103 1136.41 158.667 1135.66 158.073C1134.92 157.479 1134.55 156.582 1134.55 155.382C1134.55 154.145 1135 153.17 1135.89 152.455C1136.79 151.739 1138.01 151.382 1139.56 151.382C1140.97 151.382 1142.13 151.624 1143.04 152.109C1143.95 152.582 1144.63 153.442 1145.09 154.691L1143.4 155.364C1143.09 154.491 1142.6 153.885 1141.93 153.545C1141.26 153.194 1140.44 153.018 1139.46 153.018C1138.53 153.018 1137.79 153.182 1137.22 153.509C1136.66 153.836 1136.38 154.406 1136.38 155.218C1136.38 156.042 1136.69 156.612 1137.29 156.927C1137.9 157.242 1138.99 157.515 1140.56 157.745C1142.33 158.012 1143.58 158.436 1144.29 159.018C1145.01 159.6 1145.36 160.479 1145.36 161.655C1145.36 163.036 1144.87 164.127 1143.89 164.927C1142.92 165.715 1141.59 166.109 1139.89 166.109ZM1152.44 166V153.091H1147.9V151.455H1158.81V153.091H1154.26V166H1152.44ZM1161.54 166V164.364H1165.18V153.091H1161.54V151.455H1170.63V153.091H1167V164.364H1170.63V166H1161.54ZM1182.24 160.182L1179.71 153.273L1177.17 160.182H1182.24ZM1184.37 166L1182.84 161.818H1176.57L1175.04 166H1173.18L1178.78 151.455H1180.69L1186.29 166H1184.37Z" fill="white"/>
<rect x="990" y="217" width="289" height="73" rx="11" fill="url(#paint20_radial_439_101)" fillOpacity="0.56"/>
<rect x="990" y="217" width="289" height="73" rx="11" stroke="#404040" strokeWidth="2"/>
<path d="M1111.55 254.182L1109.02 247.273L1106.47 254.182H1111.55ZM1113.67 260L1112.15 255.818H1105.87L1104.35 260H1102.49L1108.09 245.455H1110L1115.6 260H1113.67ZM1123.63 260H1121.73L1116.13 245.455H1118.09L1122.71 257.964L1127.33 245.455H1129.23L1123.63 260ZM1138.81 254.182L1136.29 247.273L1133.74 254.182H1138.81ZM1140.94 260L1139.41 255.818H1133.14L1131.61 260H1129.76L1135.36 245.455H1137.27L1142.87 260H1140.94ZM1145.4 260V258.364H1149.04V247.091H1145.4V245.455H1154.49V247.091H1150.85V258.364H1154.49V260H1145.4ZM1158.13 260V245.455H1159.95V258.364H1166.5V260H1158.13Z" fill="white"/>
<rect x="990" y="311" width="289" height="73" rx="11" fill="url(#paint21_radial_439_101)" fillOpacity="0.56"/>
<rect x="990" y="311" width="289" height="73" rx="11" stroke="#404040" strokeWidth="2"/>
<path d="M1080.84 354V339.455H1090.29V341.091H1082.66V345.273H1089.39V346.909H1082.66V352.364H1090.29V354H1080.84ZM1097.21 354V341.091H1092.66V339.455H1103.57V341.091H1099.03V354H1097.21ZM1106.31 354V339.455H1108.13V345.273H1115.4V339.455H1117.22V354H1115.4V346.909H1108.13V354H1106.31ZM1120.86 354V339.455H1130.31V341.091H1122.68V345.273H1129.4V346.909H1122.68V352.364H1130.31V354H1120.86ZM1135.41 346.764H1139.96C1140.94 346.764 1141.64 346.582 1142.05 346.218C1142.47 345.855 1142.68 345.255 1142.68 344.418V343.291C1142.68 342.503 1142.47 341.939 1142.05 341.6C1141.64 341.261 1140.94 341.091 1139.96 341.091H1135.41V346.764ZM1135.41 354H1133.59V339.455H1139.98C1141.49 339.455 1142.62 339.776 1143.38 340.418C1144.13 341.048 1144.5 342.006 1144.5 343.291V344.418C1144.5 345.57 1144.21 346.467 1143.61 347.109C1143.03 347.752 1142.14 348.152 1140.94 348.309L1144.67 354H1142.59L1138.9 348.364H1135.41V354ZM1148.14 354V339.455H1157.6V341.091H1149.96V345.273H1156.69V346.909H1149.96V352.364H1157.6V354H1148.14ZM1166.33 354.182C1164.43 354.182 1163.04 353.709 1162.17 352.764C1161.31 351.818 1160.88 350.552 1160.88 348.964V339.455H1162.7V348.964C1162.7 350.091 1162.94 350.97 1163.42 351.6C1163.92 352.23 1164.89 352.545 1166.33 352.545C1167.78 352.545 1168.74 352.23 1169.22 351.6C1169.72 350.97 1169.97 350.091 1169.97 348.964V339.455H1171.79V348.964C1171.79 350.552 1171.35 351.818 1170.48 352.764C1169.62 353.709 1168.24 354.182 1166.33 354.182ZM1180.68 350.364L1177.16 341.545V354H1175.43V339.455H1178.16L1181.87 348.855L1185.56 339.455H1188.16V354H1186.43V341.564L1182.9 350.364H1180.68Z" fill="white"/>
<g filter="url(#filter3_d_439_101)">
<path d="M1213.16 91.3391L1241.31 27.4571C1244.87 19.3698 1238.77 10.3352 1229.93 10.6245L1039.23 16.8703C1030.35 17.1609 1024.86 26.65 1029.02 34.4906L1059.62 92.1267C1061.7 96.0484 1065.78 98.5 1070.22 98.5H1202.17C1206.93 98.5 1211.24 95.6912 1213.16 91.3391Z" fill="url(#paint22_radial_439_101)" fillOpacity="0.56" shapeRendering="crispEdges"/>
<path d="M1240.39 27.0539L1212.24 90.9358C1210.48 94.9253 1206.53 97.5 1202.17 97.5H1070.22C1066.15 97.5 1062.41 95.2527 1060.5 91.6578L1029.9 34.0217C1026.09 26.8345 1031.13 18.1361 1039.26 17.8698L1229.97 11.6239C1238.06 11.3587 1243.66 19.6405 1240.39 27.0539Z" stroke="#404040" strokeWidth="2" shapeRendering="crispEdges"/>
</g>
<path d="M1087.66 74.328C1087.66 74.784 1087.47 75.192 1087.16 75.528L1085.19 77.496C1084.86 77.832 1084.42 78 1083.99 78H1075.86V61.992H1083.97C1084.42 61.992 1084.86 62.16 1085.17 62.496L1087.14 64.464C1087.47 64.8 1087.66 65.208 1087.66 65.664V74.328ZM1085.46 74.04L1085.48 65.952C1085.48 65.832 1085.41 65.712 1085.34 65.616L1083.97 64.248C1083.87 64.152 1083.75 64.104 1083.63 64.104H1078.04V75.888H1083.61C1083.75 75.888 1083.87 75.84 1083.94 75.744L1085.31 74.376C1085.41 74.28 1085.46 74.16 1085.46 74.04ZM1106.03 78H1103.8L1102.16 73.704H1094.99L1093.36 78H1091.17L1097.17 61.992H1100.05L1106.03 78ZM1101.37 71.688L1098.59 63.96L1095.76 71.688H1101.37ZM1128.33 78H1117.98V61.992H1120.17V75.888H1128.33V78ZM1145.08 78H1142.85L1141.22 73.704H1134.04L1132.41 78H1130.23L1136.23 61.992H1139.11L1145.08 78ZM1140.43 71.688L1137.64 63.96L1134.81 71.688H1140.43ZM1160.26 61.992L1154.7 70.92V78H1152.51V70.92L1146.92 61.992H1149.37L1153.62 68.784L1157.86 61.992H1160.26ZM1174.44 78H1164.1V61.992H1174.44V64.104H1166.28V68.928H1174.44V71.04H1166.28V75.888H1174.44V78ZM1192.91 78H1190.27L1185.71 71.424C1185.59 71.28 1185.45 71.208 1185.3 71.208H1182.13V78H1179.95V61.992H1188.66C1189.12 61.992 1189.5 62.16 1189.81 62.472L1191.23 63.888C1191.57 64.224 1191.76 64.608 1191.76 65.088V68.112C1191.76 68.592 1191.57 69 1191.25 69.312L1189.84 70.728C1189.53 71.04 1189.12 71.208 1188.69 71.208H1188.09L1192.91 78ZM1189.55 67.824L1189.57 65.376C1189.57 65.232 1189.5 65.112 1189.43 65.04L1188.64 64.248C1188.54 64.152 1188.45 64.104 1188.3 64.104H1182.13V69.096H1188.28C1188.42 69.096 1188.54 69.048 1188.61 68.952L1189.41 68.16C1189.5 68.064 1189.55 67.968 1189.55 67.824Z" fill="#FF6B6B"/>
</g>
<defs>
<filter id="filter0_d_439_101" x="246.916" y="-1.10391" width="365.009" height="132.704" filterUnits="userSpaceOnUse" colorInterpolationFilters="sRGB">
<feFlood floodOpacity="0" result="BackgroundImageFix"/>
<feColorMatrix in="SourceAlpha" type="matrix" values="0 0 0 0 0 0 0 0 0 0 0 0 0 0 0 0 0 0 127 0" result="hardAlpha"/>
<feOffset dy="4"/>
<feGaussianBlur stdDeviation="11.3"/>
<feComposite in2="hardAlpha" operator="out"/>
<feColorMatrix type="matrix" values="0 0 0 0 1 0 0 0 0 1 0 0 0 0 1 0 0 0 0.04 0"/>
<feBlend mode="normal" in2="BackgroundImageFix" result="effect1_dropShadow_439_101"/>
<feBlend mode="normal" in="SourceGraphic" in2="effect1_dropShadow_439_101" result="shape"/>
</filter>
<filter id="filter1_d_439_101" x="1005.01" y="391.017" width="259.934" height="133.083" filterUnits="userSpaceOnUse" colorInterpolationFilters="sRGB">
<feFlood floodOpacity="0" result="BackgroundImageFix"/>
<feColorMatrix in="SourceAlpha" type="matrix" values="0 0 0 0 0 0 0 0 0 0 0 0 0 0 0 0 0 0 127 0" result="hardAlpha"/>
<feOffset dy="4"/>
<feGaussianBlur stdDeviation="11.3"/>
<feComposite in2="hardAlpha" operator="out"/>
<feColorMatrix type="matrix" values="0 0 0 0 1 0 0 0 0 1 0 0 0 0 1 0 0 0 0.04 0"/>
<feBlend mode="normal" in2="BackgroundImageFix" result="effect1_dropShadow_439_101"/>
<feBlend mode="normal" in="SourceGraphic" in2="effect1_dropShadow_439_101" result="shape"/>
</filter>
<filter id="filter2_d_439_101" x="1670.7" y="-5.03945" width="296.845" height="132.639" filterUnits="userSpaceOnUse" colorInterpolationFilters="sRGB">
<feFlood floodOpacity="0" result="BackgroundImageFix"/>
<feColorMatrix in="SourceAlpha" type="matrix" values="0 0 0 0 0 0 0 0 0 0 0 0 0 0 0 0 0 0 127 0" result="hardAlpha"/>
<feOffset dy="4"/>
<feGaussianBlur stdDeviation="11.3"/>
<feComposite in2="hardAlpha" operator="out"/>
<feColorMatrix type="matrix" values="0 0 0 0 1 0 0 0 0 1 0 0 0 0 1 0 0 0 0.04 0"/>
<feBlend mode="normal" in2="BackgroundImageFix" result="effect1_dropShadow_439_101"/>
<feBlend mode="normal" in="SourceGraphic" in2="effect1_dropShadow_439_101" result="shape"/>
</filter>
<filter id="filter3_d_439_101" x="1005.01" y="-7.98281" width="259.934" height="133.083" filterUnits="userSpaceOnUse" colorInterpolationFilters="sRGB">
<feFlood floodOpacity="0" result="BackgroundImageFix"/>
<feColorMatrix in="SourceAlpha" type="matrix" values="0 0 0 0 0 0 0 0 0 0 0 0 0 0 0 0 0 0 127 0" result="hardAlpha"/>
<feOffset dy="4"/>
<feGaussianBlur stdDeviation="11.3"/>
<feComposite in2="hardAlpha" operator="out"/>
<feColorMatrix type="matrix" values="0 0 0 0 1 0 0 0 0 1 0 0 0 0 1 0 0 0 0.04 0"/>
<feBlend mode="normal" in2="BackgroundImageFix" result="effect1_dropShadow_439_101"/>
<feBlend mode="normal" in="SourceGraphic" in2="effect1_dropShadow_439_101" result="shape"/>
</filter>
<linearGradient id="paint0_linear_439_101" x1="1555.86" y1="621" x2="1392.41" y2="624.041" gradientUnits="userSpaceOnUse">
<stop stopColor="#864141" stopOpacity="0"/>
<stop offset="0.369597" stopColor="#EA4A4A"/>
<stop offset="0.718286" stopColor="#EA4A4A"/>
<stop offset="1" stopColor="#864141" stopOpacity="0"/>
</linearGradient>
<linearGradient id="paint1_linear_439_101" x1="303" y1="595.628" x2="303.36" y2="651.858" gradientUnits="userSpaceOnUse">
<stop stopColor="#864141" stopOpacity="0"/>
<stop offset="0.369597" stopColor="#EA4A4A"/>
<stop offset="0.718286" stopColor="#EA4A4A"/>
<stop offset="1" stopColor="#864141" stopOpacity="0"/>
</linearGradient>
<linearGradient id="paint2_linear_439_101" x1="303" y1="595.628" x2="303.36" y2="651.858" gradientUnits="userSpaceOnUse">
<stop stopColor="#864141" stopOpacity="0"/>
<stop offset="0.369597" stopColor="#EA4A4A"/>
<stop offset="0.718286" stopColor="#EA4A4A"/>
<stop offset="1" stopColor="#864141" stopOpacity="0"/>
</linearGradient>
<linearGradient id="paint3_linear_439_101" x1="303" y1="337.628" x2="303.36" y2="393.858" gradientUnits="userSpaceOnUse">
<stop stopColor="#864141" stopOpacity="0"/>
<stop offset="0.369597" stopColor="#EA4A4A"/>
<stop offset="0.718286" stopColor="#EA4A4A"/>
<stop offset="1" stopColor="#864141" stopOpacity="0"/>
</linearGradient>
<linearGradient id="paint4_linear_439_101" x1="204.581" y1="209" x2="109.847" y2="210.021" gradientUnits="userSpaceOnUse">
<stop stopColor="#864141" stopOpacity="0"/>
<stop offset="0.369597" stopColor="#EA4A4A"/>
<stop offset="0.718286" stopColor="#EA4A4A"/>
<stop offset="1" stopColor="#864141" stopOpacity="0"/>
</linearGradient>
<linearGradient id="paint5_linear_439_101" x1="857.167" y1="289.954" x2="665.786" y2="289.968" gradientUnits="userSpaceOnUse">
<stop stopColor="#864141" stopOpacity="0"/>
<stop offset="0.369597" stopColor="#EA4A4A"/>
<stop offset="0.718286" stopColor="#EA4A4A"/>
<stop offset="1" stopColor="#864141" stopOpacity="0"/>
</linearGradient>
<linearGradient id="paint6_linear_439_101" x1="444.05" y1="209" x2="443.786" y2="101.264" gradientUnits="userSpaceOnUse">
<stop stopColor="#6D3030"/>
<stop offset="1" stopColor="#F77E7E" stopOpacity="0"/>
</linearGradient>
<radialGradient id="paint7_radial_439_101" cx="0" cy="0" r="1" gradientUnits="userSpaceOnUse" gradientTransform="translate(429.5 275.5) rotate(90) scale(37.5 145.5)">
<stop stopOpacity="0"/>
<stop offset="0.885423"/>
</radialGradient>
<radialGradient id="paint8_radial_439_101" cx="0" cy="0" r="1" gradientUnits="userSpaceOnUse" gradientTransform="translate(428.874 76.9096) rotate(90) scale(28.0904 151.654)">
<stop stopOpacity="0"/>
<stop offset="0.885423"/>
</radialGradient>
<radialGradient id="paint9_radial_439_101" cx="0" cy="0" r="1" gradientUnits="userSpaceOnUse" gradientTransform="translate(1134.75 469.25) rotate(90) scale(28.25 101.25)">
<stop stopOpacity="0"/>
<stop offset="0.885423"/>
</radialGradient>
<linearGradient id="paint10_linear_439_101" x1="1148.05" y1="595" x2="1147.79" y2="487.264" gradientUnits="userSpaceOnUse">
<stop stopColor="#6D3030"/>
<stop offset="1" stopColor="#F77E7E" stopOpacity="0"/>
</linearGradient>
<radialGradient id="paint11_radial_439_101" cx="0" cy="0" r="1" gradientUnits="userSpaceOnUse" gradientTransform="translate(1133.5 661.5) rotate(90) scale(37.5 145.5)">
<stop stopOpacity="0"/>
<stop offset="0.885423"/>
</radialGradient>
<linearGradient id="paint12_linear_439_101" x1="703.85" y1="170" x2="887.589" y2="166.156" gradientUnits="userSpaceOnUse">
<stop stopColor="#864141" stopOpacity="0"/>
<stop offset="0.369597" stopColor="#EA4A4A"/>
<stop offset="0.718286" stopColor="#EA4A4A"/>
<stop offset="1" stopColor="#864141" stopOpacity="0"/>
</linearGradient>
<linearGradient id="paint13_linear_439_101" x1="1555.36" y1="209" x2="1390.97" y2="212.076" gradientUnits="userSpaceOnUse">
<stop stopColor="#864141" stopOpacity="0"/>
<stop offset="0.369597" stopColor="#EA4A4A"/>
<stop offset="0.718286" stopColor="#EA4A4A"/>
<stop offset="1" stopColor="#864141" stopOpacity="0"/>
</linearGradient>
<radialGradient id="paint14_radial_439_101" cx="0" cy="0" r="1" gradientUnits="userSpaceOnUse" gradientTransform="translate(1816.87 226.812) rotate(90) scale(107.812 156.867)">
<stop stopOpacity="0"/>
<stop offset="0.885423"/>
</radialGradient>
<linearGradient id="paint15_linear_439_101" x1="1832.55" y1="571.812" x2="1830.53" y2="262.082" gradientUnits="userSpaceOnUse">
<stop stopColor="#6D3030"/>
<stop offset="1" stopColor="#F77E7E" stopOpacity="0"/>
</linearGradient>
<radialGradient id="paint16_radial_439_101" cx="0" cy="0" r="1" gradientUnits="userSpaceOnUse" gradientTransform="translate(1816.87 701.188) rotate(90) scale(107.812 156.867)">
<stop stopOpacity="0"/>
<stop offset="0.885423"/>
</radialGradient>
<radialGradient id="paint17_radial_439_101" cx="0" cy="0" r="1" gradientUnits="userSpaceOnUse" gradientTransform="translate(1818.79 72.9096) rotate(90) scale(28.0904 118.936)">
<stop stopOpacity="0"/>
<stop offset="0.885423"/>
</radialGradient>
<linearGradient id="paint18_linear_439_101" x1="1366.01" y1="505.452" x2="845.029" y2="505.555" gradientUnits="userSpaceOnUse">
<stop stopColor="#864141" stopOpacity="0"/>
<stop offset="0.369597" stopColor="#EA4A4A"/>
<stop offset="0.718286" stopColor="#EA4A4A"/>
<stop offset="1" stopColor="#864141" stopOpacity="0"/>
</linearGradient>
<linearGradient id="paint19_linear_439_101" x1="1149.05" y1="197" x2="1148.79" y2="89.2637" gradientUnits="userSpaceOnUse">
<stop stopColor="#6D3030"/>
<stop offset="1" stopColor="#F77E7E" stopOpacity="0"/>
</linearGradient>
<radialGradient id="paint20_radial_439_101" cx="0" cy="0" r="1" gradientUnits="userSpaceOnUse" gradientTransform="translate(1134.5 253.5) rotate(90) scale(37.5 145.5)">
<stop stopOpacity="0"/>
<stop offset="0.885423"/>
</radialGradient>
<radialGradient id="paint21_radial_439_101" cx="0" cy="0" r="1" gradientUnits="userSpaceOnUse" gradientTransform="translate(1134.5 347.5) rotate(90) scale(37.5 145.5)">
<stop stopOpacity="0"/>
<stop offset="0.885423"/>
</radialGradient>
<radialGradient id="paint22_radial_439_101" cx="0" cy="0" r="1" gradientUnits="userSpaceOnUse" gradientTransform="translate(1134.75 70.25) rotate(90) scale(28.25 101.25)">
<stop stopOpacity="0"/>
<stop offset="0.885423"/>
</radialGradient>
<clipPath id="clip0_439_101">
<rect x="254" y="45" width="354" height="301" rx="10" fill="white"/>
</clipPath>
<clipPath id="clip1_439_101">
<rect x="254" y="45" width="354" height="301" rx="10" fill="white"/>
</clipPath>
<clipPath id="clip2_439_101">
<rect x="958" y="441" width="354" height="284" rx="10" fill="white"/>
</clipPath>
<clipPath id="clip3_439_101">
<rect x="1642" y="45" width="350" height="784" rx="10" fill="white"/>
</clipPath>
<clipPath id="clip4_439_101">
<rect width="354" height="371" fill="white" transform="translate(958 42)"/>
</clipPath>
</defs>
</svg>
